<?xml version="1.0" encoding="UTF-8" ?>
<!DOCTYPE svg PUBLIC "-//W3C//DTD SVG 1.1//EN" "http://www.w3.org/Graphics/SVG/1.1/DTD/svg11.dtd">
<svg width="256pt" height="256pt" viewBox="0 0 256 256" version="1.1" xmlns="http://www.w3.org/2000/svg">
<path fill="#27ae60" stroke="#27ae60" stroke-width="0.09375" opacity="1.00" d=" M 114.4 0.0 L 115.0 0.0 C 123.9 1.7 133.1 1.0 142.1 0.5 C 177.0 4.3 209.9 23.0 230.8 51.3 C 241.2 65.2 248.8 81.2 252.8 98.2 C 254.2 103.2 254.4 108.5 256.0 113.4 L 256.0 114.0 C 254.7 118.1 255.0 122.4 256.0 126.5 L 256.0 130.4 C 255.1 134.6 254.8 138.9 255.4 143.1 C 252.8 165.8 243.9 187.8 230.0 205.9 C 214.3 226.7 192.0 242.2 167.3 250.3 C 159.3 253.0 150.8 254.0 142.6 256.0 L 142.0 256.0 C 138.2 254.8 134.2 255.0 130.4 256.0 L 125.6 256.0 C 121.8 255.0 117.9 254.8 114.1 256.0 L 113.5 256.0 C 104.3 253.8 94.7 252.7 85.8 249.2 C 50.5 237.1 21.3 208.7 8.2 173.7 C 4.2 163.4 1.7 152.6 0.6 141.6 C 1.3 136.4 0.8 131.2 1.0 126.1 C 1.2 122.4 0.8 118.7 0.0 115.1 L 0.0 114.4 C 1.1 110.8 1.6 107.0 2.2 103.2 C 5.2 88.3 10.8 73.8 18.8 60.8 C 37.5 30.2 69.6 8.1 105.0 1.9 C 108.1 1.4 111.3 0.9 114.4 0.0 M 103.3 64.2 C 101.0 66.4 102.4 70.2 102.0 73.0 C 105.8 75.7 110.8 75.5 115.0 73.9 C 114.6 70.7 116.4 66.4 113.8 64.1 C 110.3 63.8 106.8 63.8 103.3 64.2 M 102.0 78.0 C 101.9 81.9 102.3 85.8 101.7 89.7 C 97.8 95.3 92.8 100.2 88.8 105.8 C 87.9 106.9 88.1 108.6 88.0 109.9 C 88.1 132.6 88.1 155.3 88.0 178.0 C 88.1 181.2 87.8 184.5 88.3 187.6 C 89.7 189.1 91.7 189.8 93.6 190.3 C 100.3 192.0 107.2 192.3 114.0 191.9 C 119.2 191.4 124.5 190.7 129.1 188.1 L 129.1 187.2 C 130.6 183.0 129.9 178.4 130.0 174.0 C 130.0 152.7 129.9 131.3 130.0 109.9 C 130.1 108.5 129.7 107.1 129.2 105.8 C 125.1 101.2 121.3 96.3 117.2 91.7 C 113.6 88.2 115.7 82.7 115.1 78.2 C 110.8 79.3 106.3 79.1 102.0 78.0 M 139.2 135.4 C 136.7 140.9 135.0 147.2 136.7 153.3 C 137.9 160.2 142.5 166.9 149.6 168.7 C 148.9 174.1 149.3 179.5 148.2 184.9 C 145.7 185.4 142.4 185.1 140.7 187.5 C 148.2 187.7 155.8 187.7 163.3 187.5 C 161.1 184.8 157.3 185.2 154.2 184.6 C 154.0 179.5 154.0 174.3 154.1 169.1 C 157.6 167.5 161.1 165.6 163.3 162.3 C 168.8 154.7 169.1 144.2 164.9 135.9 C 160.1 136.1 155.3 137.4 150.4 136.6 C 146.7 136.0 142.9 135.9 139.2 135.4 Z" />
<path fill="#5cc388" stroke="#5cc388" stroke-width="0.09375" opacity="0.92" d=" M 115.0 0.0 L 140.9 0.0 L 142.1 0.5 C 133.1 1.0 123.9 1.7 115.0 0.0 Z" />
<path fill="#ecf0f1" stroke="#ecf0f1" stroke-width="0.09375" opacity="1.00" d=" M 103.3 64.2 C 106.8 63.8 110.3 63.8 113.8 64.1 C 116.4 66.4 114.6 70.7 115.0 73.9 C 110.8 75.5 105.8 75.7 102.0 73.0 C 102.4 70.2 101.0 66.4 103.3 64.2 Z" />
<path fill="#ecf0f1" stroke="#ecf0f1" stroke-width="0.09375" opacity="1.00" d=" M 102.0 78.0 C 106.3 79.1 110.8 79.3 115.1 78.2 C 115.7 82.7 113.6 88.2 117.2 91.7 C 121.3 96.3 125.1 101.2 129.2 105.8 C 128.8 132.9 129.0 160.1 129.1 187.2 L 129.1 188.1 C 124.5 190.7 119.2 191.4 114.0 191.9 C 107.2 192.3 100.3 192.0 93.6 190.3 C 91.7 189.8 89.7 189.1 88.3 187.6 C 87.8 184.5 88.1 181.2 88.0 178.0 C 88.1 155.3 88.1 132.6 88.0 109.9 C 88.1 108.6 87.9 106.9 88.8 105.8 C 92.8 100.2 97.8 95.3 101.7 89.7 C 102.3 85.8 101.9 81.9 102.0 78.0 M 93.0 143.0 C 93.1 147.8 92.7 152.7 93.3 157.5 L 93.9 156.7 L 93.9 157.7 C 98.5 158.6 103.2 159.6 108.0 159.8 C 113.3 159.5 118.5 158.7 123.7 157.6 C 124.3 150.6 123.9 143.7 123.9 136.7 C 114.0 138.6 103.7 138.6 93.8 136.6 C 92.6 138.5 93.1 140.9 93.0 143.0 Z" />
<path fill="#488f66" stroke="#488f66" stroke-width="0.09375" opacity="1.00" d=" M 129.2 105.8 C 129.7 107.1 130.1 108.5 130.0 109.9 C 129.9 131.3 130.0 152.7 130.0 174.0 C 129.9 178.4 130.6 183.0 129.1 187.2 C 129.0 160.1 128.8 132.9 129.2 105.8 Z" />
<path fill="#5bca8a" stroke="#5bca8a" stroke-width="0.09375" opacity="0.95" d=" M 256.0 126.5 C 255.0 122.4 254.7 118.1 256.0 114.0 L 256.0 126.5 Z" />
<path fill="#5cc388" stroke="#5cc388" stroke-width="0.09375" opacity="0.93" d=" M 0.0 115.1 C 0.8 118.7 1.2 122.4 1.0 126.1 C 0.8 131.2 1.3 136.4 0.6 141.6 L 0.0 142.7 L 0.0 115.1 Z" />
<path fill="#5cc388" stroke="#5cc388" stroke-width="0.09375" opacity="0.92" d=" M 255.4 143.1 C 254.8 138.9 255.1 134.6 256.0 130.4 L 256.0 141.9 L 255.4 143.1 Z" />
<path fill="#ecf0f1" stroke="#ecf0f1" stroke-width="0.09375" opacity="1.00" d=" M 139.2 135.4 C 142.9 135.9 146.7 136.0 150.4 136.6 C 155.3 137.4 160.1 136.1 164.9 135.9 C 169.1 144.2 168.8 154.7 163.3 162.3 C 161.1 165.6 157.6 167.5 154.1 169.1 C 154.0 174.3 154.0 179.5 154.2 184.6 C 157.3 185.2 161.1 184.8 163.3 187.5 C 155.8 187.7 148.2 187.7 140.7 187.5 C 142.4 185.1 145.7 185.4 148.2 184.9 C 148.6 184.8 149.4 184.7 149.8 184.6 C 150.2 179.3 150.2 174.0 149.6 168.7 C 142.5 166.9 137.9 160.2 136.7 153.3 C 135.0 147.2 136.7 140.9 139.2 135.4 M 140.8 151.2 C 140.1 157.6 145.2 164.6 152.0 164.3 C 158.8 164.5 163.8 157.7 163.2 151.2 C 159.5 151.9 155.8 152.8 152.0 153.0 C 148.2 152.7 144.5 151.8 140.8 151.2 Z" />
<path fill="#50936c" stroke="#50936c" stroke-width="0.09375" opacity="1.00" d=" M 93.0 143.0 C 93.1 140.9 92.6 138.5 93.8 136.6 C 94.0 143.3 94.0 150.0 93.9 156.7 L 93.3 157.5 C 92.7 152.7 93.1 147.8 93.0 143.0 Z" />
<path fill="#27ae60" stroke="#27ae60" stroke-width="0.09375" opacity="1.00" d=" M 93.8 136.6 C 103.7 138.6 114.0 138.6 123.9 136.7 C 123.9 143.7 124.3 150.6 123.7 157.6 C 118.5 158.7 113.3 159.5 108.0 159.8 C 103.2 159.6 98.5 158.6 93.9 157.7 L 93.9 156.7 C 94.0 150.0 94.0 143.3 93.8 136.6 Z" />
<path fill="#27ae60" stroke="#27ae60" stroke-width="0.09375" opacity="1.00" d=" M 140.8 151.2 C 144.5 151.8 148.2 152.7 152.0 153.0 C 155.8 152.8 159.5 151.9 163.2 151.2 C 163.8 157.7 158.8 164.5 152.0 164.3 C 145.2 164.6 140.1 157.6 140.8 151.2 Z" />
<path fill="#50936c" stroke="#50936c" stroke-width="0.09375" opacity="1.00" d=" M 149.6 168.7 C 150.2 174.0 150.2 179.3 149.8 184.6 C 149.4 184.7 148.6 184.8 148.2 184.9 C 149.3 179.5 148.9 174.1 149.6 168.7 Z" />
<path fill="#5dca8c" stroke="#5dca8c" stroke-width="0.09375" opacity="0.95" d=" M 114.1 256.0 C 117.9 254.8 121.8 255.0 125.6 256.0 L 114.1 256.0 Z" />
<path fill="#5dcb8c" stroke="#5dcb8c" stroke-width="0.09375" opacity="0.95" d=" M 130.4 256.0 C 134.2 255.0 138.2 254.8 142.0 256.0 L 130.4 256.0 Z" />
</svg>
