<?xml version="1.0" encoding="UTF-8" ?>
<!DOCTYPE svg PUBLIC "-//W3C//DTD SVG 1.1//EN" "http://www.w3.org/Graphics/SVG/1.1/DTD/svg11.dtd">
<svg width="256pt" height="256pt" viewBox="0 0 256 256" version="1.1" xmlns="http://www.w3.org/2000/svg">
<path fill="#51d2bd" stroke="#51d2bd" stroke-width="0.09375" opacity="0.95" d=" M 116.7 0.0 L 140.3 0.0 C 132.1 0.2 123.9 0.2 115.7 0.1 L 116.7 0.0 Z" />
<path fill="#1abb9c" stroke="#1abb9c" stroke-width="0.09375" opacity="1.00" d=" M 140.3 0.0 L 141.7 0.0 C 166.6 3.7 191.1 13.1 210.3 29.7 C 235.8 50.2 251.2 81.2 256.0 113.2 L 256.0 113.9 C 255.9 117.7 255.9 121.6 256.0 125.5 L 256.0 130.6 C 255.9 134.8 256.0 139.0 255.9 143.2 C 250.7 181.9 227.9 218.1 194.0 238.0 C 178.6 247.9 160.6 252.6 142.8 256.0 L 142.1 256.0 C 138.2 255.9 134.4 255.9 130.5 256.0 L 125.4 256.0 C 121.5 255.9 117.6 255.9 113.8 256.0 L 113.1 256.0 C 90.0 252.2 67.3 243.8 49.0 229.0 C 31.2 215.4 17.4 196.7 9.1 175.9 C 4.7 164.9 2.1 153.3 0.0 141.6 L 0.0 140.3 C 0.2 132.1 0.2 124.0 0.1 115.8 C 1.4 106.4 3.8 97.2 6.2 88.1 C 21.1 40.5 66.3 5.0 115.7 0.1 C 123.9 0.2 132.1 0.2 140.3 0.0 M 85.4 73.4 C 77.3 82.7 71.4 93.8 64.5 104.0 C 70.6 107.8 76.6 111.5 82.8 115.0 C 86.2 110.3 89.7 105.7 92.9 100.8 C 93.2 131.3 92.4 161.9 93.6 192.5 L 93.7 191.8 C 116.6 192.1 139.5 192.2 162.4 191.8 L 162.4 192.4 C 164.0 161.9 162.0 131.4 163.6 100.9 C 167.2 105.3 170.1 110.2 173.2 114.9 C 178.5 112.0 183.8 109.1 188.8 105.8 C 190.8 104.6 192.6 101.7 189.0 100.1 C 183.9 92.1 179.0 84.1 173.6 76.4 C 165.9 67.8 153.6 67.4 143.4 64.1 C 139.1 69.5 133.1 75.4 125.4 73.5 C 119.9 72.8 116.2 68.2 112.7 64.3 C 103.6 67.0 93.3 67.6 85.4 73.4 Z" />
<path fill="#ebeff0" stroke="#ebeff0" stroke-width="0.09375" opacity="1.00" d=" M 85.4 73.4 C 93.3 67.6 103.6 67.0 112.7 64.3 C 116.2 68.2 119.9 72.8 125.4 73.5 C 133.1 75.4 139.1 69.5 143.4 64.1 C 153.6 67.4 165.9 67.8 173.6 76.4 C 179.0 84.1 183.9 92.1 189.0 100.1 C 192.6 101.7 190.8 104.6 188.8 105.8 C 183.8 109.1 178.5 112.0 173.2 114.9 C 170.1 110.2 167.2 105.3 163.6 100.9 C 163.3 100.5 162.7 99.8 162.4 99.4 C 161.8 130.2 161.7 161.0 162.4 191.8 C 139.5 192.2 116.6 192.1 93.7 191.8 C 94.2 161.1 94.2 130.2 93.6 99.5 C 93.4 99.8 93.1 100.4 92.9 100.8 C 89.7 105.7 86.2 110.3 82.8 115.0 C 76.6 111.5 70.6 107.8 64.5 104.0 C 71.4 93.8 77.3 82.7 85.4 73.4 Z" />
<path fill="#4b9b8b" stroke="#4b9b8b" stroke-width="0.09375" opacity="1.00" d=" M 92.9 100.8 C 93.1 100.4 93.4 99.8 93.6 99.5 C 94.2 130.2 94.2 161.1 93.7 191.8 L 93.6 192.5 C 92.4 161.9 93.2 131.3 92.9 100.8 Z" />
<path fill="#489989" stroke="#489989" stroke-width="0.09375" opacity="1.00" d=" M 162.4 99.4 C 162.7 99.8 163.3 100.5 163.6 100.9 C 162.0 131.4 164.0 161.9 162.4 192.4 L 162.4 191.8 C 161.7 161.0 161.8 130.2 162.4 99.4 Z" />
<path fill="#53d1bd" stroke="#53d1bd" stroke-width="0.09375" opacity="0.95" d=" M 256.0 125.5 C 255.9 121.6 255.9 117.7 256.0 113.9 L 256.0 125.5 Z" />
<path fill="#51d2bd" stroke="#51d2bd" stroke-width="0.09375" opacity="0.96" d=" M 0.0 116.8 L 0.1 115.8 C 0.2 124.0 0.2 132.1 0.0 140.3 L 0.0 116.8 Z" />
<path fill="#51c9b6" stroke="#51c9b6" stroke-width="0.09375" opacity="0.92" d=" M 255.9 143.2 C 256.0 139.0 255.9 134.8 256.0 130.6 L 256.0 142.3 L 255.9 143.2 Z" />
<path fill="#52d1bd" stroke="#52d1bd" stroke-width="0.09375" opacity="0.95" d=" M 113.8 256.0 C 117.6 255.9 121.5 255.9 125.4 256.0 L 113.8 256.0 Z" />
<path fill="#52d2bd" stroke="#52d2bd" stroke-width="0.09375" opacity="0.95" d=" M 130.5 256.0 C 134.4 255.9 138.2 255.9 142.1 256.0 L 130.5 256.0 Z" />
</svg>
