<?xml version="1.0" encoding="UTF-8" ?>
<!DOCTYPE svg PUBLIC "-//W3C//DTD SVG 1.1//EN" "http://www.w3.org/Graphics/SVG/1.1/DTD/svg11.dtd">
<svg width="256pt" height="256pt" viewBox="0 0 256 256" version="1.1" xmlns="http://www.w3.org/2000/svg">
<path fill="#c66a5f" stroke="#c66a5f" stroke-width="0.09375" opacity="0.90" d=" M 114.0 0.0 L 127.4 0.0 C 123.1 1.5 118.5 1.2 114.1 1.0 L 114.0 0.0 Z" />
<path fill="#c0392b" stroke="#c0392b" stroke-width="0.09375" opacity="1.00" d=" M 127.4 0.0 L 128.6 0.0 C 132.9 1.5 137.5 1.2 142.0 1.0 C 156.2 1.7 170.0 6.2 182.9 12.1 C 220.4 29.6 248.4 66.4 254.6 107.4 C 254.9 109.4 254.8 111.6 256.0 113.4 L 256.0 113.6 C 253.7 117.2 255.0 121.8 256.0 125.6 L 256.0 131.4 C 254.5 135.1 254.8 139.1 255.0 142.9 C 255.0 150.2 253.0 157.2 251.2 164.2 C 245.3 184.3 234.3 202.7 219.8 217.8 C 200.5 237.3 175.0 250.7 147.8 254.8 C 146.2 255.0 144.5 255.0 142.9 255.0 C 139.0 254.8 135.1 254.5 131.4 256.0 L 125.6 256.0 C 121.8 255.0 117.2 253.7 113.7 256.0 L 113.5 256.0 C 113.1 255.8 112.2 255.4 111.8 255.2 C 82.1 251.7 54.1 237.0 33.9 215.1 C 20.5 200.6 10.5 183.0 4.9 164.0 C 3.1 156.8 1.0 149.5 1.0 141.9 C 1.2 137.5 1.5 132.9 0.0 128.6 L 0.0 127.4 C 1.5 123.1 1.2 118.5 1.0 114.1 C 1.8 98.6 7.0 83.5 13.8 69.7 C 26.0 45.9 45.9 26.0 69.7 13.8 C 83.5 7.0 98.6 1.8 114.1 1.0 C 118.5 1.2 123.1 1.5 127.4 0.0 M 88.3 64.4 C 84.8 65.5 83.1 69.5 83.2 73.0 C 83.2 108.3 83.2 143.6 83.2 179.0 C 83.2 182.1 82.7 185.6 84.5 188.4 C 85.7 190.7 88.4 192.1 90.9 192.0 C 115.6 192.0 140.3 192.0 165.0 192.0 C 169.5 192.3 172.9 188.3 172.9 184.0 C 173.0 147.0 172.9 110.0 172.9 73.0 C 173.3 68.4 169.9 63.8 165.1 64.0 C 141.0 64.0 117.0 64.0 93.0 64.0 C 91.4 64.0 89.8 63.8 88.3 64.4 Z" />
<path fill="#c76b60" stroke="#c76b60" stroke-width="0.09375" opacity="0.90" d=" M 128.6 0.0 L 141.8 0.0 L 142.0 1.0 C 137.5 1.2 132.9 1.5 128.6 0.0 Z" />
<path fill="#eeeeee" stroke="#eeeeee" stroke-width="0.09375" opacity="1.00" d=" M 88.3 64.4 C 89.8 63.8 91.4 64.0 93.0 64.0 C 117.0 64.0 141.0 64.0 165.1 64.0 C 169.9 63.8 173.3 68.4 172.9 73.0 C 172.9 110.0 173.0 147.0 172.9 184.0 C 172.9 188.3 169.5 192.3 165.0 192.0 C 140.3 192.0 115.6 192.0 90.9 192.0 C 88.4 192.1 85.7 190.7 84.5 188.4 C 82.7 185.6 83.2 182.1 83.2 179.0 C 83.2 143.6 83.2 108.3 83.2 73.0 C 83.1 69.5 84.8 65.5 88.3 64.4 M 90.2 68.2 C 86.8 69.6 85.7 74.9 88.8 77.1 C 92.0 79.9 97.8 77.4 97.3 73.0 C 97.4 69.3 93.5 67.0 90.2 68.2 M 160.4 68.4 C 157.5 70.0 156.8 74.5 159.2 76.8 C 162.0 80.1 168.7 77.6 168.0 73.0 C 168.2 69.2 163.6 66.8 160.4 68.4 M 125.4 75.4 C 117.6 76.8 111.6 85.3 113.8 93.1 C 115.2 100.7 123.5 105.8 131.0 104.1 C 139.0 102.8 144.7 93.7 142.1 86.0 C 140.3 79.0 132.5 73.9 125.4 75.4 M 120.4 113.5 C 105.1 116.7 92.9 131.3 93.0 147.0 C 92.5 160.6 101.0 174.0 113.4 179.5 C 119.8 182.4 127.1 183.8 134.1 182.2 C 144.6 180.5 154.1 173.5 159.0 164.0 C 162.8 157.2 163.8 149.0 162.6 141.4 C 160.4 129.4 151.6 118.9 140.2 114.8 C 133.9 112.4 126.9 112.3 120.4 113.5 M 90.4 177.4 C 87.0 178.8 85.6 183.9 88.7 186.3 C 91.6 189.4 97.2 187.1 97.3 183.0 C 97.9 179.3 93.8 176.2 90.4 177.4 M 161.4 177.4 C 158.1 178.3 156.6 182.7 158.6 185.4 C 160.3 188.3 164.9 188.7 166.8 185.8 C 170.4 182.3 166.0 175.6 161.4 177.4 Z" />
<path fill="#c0392b" stroke="#c0392b" stroke-width="0.09375" opacity="1.00" d=" M 90.2 68.2 C 93.5 67.0 97.4 69.3 97.3 73.0 C 97.8 77.4 92.0 79.9 88.8 77.1 C 85.7 74.9 86.8 69.6 90.2 68.2 Z" />
<path fill="#c0392b" stroke="#c0392b" stroke-width="0.09375" opacity="1.00" d=" M 160.4 68.4 C 163.6 66.8 168.2 69.2 168.0 73.0 C 168.7 77.6 162.0 80.1 159.2 76.8 C 156.8 74.5 157.5 70.0 160.4 68.4 Z" />
<path fill="#c0392b" stroke="#c0392b" stroke-width="0.09375" opacity="1.00" d=" M 125.4 75.4 C 132.5 73.9 140.3 79.0 142.1 86.0 C 144.7 93.7 139.0 102.8 131.0 104.1 C 123.5 105.8 115.2 100.7 113.8 93.1 C 111.6 85.3 117.6 76.8 125.4 75.4 M 127.3 83.4 C 121.3 83.6 119.7 92.5 124.5 95.4 C 127.9 97.3 133.2 96.1 134.1 91.9 C 135.9 87.6 131.9 82.7 127.3 83.4 Z" />
<path fill="#eeeeee" stroke="#eeeeee" stroke-width="0.09375" opacity="1.00" d=" M 127.3 83.4 C 131.9 82.7 135.9 87.6 134.1 91.9 C 133.2 96.1 127.9 97.3 124.5 95.4 C 119.7 92.5 121.3 83.6 127.3 83.4 Z" />
<path fill="#c0392b" stroke="#c0392b" stroke-width="0.09375" opacity="1.00" d=" M 120.4 113.5 C 126.9 112.3 133.9 112.4 140.2 114.8 C 151.6 118.9 160.4 129.4 162.6 141.4 C 163.8 149.0 162.8 157.2 159.0 164.0 C 154.1 173.5 144.6 180.5 134.1 182.2 C 127.1 183.8 119.8 182.4 113.4 179.5 C 101.0 174.0 92.5 160.6 93.0 147.0 C 92.9 131.3 105.1 116.7 120.4 113.5 M 122.3 121.3 C 109.6 123.8 100.3 136.3 101.0 149.1 C 101.6 156.9 105.4 164.5 111.8 169.2 C 121.2 176.6 135.6 176.4 144.8 168.8 C 153.7 161.9 157.5 149.1 153.4 138.6 C 149.3 126.1 135.1 118.4 122.3 121.3 Z" />
<path fill="#c66a5f" stroke="#c66a5f" stroke-width="0.09375" opacity="0.90" d=" M 0.0 114.1 L 1.0 114.1 C 1.2 118.5 1.5 123.1 0.0 127.4 L 0.0 114.1 Z" />
<path fill="#d36c60" stroke="#d36c60" stroke-width="0.09375" opacity="0.95" d=" M 256.0 125.6 C 255.0 121.8 253.7 117.2 256.0 113.6 L 256.0 125.6 Z" />
<path fill="#eeeeee" stroke="#eeeeee" stroke-width="0.09375" opacity="1.00" d=" M 122.3 121.3 C 135.1 118.4 149.3 126.1 153.4 138.6 C 157.5 149.1 153.7 161.9 144.8 168.8 C 135.6 176.4 121.2 176.6 111.8 169.2 C 105.4 164.5 101.6 156.9 101.0 149.1 C 100.3 136.3 109.6 123.8 122.3 121.3 M 124.4 140.4 C 119.1 143.0 118.3 151.4 123.6 154.4 C 128.3 158.2 136.3 154.0 136.0 148.0 C 136.8 141.9 129.6 138.0 124.4 140.4 Z" />
<path fill="#c76a5f" stroke="#c76a5f" stroke-width="0.09375" opacity="0.91" d=" M 0.0 128.6 C 1.5 132.9 1.2 137.5 1.0 141.9 L 0.0 142.0 L 0.0 128.6 Z" />
<path fill="#ca6c61" stroke="#ca6c61" stroke-width="0.09375" opacity="0.91" d=" M 255.0 142.9 C 254.8 139.1 254.5 135.1 256.0 131.4 L 256.0 142.9 L 255.0 142.9 Z" />
<path fill="#c0392b" stroke="#c0392b" stroke-width="0.09375" opacity="1.00" d=" M 124.4 140.4 C 129.6 138.0 136.8 141.9 136.0 148.0 C 136.3 154.0 128.3 158.2 123.6 154.4 C 118.3 151.4 119.1 143.0 124.4 140.4 Z" />
<path fill="#c0392b" stroke="#c0392b" stroke-width="0.09375" opacity="1.00" d=" M 90.4 177.4 C 93.8 176.2 97.9 179.3 97.3 183.0 C 97.2 187.1 91.6 189.4 88.7 186.3 C 85.6 183.9 87.0 178.8 90.4 177.4 Z" />
<path fill="#c0392b" stroke="#c0392b" stroke-width="0.09375" opacity="1.00" d=" M 161.4 177.4 C 166.0 175.6 170.4 182.3 166.8 185.8 C 164.9 188.7 160.3 188.3 158.6 185.4 C 156.6 182.7 158.1 178.3 161.4 177.4 Z" />
<path fill="#d36c60" stroke="#d36c60" stroke-width="0.09375" opacity="0.95" d=" M 113.7 256.0 C 117.2 253.7 121.8 255.0 125.6 256.0 L 113.7 256.0 Z" />
<path fill="#ca6c61" stroke="#ca6c61" stroke-width="0.09375" opacity="0.91" d=" M 131.4 256.0 C 135.1 254.5 139.0 254.8 142.9 255.0 L 143.0 256.0 L 131.4 256.0 Z" />
</svg>
