<?xml version="1.0" encoding="UTF-8" ?>
<!DOCTYPE svg PUBLIC "-//W3C//DTD SVG 1.1//EN" "http://www.w3.org/Graphics/SVG/1.1/DTD/svg11.dtd">
<svg width="600pt" height="600pt" viewBox="0 0 600 600" version="1.1" xmlns="http://www.w3.org/2000/svg">
<path fill="#2dcb71" stroke="#2dcb71" stroke-width="0.09375" opacity="1.00" d=" M 275.5 0.0 L 324.5 0.0 C 372.0 4.7 418.6 19.4 459.1 44.9 C 527.1 86.9 576.9 157.2 593.5 235.4 C 596.3 248.7 598.2 262.1 600.0 275.5 L 600.0 324.5 C 596.3 361.0 587.1 397.0 571.0 430.0 C 537.5 501.1 474.5 557.5 400.3 583.4 C 376.0 592.5 350.2 596.6 324.5 600.0 L 275.5 600.0 C 237.6 596.1 200.0 586.3 166.0 569.1 C 85.5 529.7 25.1 452.2 6.5 364.6 C 3.7 351.3 1.8 337.9 0.0 324.5 L 0.0 275.5 C 1.4 265.2 2.9 254.9 4.7 244.6 C 19.3 162.8 70.3 88.5 140.9 44.9 C 181.4 19.4 228.0 4.7 275.5 0.0 M 260.5 130.3 C 260.3 141.3 266.8 150.7 272.3 159.7 C 283.3 176.2 294.7 192.5 308.4 206.8 C 313.4 190.3 314.3 173.0 316.1 156.0 C 317.0 144.8 318.2 133.2 314.8 122.3 C 311.2 112.4 302.4 103.3 291.0 104.9 C 276.2 103.0 260.7 115.1 260.5 130.3 M 329.7 130.7 C 322.5 155.3 321.4 181.2 320.1 206.6 C 335.8 197.8 348.6 184.8 361.9 172.9 C 371.4 164.3 381.5 154.7 384.8 141.9 C 388.2 126.8 374.9 113.8 361.4 110.5 C 347.5 107.2 332.9 117.1 329.7 130.7 M 205.3 186.7 C 209.4 195.7 218.6 200.6 227.7 203.3 C 250.5 209.6 274.1 212.5 297.6 214.9 C 295.7 210.3 293.0 206.0 290.2 201.8 C 280.2 188.2 269.6 175.1 258.6 162.4 C 251.4 154.8 242.6 147.8 231.9 146.2 C 212.3 145.3 197.0 169.1 205.3 186.7 M 388.0 172.9 C 371.6 180.8 356.6 191.2 342.0 201.9 C 336.0 206.0 330.3 210.4 325.1 215.4 C 345.1 221.1 365.9 223.5 386.5 225.6 C 397.8 226.2 410.6 226.6 419.8 218.8 C 431.9 209.1 430.9 189.1 420.7 178.3 C 413.1 168.7 398.4 167.6 388.0 172.9 M 214.9 221.8 C 206.6 224.0 198.9 229.6 195.7 237.7 C 193.2 243.7 194.3 250.4 195.6 256.5 C 199.8 271.7 217.8 282.0 232.7 274.6 C 244.2 268.7 254.4 260.5 264.3 252.3 C 275.0 243.0 286.1 234.0 295.5 223.4 C 284.5 221.0 273.3 220.3 262.0 220.0 C 246.3 219.7 230.3 218.0 214.9 221.8 M 328.7 223.3 C 337.3 242.0 349.8 258.6 361.8 275.2 C 369.4 284.6 378.5 295.0 391.1 296.9 C 409.8 298.0 425.6 277.0 419.9 259.1 C 416.9 251.4 410.6 245.1 402.9 242.1 C 379.2 232.3 353.7 228.4 328.7 223.3 M 263.6 261.6 C 253.9 269.1 244.5 277.5 238.4 288.4 C 234.0 296.7 235.2 308.2 242.6 314.4 C 249.2 321.4 258.9 322.6 267.9 323.5 C 259.3 358.6 261.1 396.8 276.2 429.8 C 284.4 446.5 295.7 462.2 311.3 472.6 C 319.6 473.4 327.9 473.0 336.2 473.0 C 304.6 445.7 281.3 407.9 274.4 366.5 C 271.9 352.0 273.2 337.1 273.2 322.5 C 280.8 319.8 287.7 314.5 290.8 306.9 C 300.8 282.2 303.8 255.5 307.8 229.4 C 292.3 239.0 278.1 250.5 263.6 261.6 M 319.7 232.4 C 314.9 253.5 311.5 274.9 309.5 296.4 C 308.2 309.4 309.6 326.4 323.2 332.8 C 339.7 342.1 364.4 330.1 365.5 310.7 C 365.9 298.6 358.9 288.1 352.9 278.1 C 342.9 262.2 332.4 246.3 319.7 232.4 M 181.7 391.9 C 182.1 400.1 181.7 408.5 183.4 416.6 C 188.9 440.3 208.0 461.6 232.6 465.5 C 247.0 467.4 261.6 465.6 275.5 461.6 C 269.5 447.6 260.3 435.1 250.0 424.0 C 234.1 407.9 215.2 393.4 192.6 388.5 C 188.4 387.2 184.9 389.7 181.7 391.9 Z" />
<path fill="#eceff0" stroke="#eceff0" stroke-width="0.09375" opacity="1.00" d=" M 260.5 130.3 C 260.7 115.1 276.2 103.0 291.0 104.9 C 302.4 103.3 311.2 112.4 314.8 122.3 C 318.2 133.2 317.0 144.8 316.1 156.0 C 314.3 173.0 313.4 190.3 308.4 206.8 C 294.7 192.5 283.3 176.2 272.3 159.7 C 266.8 150.7 260.3 141.3 260.5 130.3 Z" />
<path fill="#eceff0" stroke="#eceff0" stroke-width="0.09375" opacity="1.00" d=" M 329.7 130.7 C 332.9 117.1 347.5 107.2 361.4 110.5 C 374.9 113.8 388.2 126.8 384.8 141.9 C 381.5 154.7 371.4 164.3 361.9 172.9 C 348.6 184.8 335.8 197.8 320.1 206.6 C 321.4 181.2 322.5 155.3 329.7 130.7 Z" />
<path fill="#eceff0" stroke="#eceff0" stroke-width="0.09375" opacity="1.00" d=" M 205.3 186.7 C 197.0 169.1 212.3 145.3 231.9 146.2 C 242.6 147.8 251.4 154.8 258.6 162.4 C 269.6 175.1 280.2 188.2 290.2 201.8 C 293.0 206.0 295.7 210.3 297.6 214.9 C 274.1 212.5 250.5 209.6 227.7 203.3 C 218.6 200.6 209.4 195.7 205.3 186.7 Z" />
<path fill="#eceff0" stroke="#eceff0" stroke-width="0.09375" opacity="1.00" d=" M 388.0 172.9 C 398.4 167.6 413.1 168.7 420.7 178.3 C 430.9 189.1 431.9 209.1 419.8 218.8 C 410.6 226.6 397.8 226.2 386.5 225.6 C 365.9 223.5 345.1 221.1 325.1 215.4 C 330.3 210.4 336.0 206.0 342.0 201.9 C 356.6 191.2 371.6 180.8 388.0 172.9 Z" />
<path fill="#eceff0" stroke="#eceff0" stroke-width="0.09375" opacity="1.00" d=" M 214.9 221.8 C 230.3 218.0 246.3 219.7 262.0 220.0 C 273.3 220.3 284.5 221.0 295.5 223.4 C 286.1 234.0 275.0 243.0 264.3 252.3 C 254.4 260.5 244.2 268.7 232.7 274.6 C 217.8 282.0 199.8 271.7 195.6 256.5 C 194.3 250.4 193.2 243.7 195.7 237.7 C 198.9 229.6 206.6 224.0 214.9 221.8 Z" />
<path fill="#eceff0" stroke="#eceff0" stroke-width="0.09375" opacity="1.00" d=" M 328.7 223.3 C 353.7 228.4 379.2 232.3 402.9 242.1 C 410.6 245.1 416.9 251.4 419.9 259.1 C 425.6 277.0 409.8 298.0 391.1 296.9 C 378.5 295.0 369.4 284.6 361.8 275.2 C 349.8 258.6 337.3 242.0 328.7 223.3 Z" />
<path fill="#ebf0f1" stroke="#ebf0f1" stroke-width="0.09375" opacity="1.00" d=" M 263.6 261.6 C 278.1 250.5 292.3 239.0 307.8 229.4 C 303.8 255.5 300.8 282.2 290.8 306.9 C 287.7 314.5 280.8 319.8 273.2 322.5 C 273.2 337.1 271.9 352.0 274.4 366.5 C 281.3 407.9 304.6 445.7 336.2 473.0 C 327.9 473.0 319.6 473.4 311.3 472.6 C 295.7 462.2 284.4 446.5 276.2 429.8 C 261.1 396.8 259.3 358.6 267.9 323.5 C 258.9 322.6 249.2 321.4 242.6 314.4 C 235.2 308.2 234.0 296.7 238.4 288.4 C 244.5 277.5 253.9 269.1 263.6 261.6 Z" />
<path fill="#eceff0" stroke="#eceff0" stroke-width="0.09375" opacity="1.00" d=" M 319.7 232.4 C 332.4 246.3 342.9 262.2 352.9 278.1 C 358.9 288.1 365.9 298.6 365.5 310.7 C 364.4 330.1 339.7 342.1 323.2 332.8 C 309.6 326.4 308.2 309.4 309.5 296.4 C 311.5 274.9 314.9 253.5 319.7 232.4 Z" />
<path fill="#eceff0" stroke="#eceff0" stroke-width="0.09375" opacity="1.00" d=" M 181.7 391.9 C 184.9 389.7 188.4 387.2 192.6 388.5 C 215.2 393.4 234.1 407.9 250.0 424.0 C 260.3 435.1 269.5 447.6 275.5 461.6 C 261.6 465.6 247.0 467.4 232.6 465.5 C 208.0 461.6 188.9 440.3 183.4 416.6 C 181.7 408.5 182.1 400.1 181.7 391.9 Z" />
</svg>
