<?xml version="1.0" encoding="UTF-8" ?>
<!DOCTYPE svg PUBLIC "-//W3C//DTD SVG 1.1//EN" "http://www.w3.org/Graphics/SVG/1.1/DTD/svg11.dtd">
<svg width="256pt" height="256pt" viewBox="0 0 256 256" version="1.1" xmlns="http://www.w3.org/2000/svg">
<path fill="#68badc" stroke="#68badc" stroke-width="0.09375" opacity="0.96" d=" M 116.7 0.0 L 139.3 0.0 L 140.4 0.2 C 132.2 1.4 123.8 1.3 115.6 0.3 L 116.7 0.0 Z" />
<path fill="#3498db" stroke="#3498db" stroke-width="0.09375" opacity="1.00" d=" M 44.7 30.7 C 64.4 13.5 89.6 3.1 115.6 0.3 C 123.8 1.3 132.2 1.4 140.4 0.2 C 154.5 2.1 168.6 5.3 181.5 11.5 C 212.6 25.6 237.6 52.8 248.9 85.1 C 252.5 94.6 254.2 104.6 255.7 114.5 C 254.6 118.5 255.0 122.6 256.0 126.6 L 256.0 131.4 C 255.1 135.3 254.7 139.2 255.3 143.1 C 250.9 185.5 223.2 224.3 185.0 243.0 C 176.1 247.5 166.7 250.8 157.0 253.0 C 152.3 254.3 147.3 254.4 142.6 256.0 L 142.1 256.0 C 138.4 254.2 134.3 255.0 130.4 256.0 L 126.6 256.0 C 123.1 255.2 119.5 254.8 115.9 255.2 C 115.2 255.2 113.8 255.2 113.0 255.2 C 83.6 252.4 55.7 237.9 35.3 216.7 C 23.1 203.7 13.3 188.4 7.4 171.6 C 3.5 161.6 1.8 151.0 0.2 140.4 C 1.3 132.2 1.3 123.8 0.2 115.6 C 1.4 109.9 1.7 104.0 3.3 98.4 C 9.4 72.2 24.2 48.1 44.7 30.7 M 147.2 92.2 C 142.9 96.6 135.3 94.5 131.2 99.2 C 128.8 101.3 128.9 104.5 129.0 107.4 C 132.0 105.6 131.6 101.3 134.8 99.7 C 138.9 97.4 144.3 98.2 148.0 95.0 C 151.3 92.6 152.3 88.4 152.1 84.6 C 148.7 85.6 149.4 90.0 147.2 92.2 M 116.9 119.1 C 109.9 118.8 103.0 119.1 96.0 119.0 C 93.2 119.0 90.3 118.6 87.7 119.9 C 77.2 121.0 67.7 128.7 65.0 139.0 C 61.4 150.4 67.7 163.6 78.3 168.7 C 83.7 171.6 90.0 171.6 96.0 170.9 C 103.6 169.4 109.7 164.1 113.7 157.6 C 123.4 158.4 133.2 157.9 142.9 157.9 C 149.0 170.3 165.7 174.8 177.7 168.7 C 184.1 165.7 189.0 159.7 191.0 152.9 C 193.9 143.9 190.8 133.5 183.9 127.1 C 180.0 123.2 174.6 121.0 169.2 120.0 C 168.2 119.3 167.2 119.0 166.0 119.0 C 157.3 118.7 148.5 119.6 139.7 118.4 C 135.3 109.6 121.0 110.1 116.9 119.1 Z" />
<path fill="#ecf0f1" stroke="#ecf0f1" stroke-width="0.09375" opacity="1.00" d=" M 147.2 92.2 C 149.4 90.0 148.7 85.6 152.1 84.6 C 152.3 88.4 151.3 92.6 148.0 95.0 C 144.3 98.2 138.9 97.4 134.8 99.7 C 131.6 101.3 132.0 105.6 129.0 107.4 C 128.9 104.5 128.8 101.3 131.2 99.2 C 135.3 94.5 142.9 96.6 147.2 92.2 Z" />
<path fill="#ecf0f1" stroke="#ecf0f1" stroke-width="0.09375" opacity="1.00" d=" M 116.9 119.1 C 121.0 110.1 135.3 109.6 139.7 118.4 C 140.6 119.3 141.6 120.1 143.0 120.0 C 151.7 120.2 160.5 119.9 169.2 120.0 C 174.6 121.0 180.0 123.2 183.9 127.1 C 190.8 133.5 193.9 143.9 191.0 152.9 C 189.0 159.7 184.1 165.7 177.7 168.7 C 165.7 174.8 149.0 170.3 142.9 157.9 C 139.1 156.3 134.9 157.1 131.0 157.0 C 125.2 157.2 119.4 156.3 113.7 157.6 C 109.7 164.1 103.6 169.4 96.0 170.9 C 90.0 171.6 83.7 171.6 78.3 168.7 C 67.7 163.6 61.4 150.4 65.0 139.0 C 67.7 128.7 77.2 121.0 87.7 119.9 C 95.2 120.0 102.6 120.0 110.0 120.1 C 112.3 120.1 114.8 120.1 116.9 119.1 M 86.9 139.9 C 83.0 140.1 79.0 140.0 75.0 140.1 C 74.9 142.7 74.9 145.3 75.0 147.9 C 79.0 148.0 83.0 147.9 86.9 148.1 C 87.0 152.2 86.7 156.3 87.5 160.4 L 87.8 159.5 C 89.4 162.1 92.6 160.5 95.0 160.1 C 95.0 156.1 95.0 152.0 95.0 148.0 C 99.0 148.0 103.1 148.0 107.1 148.0 C 107.7 145.6 109.0 142.2 106.7 140.3 C 102.8 139.7 98.9 140.1 95.0 140.0 C 95.0 136.0 95.0 131.9 94.9 127.9 C 92.5 127.7 90.2 127.7 87.8 127.6 C 86.3 131.5 87.2 135.8 86.9 139.9 M 165.3 132.1 C 162.8 133.2 161.2 136.6 163.1 138.9 C 165.1 142.7 172.0 141.4 172.0 136.9 C 172.6 133.3 168.5 130.9 165.3 132.1 M 154.4 143.3 C 152.4 144.8 151.1 147.9 153.0 150.0 C 155.1 153.3 160.8 152.6 161.8 148.7 C 163.3 144.5 157.9 141.1 154.4 143.3 M 175.3 143.1 C 172.3 144.6 171.8 149.5 174.8 151.3 C 177.4 153.2 182.3 151.5 182.1 147.9 C 183.0 144.2 178.5 141.4 175.3 143.1 M 166.3 152.2 C 162.4 153.2 161.5 159.0 164.8 161.2 C 167.7 163.5 172.7 160.7 172.1 157.0 C 172.5 154.0 169.1 151.4 166.3 152.2 Z" />
<path fill="#66bce2" stroke="#66bce2" stroke-width="0.09375" opacity="0.97" d=" M 255.7 114.5 L 256.0 115.7 L 256.0 126.6 C 255.0 122.6 254.6 118.5 255.7 114.5 Z" />
<path fill="#68bbdd" stroke="#68bbdd" stroke-width="0.09375" opacity="0.96" d=" M 0.0 116.7 L 0.2 115.6 C 1.3 123.8 1.3 132.2 0.2 140.4 L 0.0 139.3 L 0.0 116.7 Z" />
<path fill="#4b84aa" stroke="#4b84aa" stroke-width="0.09375" opacity="1.00" d=" M 139.7 118.4 C 148.5 119.6 157.3 118.7 166.0 119.0 C 167.2 119.0 168.2 119.3 169.2 120.0 C 160.5 119.9 151.7 120.2 143.0 120.0 C 141.6 120.1 140.6 119.3 139.7 118.4 Z" />
<path fill="#4c84aa" stroke="#4c84aa" stroke-width="0.09375" opacity="1.00" d=" M 87.7 119.9 C 90.3 118.6 93.2 119.0 96.0 119.0 C 103.0 119.1 109.9 118.8 116.9 119.1 C 114.8 120.1 112.3 120.1 110.0 120.1 C 102.6 120.0 95.2 120.0 87.7 119.9 Z" />
<path fill="#5487a9" stroke="#5487a9" stroke-width="0.09375" opacity="1.00" d=" M 86.9 139.9 C 87.2 135.8 86.3 131.5 87.8 127.6 C 88.1 131.7 88.2 135.8 87.9 139.9 L 86.9 139.9 Z" />
<path fill="#3498db" stroke="#3498db" stroke-width="0.09375" opacity="1.00" d=" M 87.8 127.6 C 90.2 127.7 92.5 127.7 94.9 127.9 C 95.0 131.9 95.0 136.0 95.0 140.0 C 98.9 140.1 102.8 139.7 106.7 140.3 C 109.0 142.2 107.7 145.6 107.1 148.0 C 103.1 148.0 99.0 148.0 95.0 148.0 C 95.0 152.0 95.0 156.1 95.0 160.1 C 92.6 160.5 89.4 162.1 87.8 159.5 C 88.2 155.7 88.1 151.9 87.9 148.1 L 86.9 148.1 C 83.0 147.9 79.0 148.0 75.0 147.9 C 74.9 145.3 74.9 142.7 75.0 140.1 C 79.0 140.0 83.0 140.1 86.9 139.9 L 87.9 139.9 C 88.2 135.8 88.1 131.7 87.8 127.6 Z" />
<path fill="#3498db" stroke="#3498db" stroke-width="0.09375" opacity="1.00" d=" M 165.3 132.1 C 168.5 130.9 172.6 133.3 172.0 136.9 C 172.0 141.4 165.1 142.7 163.1 138.9 C 161.2 136.6 162.8 133.2 165.3 132.1 Z" />
<path fill="#68b4cf" stroke="#68b4cf" stroke-width="0.09375" opacity="0.91" d=" M 255.3 143.1 C 254.7 139.2 255.1 135.3 256.0 131.4 L 256.0 141.9 L 255.3 143.1 Z" />
<path fill="#3498db" stroke="#3498db" stroke-width="0.09375" opacity="1.00" d=" M 154.4 143.3 C 157.9 141.1 163.3 144.5 161.8 148.7 C 160.8 152.6 155.1 153.3 153.0 150.0 C 151.1 147.9 152.4 144.8 154.4 143.3 Z" />
<path fill="#3498db" stroke="#3498db" stroke-width="0.09375" opacity="1.00" d=" M 175.3 143.1 C 178.5 141.4 183.0 144.2 182.1 147.9 C 182.3 151.5 177.4 153.2 174.8 151.3 C 171.8 149.5 172.3 144.6 175.3 143.1 Z" />
<path fill="#5487a9" stroke="#5487a9" stroke-width="0.09375" opacity="1.00" d=" M 86.9 148.1 L 87.9 148.1 C 88.1 151.9 88.2 155.7 87.8 159.5 L 87.5 160.4 C 86.7 156.3 87.0 152.2 86.9 148.1 Z" />
<path fill="#3498db" stroke="#3498db" stroke-width="0.09375" opacity="1.00" d=" M 166.3 152.2 C 169.1 151.4 172.5 154.0 172.1 157.0 C 172.7 160.7 167.7 163.5 164.8 161.2 C 161.5 159.0 162.4 153.2 166.3 152.2 Z" />
<path fill="#5b8bad" stroke="#5b8bad" stroke-width="0.09375" opacity="1.00" d=" M 113.7 157.6 C 119.4 156.3 125.2 157.2 131.0 157.0 C 134.9 157.1 139.1 156.3 142.9 157.9 C 133.2 157.9 123.4 158.4 113.7 157.6 Z" />
<path fill="#618f91" stroke="#618f91" stroke-width="0.09375" opacity="0.71" d=" M 113.0 255.2 C 113.8 255.2 115.2 255.2 115.9 255.2 L 115.7 256.0 L 113.3 256.0 L 113.0 255.2 Z" />
<path fill="#64bde7" stroke="#64bde7" stroke-width="0.09375" opacity="1.00" d=" M 115.9 255.2 C 119.5 254.8 123.1 255.2 126.6 256.0 L 115.7 256.0 L 115.9 255.2 Z" />
<path fill="#68badb" stroke="#68badb" stroke-width="0.09375" opacity="0.95" d=" M 130.4 256.0 C 134.3 255.0 138.4 254.2 142.1 256.0 L 130.4 256.0 Z" />
</svg>
