<?xml version="1.0" encoding="UTF-8" ?>
<!DOCTYPE svg PUBLIC "-//W3C//DTD SVG 1.1//EN" "http://www.w3.org/Graphics/SVG/1.1/DTD/svg11.dtd">
<svg width="256pt" height="256pt" viewBox="0 0 256 256" version="1.1" xmlns="http://www.w3.org/2000/svg">
<path fill="#9b59b6" stroke="#9b59b6" stroke-width="0.09375" opacity="1.00" d=" M 114.6 0.0 L 115.7 0.0 C 120.9 1.8 126.5 0.7 132.0 1.0 C 134.8 1.3 137.6 0.8 140.3 0.0 L 141.4 0.0 C 144.9 1.1 148.4 1.5 152.0 2.0 C 187.0 8.5 218.7 30.4 237.2 60.8 C 244.6 72.5 249.9 85.5 253.0 99.0 C 254.3 103.8 254.5 108.9 256.0 113.6 L 256.0 114.7 C 254.3 118.5 254.9 122.6 256.0 126.5 L 256.0 129.5 C 254.8 133.6 254.2 138.0 256.0 142.0 L 256.0 142.6 C 254.4 147.5 254.2 152.8 252.8 157.8 C 248.6 175.9 240.2 193.0 228.7 207.6 C 211.4 229.6 186.6 245.7 159.4 252.4 C 153.9 254.1 148.1 254.3 142.6 256.0 L 142.1 256.0 C 138.0 254.2 133.6 254.8 129.5 256.0 L 126.5 256.0 C 122.6 254.9 118.5 254.2 114.7 256.0 L 113.7 256.0 C 108.4 254.3 102.7 254.2 97.4 252.6 C 73.6 246.9 51.7 233.9 34.8 216.2 C 19.7 200.0 8.5 180.0 3.5 158.5 C 1.8 152.9 1.7 147.0 0.0 141.5 L 0.0 140.3 C 1.8 135.1 0.7 129.5 1.0 124.0 C 1.3 121.2 0.8 118.4 0.0 115.8 L 0.0 114.6 C 1.2 110.9 1.6 107.1 2.2 103.2 C 5.9 84.5 13.8 66.6 25.3 51.3 C 44.2 25.9 72.9 7.8 104.1 2.1 C 107.6 1.5 111.2 1.1 114.6 0.0 M 107.4 66.3 C 106.1 66.8 104.4 66.8 103.6 68.1 C 105.4 74.0 110.2 78.1 114.7 82.0 C 120.6 71.0 134.0 68.1 145.4 67.8 C 140.0 65.8 134.2 65.4 128.6 64.4 C 121.5 63.2 114.3 64.5 107.4 66.3 M 74.6 91.7 C 81.5 89.7 88.6 88.6 95.7 88.9 C 96.4 81.4 99.0 74.2 102.9 67.8 C 91.2 72.4 81.6 81.4 74.6 91.7 M 130.7 85.9 C 137.5 88.5 145.1 90.4 150.1 95.9 C 142.4 94.6 134.4 94.4 126.9 97.0 C 113.9 101.4 104.2 112.4 98.7 124.7 C 97.6 127.0 96.8 129.5 95.2 131.5 C 94.4 121.4 95.0 111.2 97.3 101.4 C 98.1 99.1 95.3 98.0 93.6 97.3 C 86.9 95.3 79.7 94.7 72.7 94.7 C 68.8 100.1 66.5 106.6 65.3 113.2 C 64.1 124.2 65.0 135.4 67.9 146.1 C 71.6 159.0 78.4 171.5 89.4 179.6 C 103.4 189.9 121.8 194.3 138.9 190.8 C 154.0 188.1 168.0 179.6 177.5 167.5 C 187.4 155.0 192.4 138.9 191.2 123.0 C 190.7 108.6 184.8 94.5 175.2 83.8 C 168.1 76.6 158.8 71.7 149.1 69.0 C 142.0 73.4 136.4 79.9 130.7 85.9 Z" />
<path fill="#be86cf" stroke="#be86cf" stroke-width="0.09375" opacity="0.96" d=" M 115.7 0.0 L 140.3 0.0 C 137.6 0.8 134.8 1.3 132.0 1.0 C 126.5 0.7 120.9 1.8 115.7 0.0 Z" />
<path fill="#ecf0f1" stroke="#ecf0f1" stroke-width="0.09375" opacity="1.00" d=" M 107.4 66.3 C 114.3 64.5 121.5 63.2 128.6 64.4 C 134.2 65.4 140.0 65.8 145.4 67.8 C 134.0 68.1 120.6 71.0 114.7 82.0 C 110.2 78.1 105.4 74.0 103.6 68.1 C 104.4 66.8 106.1 66.8 107.4 66.3 Z" />
<path fill="#ecf0f1" stroke="#ecf0f1" stroke-width="0.09375" opacity="1.00" d=" M 74.6 91.7 C 81.6 81.4 91.2 72.4 102.9 67.8 C 99.0 74.2 96.4 81.4 95.7 88.9 C 88.6 88.6 81.5 89.7 74.6 91.7 Z" />
<path fill="#ecf0f1" stroke="#ecf0f1" stroke-width="0.09375" opacity="1.00" d=" M 130.7 85.9 C 136.4 79.9 142.0 73.4 149.1 69.0 C 158.8 71.7 168.1 76.6 175.2 83.8 C 184.8 94.5 190.7 108.6 191.2 123.0 C 192.4 138.9 187.4 155.0 177.5 167.5 C 168.0 179.6 154.0 188.1 138.9 190.8 C 121.8 194.3 103.4 189.9 89.4 179.6 C 78.4 171.5 71.6 159.0 67.9 146.1 C 65.0 135.4 64.1 124.2 65.3 113.2 C 66.5 106.6 68.8 100.1 72.7 94.7 C 79.7 94.7 86.9 95.3 93.6 97.3 C 95.3 98.0 98.1 99.1 97.3 101.4 C 95.0 111.2 94.4 121.4 95.2 131.5 C 96.8 129.5 97.6 127.0 98.7 124.7 C 104.2 112.4 113.9 101.4 126.9 97.0 C 134.4 94.4 142.4 94.6 150.1 95.9 C 145.1 90.4 137.5 88.5 130.7 85.9 M 171.4 131.5 C 163.8 134.2 159.6 142.2 157.4 149.5 C 155.8 153.6 159.5 158.8 164.0 158.1 C 171.1 157.3 176.3 150.6 177.9 143.9 C 178.1 140.5 178.7 136.5 176.3 133.7 C 175.1 132.3 173.3 131.0 171.4 131.5 Z" />
<path fill="#bf85d3" stroke="#bf85d3" stroke-width="0.09375" opacity="0.97" d=" M 256.0 126.5 C 254.9 122.6 254.3 118.5 256.0 114.7 L 256.0 126.5 Z" />
<path fill="#be86d0" stroke="#be86d0" stroke-width="0.09375" opacity="0.96" d=" M 0.0 115.8 C 0.8 118.4 1.3 121.2 1.0 124.0 C 0.7 129.5 1.8 135.1 0.0 140.3 L 0.0 115.8 Z" />
<path fill="#bc84cf" stroke="#bc84cf" stroke-width="0.09375" opacity="0.96" d=" M 256.0 142.0 C 254.2 138.0 254.8 133.6 256.0 129.5 L 256.0 142.0 Z" />
<path fill="#9b59b6" stroke="#9b59b6" stroke-width="0.09375" opacity="1.00" d=" M 171.4 131.5 C 173.3 131.0 175.1 132.3 176.3 133.7 C 178.7 136.5 178.1 140.5 177.9 143.9 C 176.3 150.6 171.1 157.3 164.0 158.1 C 159.5 158.8 155.8 153.6 157.4 149.5 C 159.6 142.2 163.8 134.2 171.4 131.5 Z" />
<path fill="#bf85d3" stroke="#bf85d3" stroke-width="0.09375" opacity="0.97" d=" M 114.7 256.0 C 118.5 254.2 122.6 254.9 126.5 256.0 L 114.7 256.0 Z" />
<path fill="#bc84cf" stroke="#bc84cf" stroke-width="0.09375" opacity="0.96" d=" M 129.5 256.0 C 133.6 254.8 138.0 254.2 142.1 256.0 L 129.5 256.0 Z" />
</svg>
