<?xml version="1.0" encoding="UTF-8" ?>
<!DOCTYPE svg PUBLIC "-//W3C//DTD SVG 1.1//EN" "http://www.w3.org/Graphics/SVG/1.1/DTD/svg11.dtd">
<svg width="128pt" height="128pt" viewBox="0 0 128 128" version="1.1" xmlns="http://www.w3.org/2000/svg">
<path fill="#34495e" stroke="#34495e" stroke-width="0.09375" opacity="1.00" d=" M 57.6 0.0 L 70.4 0.0 C 85.2 1.9 99.4 8.4 109.8 19.2 C 120.1 29.4 126.2 43.3 128.0 57.6 L 128.0 71.4 C 125.5 88.9 116.3 105.5 101.8 115.8 C 93.0 122.5 82.2 126.2 71.4 128.0 L 57.6 128.0 C 39.7 125.9 22.7 116.5 12.2 101.8 C 5.3 92.7 1.6 81.6 0.0 70.4 L 0.0 57.6 C 1.6 45.9 5.7 34.4 13.1 25.1 C 23.6 11.0 40.2 2.1 57.6 0.0 M 55.9 30.5 C 63.4 32.5 70.3 36.7 75.1 42.9 C 77.9 46.6 81.0 50.1 85.2 52.2 C 83.1 43.7 78.0 36.0 71.6 30.2 C 66.6 28.5 60.9 28.5 55.9 30.5 M 46.1 34.1 C 38.5 38.7 32.4 46.3 30.5 55.1 C 49.2 53.2 69.0 52.6 86.4 60.9 C 86.3 59.4 86.5 57.8 85.9 56.4 C 83.7 54.8 81.2 53.7 79.1 51.8 C 74.9 48.4 72.2 43.4 67.8 40.2 C 62.9 36.7 57.4 34.1 51.6 32.6 C 49.6 31.9 47.7 33.2 46.1 34.1 M 78.1 32.0 C 82.9 38.2 87.0 45.1 88.5 52.9 C 91.1 51.9 93.2 50.1 94.9 47.9 C 91.4 40.8 85.2 35.4 78.1 32.0 M 89.2 56.3 C 89.4 58.5 89.6 60.7 89.7 62.9 C 92.8 64.9 95.8 67.0 98.9 68.9 C 99.5 62.9 98.3 57.0 96.8 51.2 C 94.5 53.2 92.0 55.0 89.2 56.3 M 30.1 58.3 C 27.3 65.7 30.4 73.9 33.3 80.9 C 44.2 80.7 55.0 77.5 64.9 72.9 C 71.2 70.1 78.2 69.5 85.0 70.3 C 85.4 68.3 85.8 66.3 86.1 64.3 C 68.9 55.5 48.8 56.2 30.1 58.3 M 89.3 66.2 C 89.1 68.8 87.1 71.7 89.0 74.1 C 91.2 77.0 92.0 80.7 92.3 84.3 C 94.7 80.7 97.3 76.8 97.5 72.4 C 95.1 69.9 92.1 68.2 89.3 66.2 M 61.0 78.0 C 53.0 81.4 44.4 83.2 35.7 84.2 C 40.3 91.3 48.0 95.8 56.0 98.1 C 64.1 93.9 71.7 88.7 77.8 81.8 C 80.0 79.3 82.2 76.5 83.1 73.3 C 75.4 72.1 67.8 74.6 61.0 78.0 M 77.1 88.1 C 72.4 92.4 66.8 95.4 61.6 99.0 C 71.5 99.4 81.7 95.8 88.7 88.6 C 89.7 84.3 89.0 79.7 86.8 75.8 C 84.0 80.2 81.1 84.7 77.1 88.1 Z" />
<path fill="#ecf0f0" stroke="#ecf0f0" stroke-width="0.09375" opacity="1.00" d=" M 55.9 30.5 C 60.9 28.5 66.6 28.5 71.6 30.2 C 78.0 36.0 83.1 43.7 85.2 52.2 C 81.0 50.1 77.9 46.6 75.1 42.9 C 70.3 36.7 63.4 32.5 55.9 30.5 Z" />
<path fill="#ecf0f1" stroke="#ecf0f1" stroke-width="0.09375" opacity="1.00" d=" M 46.1 34.1 C 47.7 33.2 49.6 31.9 51.6 32.6 C 57.4 34.1 62.9 36.7 67.8 40.2 C 72.2 43.4 74.9 48.4 79.1 51.8 C 81.2 53.7 83.7 54.8 85.9 56.4 C 86.5 57.8 86.3 59.4 86.4 60.9 C 69.0 52.6 49.2 53.2 30.5 55.1 C 32.4 46.3 38.5 38.7 46.1 34.1 Z" />
<path fill="#ecf0f1" stroke="#ecf0f1" stroke-width="0.09375" opacity="1.00" d=" M 78.1 32.0 C 85.2 35.4 91.4 40.8 94.9 47.9 C 93.2 50.1 91.1 51.9 88.5 52.9 C 87.0 45.1 82.9 38.2 78.1 32.0 Z" />
<path fill="#eceff1" stroke="#eceff1" stroke-width="0.09375" opacity="1.00" d=" M 89.2 56.3 C 92.0 55.0 94.5 53.2 96.8 51.2 C 98.3 57.0 99.5 62.9 98.9 68.9 C 95.8 67.0 92.8 64.9 89.7 62.9 C 89.6 60.7 89.4 58.5 89.2 56.3 Z" />
<path fill="#ecf0f0" stroke="#ecf0f0" stroke-width="0.09375" opacity="1.00" d=" M 30.1 58.3 C 48.8 56.2 68.9 55.5 86.1 64.3 C 85.8 66.3 85.4 68.3 85.0 70.3 C 78.2 69.5 71.2 70.1 64.9 72.9 C 55.0 77.5 44.2 80.7 33.3 80.9 C 30.4 73.9 27.3 65.7 30.1 58.3 Z" />
<path fill="#ecf0f0" stroke="#ecf0f0" stroke-width="0.09375" opacity="1.00" d=" M 89.3 66.2 C 92.1 68.2 95.1 69.9 97.5 72.4 C 97.3 76.8 94.7 80.7 92.3 84.3 C 92.0 80.7 91.2 77.0 89.0 74.1 C 87.1 71.7 89.1 68.8 89.3 66.2 Z" />
<path fill="#ecf0f1" stroke="#ecf0f1" stroke-width="0.09375" opacity="1.00" d=" M 61.0 78.0 C 67.8 74.6 75.4 72.1 83.1 73.3 C 82.2 76.5 80.0 79.3 77.8 81.8 C 71.7 88.7 64.1 93.9 56.0 98.1 C 48.0 95.8 40.3 91.3 35.7 84.2 C 44.4 83.2 53.0 81.4 61.0 78.0 Z" />
<path fill="#ecf0f1" stroke="#ecf0f1" stroke-width="0.09375" opacity="1.00" d=" M 77.1 88.1 C 81.1 84.7 84.0 80.2 86.8 75.8 C 89.0 79.7 89.7 84.3 88.7 88.6 C 81.7 95.8 71.5 99.4 61.6 99.0 C 66.8 95.4 72.4 92.4 77.1 88.1 Z" />
</svg>
