<?xml version="1.0" encoding="UTF-8" ?>
<!DOCTYPE svg PUBLIC "-//W3C//DTD SVG 1.1//EN" "http://www.w3.org/Graphics/SVG/1.1/DTD/svg11.dtd">
<svg width="256pt" height="256pt" viewBox="0 0 256 256" version="1.1" xmlns="http://www.w3.org/2000/svg">
<path fill="#c49e5d" stroke="#c49e5d" stroke-width="0.09375" opacity="0.88" d=" M 114.8 0.0 L 125.4 0.0 C 121.6 0.0 117.7 0.1 113.8 0.1 L 114.8 0.0 Z" />
<path fill="#e57e22" stroke="#e57e22" stroke-width="0.09375" opacity="1.00" d=" M 125.4 0.0 L 130.6 0.0 C 134.4 0.0 138.3 0.1 142.2 0.1 C 156.1 2.7 170.1 5.9 182.9 12.1 C 193.5 16.8 202.7 24.0 212.1 30.6 C 211.8 33.1 213.9 34.7 216.1 35.2 C 218.0 37.0 219.9 38.8 221.8 40.6 C 222.1 42.5 223.5 43.9 225.3 44.3 C 241.8 63.6 252.1 87.7 255.9 112.8 C 255.9 116.3 255.9 119.9 256.0 123.5 L 256.0 132.5 C 255.9 136.1 255.9 139.7 255.9 143.2 C 252.6 167.5 242.3 190.5 227.3 209.8 C 225.1 210.5 223.5 212.1 222.8 214.3 C 220.3 216.9 217.8 219.4 215.2 221.9 C 213.0 222.3 210.8 223.8 211.1 226.4 C 199.6 234.4 188.0 242.9 174.7 247.6 C 164.4 251.2 153.9 254.1 143.2 255.9 C 139.6 255.9 136.1 255.9 132.5 256.0 L 123.5 256.0 C 119.9 255.9 116.3 255.9 112.8 255.9 C 87.7 252.2 63.7 241.7 44.2 225.3 C 43.9 223.5 42.5 222.1 40.7 221.8 C 38.8 219.9 37.0 218.0 35.2 216.1 C 34.7 213.9 33.2 211.8 30.6 212.1 C 22.9 201.6 15.2 190.9 10.2 178.7 C 5.3 167.1 2.2 154.7 0.1 142.2 C 0.1 138.3 0.0 134.4 0.0 130.6 L 0.0 125.4 C 0.0 121.6 0.1 117.7 0.1 113.8 C 3.8 87.8 14.5 62.8 32.1 43.1 C 33.7 41.4 35.4 39.7 37.0 37.9 C 37.6 37.4 38.1 36.8 38.7 36.2 C 40.9 35.5 42.5 33.8 43.2 31.7 C 56.7 20.9 71.5 11.4 88.1 6.2 C 96.6 3.9 105.1 1.5 113.8 0.1 C 117.7 0.1 121.6 0.0 125.4 0.0 M 106.0 64.0 C 106.0 68.3 106.0 72.7 106.0 77.0 C 113.4 77.0 120.7 77.0 128.1 77.0 C 127.9 72.5 127.6 68.0 127.4 63.5 L 127.3 64.2 C 120.5 64.0 113.8 64.0 107.0 64.0 L 106.0 64.0 M 161.1 64.0 C 151.5 82.8 140.9 101.1 131.4 120.0 L 130.5 120.0 C 133.8 120.4 137.0 120.4 140.2 120.5 L 139.5 120.5 C 140.4 118.6 141.3 116.7 142.1 114.8 C 145.4 116.5 148.7 118.3 152.0 120.0 C 153.1 117.8 154.1 115.6 155.1 113.4 C 152.1 111.8 149.0 110.2 146.0 108.7 C 147.0 106.5 147.9 104.3 148.9 102.1 C 152.1 103.8 155.3 105.5 158.5 107.1 C 159.6 105.1 160.7 103.1 161.9 101.1 C 158.9 99.3 155.9 97.5 152.9 95.7 C 153.7 93.7 154.5 91.7 155.4 89.7 C 158.6 91.2 161.8 92.8 165.0 94.4 C 166.3 92.3 167.6 90.3 168.9 88.2 C 165.8 86.7 162.8 85.1 159.8 83.6 C 160.6 81.3 161.4 79.0 162.3 76.7 C 165.5 78.5 168.7 80.3 171.9 82.0 C 173.6 78.8 175.4 75.7 177.1 72.5 C 171.7 69.7 166.4 66.8 161.1 64.0 M 107.0 78.0 C 107.0 78.7 107.0 80.3 107.0 81.0 C 113.7 81.0 120.3 81.0 127.0 81.0 C 127.0 80.3 127.0 78.7 127.0 78.0 C 120.3 78.0 113.7 78.0 107.0 78.0 M 79.0 78.9 C 79.0 85.7 79.1 92.5 79.2 99.3 C 84.8 95.9 90.9 93.1 96.0 88.7 C 90.5 85.1 84.7 82.1 79.0 78.9 M 107.0 82.0 C 107.0 82.7 107.0 84.3 107.0 85.0 C 113.7 85.0 120.3 85.0 127.0 85.0 C 127.0 84.3 127.0 82.7 127.0 82.0 C 120.3 82.0 113.7 82.0 107.0 82.0 M 106.1 86.1 C 106.0 86.7 105.9 87.8 105.9 88.4 L 106.5 88.4 C 113.5 88.9 120.5 88.6 127.5 88.3 L 128.1 88.3 C 128.0 87.7 128.0 86.6 128.0 86.1 C 120.7 86.0 113.4 86.0 106.1 86.1 M 106.5 90.1 C 107.4 94.9 107.4 100.0 109.8 104.5 C 109.8 105.1 109.8 105.7 109.8 106.3 C 110.4 100.9 110.9 95.5 111.3 90.0 L 110.0 90.0 C 109.1 90.0 107.4 90.0 106.5 90.1 M 114.6 119.4 C 109.7 110.5 104.3 101.8 99.0 93.0 C 98.0 93.4 97.1 93.8 96.1 94.2 C 101.6 103.0 107.3 111.7 112.4 120.7 C 113.1 120.8 114.4 120.9 115.0 121.0 C 116.1 121.1 117.1 121.3 118.1 121.5 L 117.9 120.9 C 119.8 110.8 118.8 100.3 119.1 90.1 C 118.2 90.0 116.3 89.8 115.4 89.8 C 114.9 99.6 114.5 109.5 114.6 119.4 M 123.9 90.1 C 123.9 100.3 124.0 110.6 125.2 120.8 L 125.0 121.4 C 126.0 121.2 127.0 121.0 128.0 120.9 C 128.0 110.5 127.9 100.1 127.5 89.7 C 126.6 89.8 124.8 90.0 123.9 90.1 M 88.7 98.4 C 92.9 106.1 97.7 113.4 102.1 120.9 C 102.9 120.9 104.6 120.8 105.4 120.8 C 101.0 112.8 96.0 105.2 91.6 97.3 C 90.7 97.6 89.7 98.0 88.7 98.4 M 81.6 102.2 C 85.3 109.4 89.5 116.6 95.8 121.8 C 92.7 114.9 88.6 108.6 84.9 102.0 C 84.1 102.1 82.4 102.2 81.6 102.2 M 87.0 123.0 C 87.0 126.0 87.0 129.0 87.0 132.0 C 110.3 132.0 133.7 132.0 157.0 132.0 C 157.0 129.0 157.0 126.0 157.0 123.0 C 133.7 123.0 110.3 123.0 87.0 123.0 M 95.0 136.9 L 94.9 138.1 C 96.8 156.1 99.6 174.0 101.2 192.0 C 114.9 192.0 128.6 192.0 142.3 192.0 C 144.9 173.7 147.5 155.4 149.2 137.0 C 136.6 137.0 123.9 136.8 111.3 137.3 C 105.9 137.2 100.4 137.0 95.0 136.9 Z" />
<path fill="#c49f5d" stroke="#c49f5d" stroke-width="0.09375" opacity="0.88" d=" M 130.6 0.0 L 141.2 0.0 L 142.2 0.1 C 138.3 0.1 134.4 0.0 130.6 0.0 Z" />
<path fill="#805f34" stroke="#805f34" stroke-width="0.09375" opacity="0.58" d=" M 212.1 30.6 C 214.0 31.6 215.3 33.3 216.1 35.2 C 213.9 34.7 211.8 33.1 212.1 30.6 Z" />
<path fill="#584529" stroke="#584529" stroke-width="0.09375" opacity="0.42" d=" M 38.7 36.2 C 39.3 34.0 40.9 32.2 43.2 31.7 C 42.5 33.8 40.9 35.5 38.7 36.2 Z" />
<path fill="#715630" stroke="#715630" stroke-width="0.09375" opacity="0.52" d=" M 32.1 43.1 C 33.6 41.3 35.3 39.6 37.0 37.9 C 35.4 39.7 33.7 41.4 32.1 43.1 Z" />
<path fill="#6a5230" stroke="#6a5230" stroke-width="0.09375" opacity="0.49" d=" M 221.8 40.6 C 223.6 41.1 224.9 42.4 225.3 44.3 C 223.5 43.9 222.1 42.5 221.8 40.6 Z" />
<path fill="#ae7848" stroke="#ae7848" stroke-width="0.09375" opacity="1.00" d=" M 106.0 64.0 L 107.0 64.0 C 107.0 68.0 107.0 72.0 107.0 76.0 C 113.6 76.0 120.2 76.0 126.8 76.0 C 127.0 72.0 127.2 68.1 127.3 64.2 L 127.4 63.5 C 127.6 68.0 127.9 72.5 128.1 77.0 C 120.7 77.0 113.4 77.0 106.0 77.0 C 106.0 72.7 106.0 68.3 106.0 64.0 Z" />
<path fill="#ebeff0" stroke="#ebeff0" stroke-width="0.09375" opacity="1.00" d=" M 107.0 64.0 C 113.8 64.0 120.5 64.0 127.3 64.2 C 127.2 68.1 127.0 72.0 126.8 76.0 C 120.2 76.0 113.6 76.0 107.0 76.0 C 107.0 72.0 107.0 68.0 107.0 64.0 Z" />
<path fill="#ebeeee" stroke="#ebeeee" stroke-width="0.09375" opacity="1.00" d=" M 161.1 64.0 C 166.4 66.8 171.7 69.7 177.1 72.5 C 175.4 75.7 173.6 78.8 171.9 82.0 C 168.7 80.3 165.5 78.5 162.3 76.7 C 161.4 79.0 160.6 81.3 159.8 83.6 C 162.8 85.1 165.8 86.7 168.9 88.2 C 167.6 90.3 166.3 92.3 165.0 94.4 C 161.8 92.8 158.6 91.2 155.4 89.7 C 154.5 91.7 153.7 93.7 152.9 95.7 C 155.9 97.5 158.9 99.3 161.9 101.1 C 160.7 103.1 159.6 105.1 158.5 107.1 C 155.3 105.5 152.1 103.8 148.9 102.1 C 147.9 104.3 147.0 106.5 146.0 108.7 C 149.0 110.2 152.1 111.8 155.1 113.4 C 154.1 115.6 153.1 117.8 152.0 120.0 C 148.7 118.3 145.4 116.5 142.1 114.8 C 141.3 116.7 140.4 118.6 139.5 120.5 C 136.8 120.3 134.1 120.2 131.4 120.0 C 140.9 101.1 151.5 82.8 161.1 64.0 Z" />
<path fill="#e5e3e1" stroke="#e5e3e1" stroke-width="0.09375" opacity="1.00" d=" M 107.0 78.0 C 113.7 78.0 120.3 78.0 127.0 78.0 C 127.0 78.7 127.0 80.3 127.0 81.0 C 120.3 81.0 113.7 81.0 107.0 81.0 C 107.0 80.3 107.0 78.7 107.0 78.0 Z" />
<path fill="#eaeae9" stroke="#eaeae9" stroke-width="0.09375" opacity="1.00" d=" M 79.0 78.9 C 84.7 82.1 90.5 85.1 96.0 88.7 C 90.9 93.1 84.8 95.9 79.2 99.3 C 79.1 92.5 79.0 85.7 79.0 78.9 M 80.0 80.9 C 80.0 82.8 80.2 86.5 80.3 88.4 C 82.3 87.1 84.3 85.7 86.3 84.4 C 84.7 83.5 81.6 81.8 80.0 80.9 Z" />
<path fill="#da7d2a" stroke="#da7d2a" stroke-width="0.09375" opacity="1.00" d=" M 80.0 80.9 C 81.6 81.8 84.7 83.5 86.3 84.4 C 84.3 85.7 82.3 87.1 80.3 88.4 C 80.2 86.5 80.0 82.8 80.0 80.9 Z" />
<path fill="#e5e3e1" stroke="#e5e3e1" stroke-width="0.09375" opacity="1.00" d=" M 107.0 82.0 C 113.7 82.0 120.3 82.0 127.0 82.0 C 127.0 82.7 127.0 84.3 127.0 85.0 C 120.3 85.0 113.7 85.0 107.0 85.0 C 107.0 84.3 107.0 82.7 107.0 82.0 Z" />
<path fill="#b17c4c" stroke="#b17c4c" stroke-width="0.09375" opacity="1.00" d=" M 106.1 86.1 C 113.4 86.0 120.7 86.0 128.0 86.1 C 128.0 86.6 128.0 87.7 128.1 88.3 L 127.5 88.3 C 120.5 87.9 113.5 88.0 106.5 88.4 L 105.9 88.4 C 105.9 87.8 106.0 86.7 106.1 86.1 Z" />
<path fill="#ebf0f1" stroke="#ebf0f1" stroke-width="0.09375" opacity="1.00" d=" M 106.5 88.4 C 113.5 88.0 120.5 87.9 127.5 88.3 C 120.5 88.6 113.5 88.9 106.5 88.4 Z" />
<path fill="#ebebe9" stroke="#ebebe9" stroke-width="0.09375" opacity="1.00" d=" M 106.5 90.1 C 107.4 90.0 109.1 90.0 110.0 90.0 C 109.9 94.8 109.7 99.6 109.8 104.5 C 107.4 100.0 107.4 94.9 106.5 90.1 Z" />
<path fill="#b17c4c" stroke="#b17c4c" stroke-width="0.09375" opacity="1.00" d=" M 110.0 90.0 L 111.3 90.0 C 110.9 95.5 110.4 100.9 109.8 106.3 C 109.8 105.7 109.8 105.1 109.8 104.5 C 109.7 99.6 109.9 94.8 110.0 90.0 Z" />
<path fill="#ad7a4d" stroke="#ad7a4d" stroke-width="0.09375" opacity="1.00" d=" M 114.6 119.4 C 114.5 109.5 114.9 99.6 115.4 89.8 C 116.3 100.1 114.8 110.9 117.9 120.9 L 118.1 121.5 C 117.1 121.3 116.1 121.1 115.0 121.0 C 114.9 120.6 114.7 119.8 114.6 119.4 Z" />
<path fill="#e8eae9" stroke="#e8eae9" stroke-width="0.09375" opacity="1.00" d=" M 115.4 89.8 C 116.3 89.8 118.2 90.0 119.1 90.1 C 118.8 100.3 119.8 110.8 117.9 120.9 C 114.8 110.9 116.3 100.1 115.4 89.8 Z" />
<path fill="#eceeee" stroke="#eceeee" stroke-width="0.09375" opacity="1.00" d=" M 123.9 90.1 C 124.8 90.0 126.6 89.8 127.5 89.7 C 126.7 100.0 128.1 110.8 125.2 120.8 C 124.0 110.6 123.9 100.3 123.9 90.1 Z" />
<path fill="#af7a4b" stroke="#af7a4b" stroke-width="0.09375" opacity="1.00" d=" M 127.5 89.7 C 127.9 100.1 128.0 110.5 128.0 120.9 C 127.0 121.0 126.0 121.2 125.0 121.4 L 125.2 120.8 C 128.1 110.8 126.7 100.0 127.5 89.7 Z" />
<path fill="#eaeae7" stroke="#eaeae7" stroke-width="0.09375" opacity="1.00" d=" M 96.1 94.2 C 97.1 93.8 98.0 93.4 99.0 93.0 C 104.3 101.8 109.7 110.5 114.6 119.4 C 114.7 119.8 114.9 120.6 115.0 121.0 C 114.4 120.9 113.1 120.8 112.4 120.7 C 107.3 111.7 101.6 103.0 96.1 94.2 Z" />
<path fill="#eaebe9" stroke="#eaebe9" stroke-width="0.09375" opacity="1.00" d=" M 88.7 98.4 C 89.7 98.0 90.7 97.6 91.6 97.3 C 96.0 105.2 101.0 112.8 105.4 120.8 C 104.6 120.8 102.9 120.9 102.1 120.9 C 97.7 113.4 92.9 106.1 88.7 98.4 Z" />
<path fill="#eaeae9" stroke="#eaeae9" stroke-width="0.09375" opacity="1.00" d=" M 81.6 102.2 C 82.4 102.2 84.1 102.1 84.9 102.0 C 88.6 108.6 92.7 114.9 95.8 121.8 C 89.5 116.6 85.3 109.4 81.6 102.2 Z" />
<path fill="#c89f5b" stroke="#c89f5b" stroke-width="0.09375" opacity="0.89" d=" M 255.9 112.8 L 256.0 113.7 L 256.0 123.5 C 255.9 119.9 255.9 116.3 255.9 112.8 Z" />
<path fill="#c49e5d" stroke="#c49e5d" stroke-width="0.09375" opacity="0.88" d=" M 0.0 114.8 L 0.1 113.8 C 0.1 117.7 0.0 121.6 0.0 125.4 L 0.0 114.8 Z" />
<path fill="#b17c4c" stroke="#b17c4c" stroke-width="0.09375" opacity="1.00" d=" M 130.5 120.0 L 131.4 120.0 C 134.1 120.2 136.8 120.3 139.5 120.5 L 140.2 120.5 C 137.0 120.4 133.8 120.4 130.5 120.0 Z" />
<path fill="#ad7747" stroke="#ad7747" stroke-width="0.09375" opacity="1.00" d=" M 87.0 123.0 C 110.3 123.0 133.7 123.0 157.0 123.0 C 157.0 126.0 157.0 129.0 157.0 132.0 C 133.7 132.0 110.3 132.0 87.0 132.0 C 87.0 129.0 87.0 126.0 87.0 123.0 M 88.0 124.0 C 88.0 125.8 88.0 129.2 88.0 131.0 C 110.7 131.0 133.3 131.0 156.0 131.0 C 156.0 129.2 156.0 125.8 156.0 124.0 C 133.3 124.0 110.7 124.0 88.0 124.0 Z" />
<path fill="#ebeff1" stroke="#ebeff1" stroke-width="0.09375" opacity="1.00" d=" M 88.0 124.0 C 110.7 124.0 133.3 124.0 156.0 124.0 C 156.0 125.8 156.0 129.2 156.0 131.0 C 133.3 131.0 110.7 131.0 88.0 131.0 C 88.0 129.2 88.0 125.8 88.0 124.0 Z" />
<path fill="#c59f5c" stroke="#c59f5c" stroke-width="0.09375" opacity="0.89" d=" M 0.0 130.6 C 0.0 134.4 0.1 138.3 0.1 142.2 L 0.0 141.2 L 0.0 130.6 Z" />
<path fill="#caa15c" stroke="#caa15c" stroke-width="0.09375" opacity="0.90" d=" M 255.9 143.2 C 255.9 139.7 255.9 136.1 256.0 132.5 L 256.0 142.2 L 255.9 143.2 Z" />
<path fill="#ddd5cd" stroke="#ddd5cd" stroke-width="0.09375" opacity="1.00" d=" M 95.0 136.9 C 100.4 137.0 105.9 137.2 111.3 137.3 C 105.8 137.6 100.4 137.9 94.9 138.1 L 95.0 136.9 Z" />
<path fill="#ebeff0" stroke="#ebeff0" stroke-width="0.09375" opacity="1.00" d=" M 111.3 137.3 C 123.9 136.8 136.6 137.0 149.2 137.0 C 147.5 155.4 144.9 173.7 142.3 192.0 C 128.6 192.0 114.9 192.0 101.2 192.0 C 99.6 174.0 96.8 156.1 94.9 138.1 C 100.4 137.9 105.8 137.6 111.3 137.3 Z" />
<path fill="#544227" stroke="#544227" stroke-width="0.09375" opacity="0.39" d=" M 222.8 214.3 C 223.5 212.1 225.1 210.5 227.3 209.8 C 226.8 212.1 225.1 213.7 222.8 214.3 Z" />
<path fill="#805f34" stroke="#805f34" stroke-width="0.09375" opacity="0.58" d=" M 30.6 212.1 C 33.2 211.8 34.7 213.9 35.2 216.1 C 33.3 215.3 31.6 214.0 30.6 212.1 Z" />
<path fill="#6a5230" stroke="#6a5230" stroke-width="0.09375" opacity="0.49" d=" M 40.7 221.8 C 42.5 222.1 43.9 223.5 44.2 225.3 C 42.4 224.9 41.1 223.5 40.7 221.8 Z" />
<path fill="#856336" stroke="#856336" stroke-width="0.09375" opacity="0.60" d=" M 211.1 226.4 C 210.8 223.8 213.0 222.3 215.2 221.9 C 214.3 223.7 213.0 225.4 211.1 226.4 Z" />
<path fill="#c99f5b" stroke="#c99f5b" stroke-width="0.09375" opacity="0.89" d=" M 112.8 255.9 C 116.3 255.9 119.9 255.9 123.5 256.0 L 113.8 256.0 L 112.8 255.9 Z" />
<path fill="#caa15c" stroke="#caa15c" stroke-width="0.09375" opacity="0.90" d=" M 132.5 256.0 C 136.1 255.9 139.6 255.9 143.2 255.9 L 142.2 256.0 L 132.5 256.0 Z" />
</svg>
