<?xml version="1.0" encoding="UTF-8" ?>
<!DOCTYPE svg PUBLIC "-//W3C//DTD SVG 1.1//EN" "http://www.w3.org/Graphics/SVG/1.1/DTD/svg11.dtd">
<svg width="600pt" height="600pt" viewBox="0 0 600 600" version="1.1" xmlns="http://www.w3.org/2000/svg">
<path fill="#1bacc3" stroke="#1bacc3" stroke-width="0.09375" opacity="1.00" d=" M 275.9 0.0 L 324.1 0.0 C 327.2 1.2 330.5 0.9 333.8 1.3 C 369.0 5.5 403.8 15.3 435.3 31.7 C 458.3 42.8 479.4 57.6 498.7 74.3 C 505.2 80.8 512.8 86.2 518.6 93.4 C 521.8 97.8 526.2 101.2 529.4 105.6 C 568.3 151.4 593.0 209.2 598.9 269.0 C 599.0 271.3 599.2 273.7 600.0 275.9 L 600.0 324.1 C 599.2 326.3 599.0 328.7 598.9 331.0 C 592.5 395.8 564.1 458.1 519.4 505.4 C 514.9 511.1 509.5 516.2 503.8 520.8 C 494.4 530.2 483.6 538.1 473.0 546.0 C 461.1 554.1 449.0 561.8 436.0 568.0 C 406.4 583.5 373.9 593.1 340.9 597.8 C 335.3 598.8 329.5 598.5 324.1 600.0 L 275.9 600.0 C 272.8 598.8 269.5 599.1 266.2 598.7 C 231.0 594.5 196.2 584.7 164.7 568.3 C 141.7 557.2 120.6 542.4 101.3 525.7 C 95.7 520.0 89.1 515.3 83.8 509.2 C 78.2 502.5 71.9 496.4 66.6 489.5 C 31.0 445.9 8.3 392.1 1.7 336.3 C 0.9 332.2 1.4 328.0 0.0 324.1 L 0.0 275.9 C 0.8 273.7 1.0 271.3 1.1 269.0 C 7.3 206.6 33.9 146.4 75.8 99.8 C 81.9 93.3 87.4 86.0 94.6 80.6 C 116.3 60.1 141.1 42.9 168.0 30.0 C 198.7 14.6 232.2 5.3 266.2 1.3 C 269.5 0.9 272.8 1.2 275.9 0.0 M 220.4 159.4 C 219.3 160.0 218.2 160.8 217.9 162.0 C 216.7 165.9 216.5 170.1 218.0 173.9 C 219.2 176.2 221.8 177.3 224.2 177.6 C 235.4 178.1 246.7 177.2 257.9 178.0 C 262.3 179.0 261.1 184.2 261.8 187.5 C 263.0 192.5 264.1 197.6 265.2 202.7 C 265.9 206.6 270.5 207.9 273.9 207.8 C 282.6 207.8 291.3 207.8 300.1 207.8 C 303.6 207.9 307.2 205.4 307.6 201.8 C 308.9 195.1 310.0 188.3 311.8 181.7 C 312.4 179.4 314.5 177.5 317.0 177.7 C 334.0 177.6 351.0 177.7 368.0 177.7 C 371.9 177.1 372.9 182.1 376.3 182.9 C 379.7 183.7 383.3 183.7 386.6 182.7 C 389.0 181.3 392.2 178.8 390.3 175.8 C 387.8 166.3 378.8 159.4 369.1 159.0 C 322.7 159.0 276.4 159.0 230.0 159.0 C 226.8 159.0 223.5 158.6 220.4 159.4 M 265.6 222.6 C 263.4 226.2 262.3 230.4 261.3 234.4 C 247.7 235.7 234.0 239.8 222.6 247.6 C 215.5 252.5 209.7 259.3 206.0 267.1 C 204.7 271.1 203.6 275.2 202.3 279.3 C 201.1 285.1 201.8 291.1 201.6 297.0 C 201.6 344.0 201.6 391.0 201.6 438.0 C 201.3 443.6 206.3 448.8 212.0 448.4 C 261.7 448.4 311.4 448.4 361.0 448.4 C 367.4 448.6 371.7 441.8 371.4 436.0 C 371.4 394.3 371.4 352.7 371.4 311.0 C 371.3 302.0 371.6 293.0 371.0 284.0 C 369.8 271.8 364.5 259.8 355.3 251.7 C 343.2 241.3 327.3 235.9 311.5 234.6 C 309.6 229.4 308.8 222.2 302.9 219.9 C 294.0 219.4 285.0 219.9 276.0 219.7 C 272.4 219.7 267.9 219.3 265.6 222.6 Z" />
<path fill="#ecf0f1" stroke="#ecf0f1" stroke-width="0.09375" opacity="1.00" d=" M 220.4 159.4 C 223.5 158.6 226.8 159.0 230.0 159.0 C 276.4 159.0 322.7 159.0 369.1 159.0 C 378.8 159.4 387.8 166.3 390.3 175.8 C 392.2 178.8 389.0 181.3 386.6 182.7 C 383.3 183.7 379.7 183.7 376.3 182.9 C 372.9 182.1 371.9 177.1 368.0 177.7 C 351.0 177.7 334.0 177.6 317.0 177.7 C 314.5 177.5 312.4 179.4 311.8 181.7 C 310.0 188.3 308.9 195.1 307.6 201.8 C 307.2 205.4 303.6 207.9 300.1 207.8 C 291.3 207.8 282.6 207.8 273.9 207.8 C 270.5 207.9 265.9 206.6 265.2 202.7 C 264.1 197.6 263.0 192.5 261.8 187.5 C 261.1 184.2 262.3 179.0 257.9 178.0 C 246.7 177.2 235.4 178.1 224.2 177.6 C 221.8 177.3 219.2 176.2 218.0 173.9 C 216.5 170.1 216.7 165.9 217.9 162.0 C 218.2 160.8 219.3 160.0 220.4 159.4 Z" />
<path fill="#ecf0f1" stroke="#ecf0f1" stroke-width="0.09375" opacity="1.00" d=" M 265.6 222.6 C 267.9 219.3 272.4 219.7 276.0 219.7 C 285.0 219.9 294.0 219.4 302.9 219.9 C 308.8 222.2 309.6 229.4 311.5 234.6 C 327.3 235.9 343.2 241.3 355.3 251.7 C 364.5 259.8 369.8 271.8 371.0 284.0 C 371.6 293.0 371.3 302.0 371.4 311.0 C 371.4 352.7 371.4 394.3 371.4 436.0 C 371.7 441.8 367.4 448.6 361.0 448.4 C 311.4 448.4 261.7 448.4 212.0 448.4 C 206.3 448.8 201.3 443.6 201.6 438.0 C 201.6 391.0 201.6 344.0 201.6 297.0 C 201.8 291.1 201.1 285.1 202.3 279.3 C 203.6 275.2 204.7 271.1 206.0 267.1 C 209.7 259.3 215.5 252.5 222.6 247.6 C 234.0 239.8 247.7 235.7 261.3 234.4 C 262.3 230.4 263.4 226.2 265.6 222.6 Z" />
</svg>
