<?xml version="1.0" encoding="UTF-8" ?>
<!DOCTYPE svg PUBLIC "-//W3C//DTD SVG 1.1//EN" "http://www.w3.org/Graphics/SVG/1.1/DTD/svg11.dtd">
<svg width="128pt" height="128pt" viewBox="0 0 128 128" version="1.1" xmlns="http://www.w3.org/2000/svg">
<path fill="#3498da" stroke="#3498da" stroke-width="0.09375" opacity="1.00" d=" M 0.0 0.0 L 128.0 0.0 L 128.0 128.0 L 0.0 128.0 L 0.0 0.0 Z" />
<path fill="#ebeff0" stroke="#ebeff0" stroke-width="0.09375" opacity="1.00" d=" M 28.0 33.0 C 30.5 33.0 35.5 33.0 38.0 33.0 C 38.0 39.0 38.0 45.1 38.0 51.1 C 58.5 49.8 79.1 49.8 99.6 50.1 C 94.1 63.4 92.0 77.7 88.3 91.5 C 88.0 89.7 87.4 86.1 87.1 84.2 C 85.5 86.0 84.1 87.8 82.9 89.9 C 80.1 90.1 77.2 90.7 74.5 91.3 C 75.5 89.8 76.7 88.2 77.8 86.7 C 75.1 86.3 72.4 86.1 69.7 86.3 C 70.9 87.7 72.0 89.2 73.2 90.6 C 69.7 90.2 66.2 89.9 62.7 90.2 C 63.4 89.2 64.1 88.1 64.8 87.1 C 62.9 86.3 61.0 85.5 59.2 84.7 C 59.5 86.8 59.8 88.9 60.1 91.0 C 59.4 91.0 57.9 90.9 57.2 90.9 C 55.4 79.6 52.9 68.4 50.7 57.1 C 46.5 56.2 42.3 55.4 38.0 54.6 C 38.0 68.1 38.0 81.5 38.0 95.0 C 35.5 95.0 30.5 95.0 28.0 95.0 C 28.0 74.3 28.0 53.7 28.0 33.0 Z" />
<path fill="#3598db" stroke="#3598db" stroke-width="0.09375" opacity="1.00" d=" M 60.3 58.2 C 63.8 58.0 67.3 57.8 70.7 58.0 C 67.6 60.8 63.7 60.4 60.3 58.2 Z" />
<path fill="#3598db" stroke="#3598db" stroke-width="0.09375" opacity="1.00" d=" M 74.8 58.1 C 77.5 57.7 80.2 57.3 82.9 56.9 C 83.2 57.4 83.7 58.4 84.0 58.9 C 82.7 59.6 81.3 60.4 80.0 61.1 C 78.2 60.1 76.5 59.1 74.8 58.1 Z" />
<path fill="#3598db" stroke="#3598db" stroke-width="0.09375" opacity="1.00" d=" M 88.8 58.4 C 90.2 57.9 91.6 57.3 92.9 56.8 C 92.9 57.7 92.9 59.4 92.9 60.3 C 91.5 59.6 90.2 59.0 88.8 58.4 Z" />
<path fill="#3598db" stroke="#3598db" stroke-width="0.09375" opacity="1.00" d=" M 53.0 62.8 C 56.4 60.0 60.6 60.3 63.9 63.0 C 60.4 64.6 56.5 64.5 53.0 62.8 Z" />
<path fill="#3598db" stroke="#3598db" stroke-width="0.09375" opacity="1.00" d=" M 67.2 62.3 C 70.8 60.6 74.7 60.4 78.0 62.7 C 74.5 64.7 70.6 64.5 67.2 62.3 Z" />
<path fill="#3598db" stroke="#3598db" stroke-width="0.09375" opacity="1.00" d=" M 81.7 63.1 C 83.5 62.0 85.3 60.8 87.1 59.7 C 88.5 60.8 90.0 61.9 91.4 63.0 C 88.2 63.9 84.9 63.9 81.7 63.1 Z" />
<path fill="#3598db" stroke="#3598db" stroke-width="0.09375" opacity="1.00" d=" M 60.5 67.5 C 62.3 66.2 64.2 64.9 66.0 63.6 C 67.5 65.0 69.0 66.4 70.4 67.8 C 67.1 68.4 63.8 68.2 60.5 67.5 Z" />
<path fill="#3598db" stroke="#3598db" stroke-width="0.09375" opacity="1.00" d=" M 74.1 66.9 C 77.5 64.7 81.4 64.3 84.8 66.7 C 81.4 68.4 77.6 68.5 74.1 66.9 Z" />
<path fill="#3598db" stroke="#3598db" stroke-width="0.09375" opacity="1.00" d=" M 90.2 65.1 C 91.8 64.5 92.4 67.1 90.8 67.6 C 89.2 68.2 88.6 65.5 90.2 65.1 Z" />
<path fill="#3598db" stroke="#3598db" stroke-width="0.09375" opacity="1.00" d=" M 56.3 68.0 C 58.8 69.0 61.3 70.2 63.6 71.5 C 61.1 72.3 58.7 73.1 56.1 73.7 C 56.2 71.8 56.2 69.9 56.3 68.0 Z" />
<path fill="#3598db" stroke="#3598db" stroke-width="0.09375" opacity="1.00" d=" M 67.8 71.3 C 70.8 68.6 74.6 68.7 77.9 70.9 C 74.7 72.3 71.1 72.5 67.8 71.3 Z" />
<path fill="#3598db" stroke="#3598db" stroke-width="0.09375" opacity="1.00" d=" M 81.5 71.4 C 83.0 70.2 84.5 69.0 85.9 67.8 C 87.8 68.9 89.6 70.0 91.5 71.1 C 88.4 73.1 84.8 73.1 81.5 71.4 Z" />
<path fill="#3598db" stroke="#3598db" stroke-width="0.09375" opacity="1.00" d=" M 75.1 74.1 C 78.2 72.9 81.5 73.2 84.5 74.4 C 83.0 75.8 81.4 77.1 79.9 78.5 C 78.2 77.0 76.7 75.6 75.1 74.1 Z" />
<path fill="#3598db" stroke="#3598db" stroke-width="0.09375" opacity="1.00" d=" M 60.1 75.2 C 63.6 73.4 67.4 73.4 70.9 75.2 C 67.5 77.4 63.5 77.4 60.1 75.2 Z" />
<path fill="#3498db" stroke="#3498db" stroke-width="0.09375" opacity="1.00" d=" M 57.3 76.5 C 59.3 77.5 61.3 78.4 63.3 79.5 C 61.6 80.1 60.0 80.7 58.3 81.2 C 57.9 79.7 57.6 78.1 57.3 76.5 Z" />
<path fill="#3598db" stroke="#3598db" stroke-width="0.09375" opacity="1.00" d=" M 67.1 79.1 C 70.9 77.2 75.0 77.6 78.7 79.4 C 75.0 81.6 70.7 81.6 67.1 79.1 Z" />
<path fill="#3498db" stroke="#3498db" stroke-width="0.09375" opacity="1.00" d=" M 82.1 79.1 C 84.2 78.3 86.3 77.5 88.4 76.8 C 88.4 78.6 88.4 80.4 88.4 82.2 C 86.3 81.4 84.2 80.7 82.1 79.9 L 82.1 79.1 Z" />
<path fill="#3598db" stroke="#3598db" stroke-width="0.09375" opacity="1.00" d=" M 62.5 81.8 C 65.5 81.8 68.5 82.3 71.4 83.1 C 69.9 84.2 68.4 85.3 66.9 86.4 C 65.4 84.9 63.9 83.3 62.5 81.8 Z" />
<path fill="#3598db" stroke="#3598db" stroke-width="0.09375" opacity="1.00" d=" M 75.6 84.7 C 77.1 83.3 78.5 82.0 80.0 80.6 C 81.5 81.8 83.0 83.0 84.5 84.2 C 81.6 84.9 78.6 85.0 75.6 84.7 Z" />
</svg>
