<?xml version="1.0" encoding="UTF-8" ?>
<!DOCTYPE svg PUBLIC "-//W3C//DTD SVG 1.1//EN" "http://www.w3.org/Graphics/SVG/1.1/DTD/svg11.dtd">
<svg width="128pt" height="128pt" viewBox="0 0 128 128" version="1.1" xmlns="http://www.w3.org/2000/svg">
<path fill="#1abc9c" stroke="#1abc9c" stroke-width="0.09375" opacity="1.00" d=" M 0.0 0.0 L 128.0 0.0 L 128.0 128.0 L 0.0 128.0 L 0.0 0.0 Z" />
<path fill="#ecf0f1" stroke="#ecf0f1" stroke-width="0.09375" opacity="1.00" d=" M 47.2 33.2 C 48.8 31.7 50.2 29.9 52.2 29.1 C 55.1 28.7 57.3 31.3 60.0 31.9 C 62.0 31.5 63.9 30.5 65.9 30.2 C 67.5 30.6 68.8 31.6 70.2 32.4 C 74.3 31.8 78.5 32.7 82.5 33.6 C 85.3 34.5 88.2 37.6 86.9 40.7 C 85.4 43.5 82.1 45.0 79.0 44.8 C 66.7 44.8 54.3 44.8 42.0 44.8 C 35.4 45.7 31.2 35.4 36.6 31.5 C 40.1 29.1 44.1 31.2 47.2 33.2 Z" />
<path fill="#ecf0f1" stroke="#ecf0f1" stroke-width="0.09375" opacity="1.00" d=" M 39.4 48.4 C 42.3 48.4 45.1 48.4 48.0 48.4 C 48.5 63.8 47.7 79.2 48.5 94.6 C 50.0 92.3 49.5 89.6 49.6 87.0 C 49.5 74.2 49.5 61.3 49.6 48.5 C 51.8 48.5 54.0 48.5 56.3 48.5 C 56.3 61.6 56.3 74.8 56.3 87.9 C 56.6 87.9 57.3 87.8 57.6 87.8 C 57.5 74.6 57.4 61.5 57.7 48.4 C 65.7 48.4 73.8 48.5 81.8 48.3 C 81.9 50.3 82.0 52.2 82.1 54.1 C 85.2 54.2 88.5 53.9 91.6 54.5 C 93.3 54.7 93.8 56.6 93.9 58.0 C 94.1 63.0 93.9 68.0 94.0 73.0 C 93.9 75.8 94.3 78.7 93.2 81.3 C 90.0 83.5 85.8 82.2 82.1 82.4 C 81.9 86.5 82.3 90.6 81.6 94.7 C 80.9 97.6 77.9 99.2 75.1 99.0 C 65.4 99.0 55.6 99.0 45.9 99.0 C 42.5 99.3 39.4 96.4 39.5 92.9 C 39.3 78.1 39.5 63.2 39.4 48.4 Z" />
<path fill="#1abc9c" stroke="#1abc9c" stroke-width="0.09375" opacity="1.00" d=" M 82.1 60.2 C 84.3 60.2 86.5 60.3 88.7 60.4 C 89.4 66.1 89.4 71.8 88.6 77.5 C 86.5 77.6 84.3 77.7 82.1 77.8 C 81.9 71.9 81.9 66.0 82.1 60.2 Z" />
</svg>
