<?xml version="1.0" encoding="UTF-8" ?>
<!DOCTYPE svg PUBLIC "-//W3C//DTD SVG 1.1//EN" "http://www.w3.org/Graphics/SVG/1.1/DTD/svg11.dtd">
<svg width="128pt" height="128pt" viewBox="0 0 128 128" version="1.1" xmlns="http://www.w3.org/2000/svg">
<path fill="#3598db" stroke="#3598db" stroke-width="0.09375" opacity="1.00" d=" M 0.0 0.0 L 128.0 0.0 L 128.0 128.0 L 0.0 128.0 L 0.0 0.0 Z" />
<path fill="#cad1d5" stroke="#cad1d5" stroke-width="0.09375" opacity="1.00" d=" M 72.2 32.7 C 74.0 31.9 74.6 32.3 74.0 33.8 C 72.2 34.6 71.6 34.3 72.2 32.7 Z" />
<path fill="#ecf0f1" stroke="#ecf0f1" stroke-width="0.09375" opacity="1.00" d=" M 75.1 33.5 C 76.5 33.2 77.8 32.6 79.0 32.0 C 79.0 34.0 78.9 35.9 78.9 37.9 C 81.2 37.8 83.6 37.6 85.9 37.4 C 85.9 36.5 85.9 35.7 85.9 34.8 C 85.2 34.4 84.0 33.7 83.3 33.3 C 85.9 33.2 87.5 35.3 88.0 37.7 C 89.7 37.4 91.4 36.9 93.0 36.4 C 93.8 37.7 94.5 38.9 95.2 40.2 C 94.4 41.3 93.5 42.4 92.5 43.5 C 92.4 44.0 92.3 45.1 92.2 45.6 C 91.7 45.7 90.6 46.0 90.1 46.2 C 89.2 45.7 88.3 45.3 87.2 45.2 C 85.5 47.6 88.7 49.1 88.9 51.4 C 87.2 52.8 85.6 54.5 83.2 54.4 C 83.9 53.0 85.1 52.0 86.6 51.5 C 86.7 50.8 86.9 49.3 86.9 48.5 C 85.4 50.3 83.2 51.9 82.5 54.3 C 83.5 56.4 86.4 55.5 88.3 56.0 C 87.8 57.2 86.0 58.4 87.1 59.8 C 85.5 60.2 84.1 61.3 83.0 62.6 C 81.1 63.6 82.0 65.5 82.2 67.1 C 79.8 66.6 78.7 64.7 78.2 62.5 C 77.3 62.4 76.3 62.3 75.3 62.2 C 75.7 63.6 76.0 64.9 76.4 66.3 C 75.6 66.0 74.9 65.6 74.2 65.3 L 72.4 63.5 C 73.5 62.1 74.6 60.8 75.6 59.4 C 76.1 59.8 76.9 60.7 77.3 61.1 L 78.0 61.8 C 78.4 60.7 78.8 59.5 79.2 58.4 C 80.2 57.9 81.2 57.5 82.2 57.0 C 81.4 56.0 80.5 54.9 79.7 53.9 C 79.5 53.7 79.1 53.2 78.9 53.0 L 79.2 52.3 C 80.0 49.9 80.7 47.5 81.7 45.1 C 82.6 44.9 84.3 44.4 85.2 44.1 C 83.6 43.4 82.0 42.7 80.4 42.0 C 79.4 43.3 78.1 44.6 78.5 46.4 L 78.5 47.2 C 77.7 46.3 76.9 45.5 76.0 44.6 C 75.5 46.7 75.1 48.8 74.8 51.0 C 75.3 51.4 76.4 52.1 77.0 52.5 C 76.5 53.0 75.5 53.9 75.0 54.4 L 74.9 54.4 C 73.4 53.3 71.9 52.1 70.4 50.9 C 73.7 51.3 72.1 47.6 72.5 45.8 C 74.1 45.0 75.7 44.0 77.6 44.4 C 78.6 43.0 80.0 41.6 78.9 39.8 C 77.9 40.3 76.8 40.7 75.8 41.2 C 74.9 40.9 74.0 40.5 73.2 40.2 C 72.7 40.7 71.9 41.6 71.4 42.1 C 70.9 41.7 70.0 40.8 69.5 40.4 C 69.1 39.9 68.5 38.9 68.1 38.4 C 69.2 38.5 70.2 38.7 71.2 39.0 C 73.0 37.6 74.1 35.5 75.1 33.5 Z" />
<path fill="#82a0b2" stroke="#82a0b2" stroke-width="0.09375" opacity="1.00" d=" M 79.0 32.0 C 79.6 33.1 80.2 34.2 80.8 35.3 C 80.7 35.7 80.6 36.7 80.6 37.1 C 81.9 36.9 83.6 35.9 83.0 34.3 L 82.8 33.0 L 83.3 33.3 C 84.0 33.7 85.2 34.4 85.9 34.8 C 85.9 35.7 85.9 36.5 85.9 37.4 C 83.6 37.6 81.2 37.8 78.9 37.9 C 78.9 35.9 79.0 34.0 79.0 32.0 Z" />
<path fill="#d3d9db" stroke="#d3d9db" stroke-width="0.09375" opacity="1.00" d=" M 80.8 35.3 C 81.3 35.0 82.5 34.5 83.0 34.3 C 83.6 35.9 81.9 36.9 80.6 37.1 C 80.6 36.7 80.7 35.7 80.8 35.3 Z" />
<path fill="#ecf0f1" stroke="#ecf0f1" stroke-width="0.09375" opacity="1.00" d=" M 70.9 35.3 C 74.3 35.4 69.3 38.3 70.9 35.3 Z" />
<path fill="#b6c3ca" stroke="#b6c3ca" stroke-width="0.09375" opacity="1.00" d=" M 63.0 49.3 C 61.6 46.4 61.6 42.9 63.1 40.0 C 63.6 40.3 64.4 41.0 64.9 41.3 L 65.5 41.7 C 66.9 41.9 68.2 42.0 69.6 42.2 C 69.8 42.7 70.3 43.7 70.5 44.2 C 69.2 44.0 68.0 43.8 66.8 43.5 L 66.5 42.6 L 65.8 44.2 L 65.5 42.8 C 65.3 43.5 64.9 45.0 64.7 45.7 L 62.8 44.9 C 62.9 46.4 62.9 47.9 63.0 49.3 Z" />
<path fill="#669cc0" stroke="#669cc0" stroke-width="0.09375" opacity="1.00" d=" M 73.2 40.2 C 74.0 40.5 74.9 40.9 75.8 41.2 C 76.8 40.7 77.9 40.3 78.9 39.8 C 80.0 41.6 78.6 43.0 77.6 44.4 C 76.9 44.0 75.6 43.0 75.0 42.6 C 74.8 42.4 74.3 42.1 74.1 41.9 C 73.0 42.5 72.2 43.3 71.9 44.5 C 71.5 44.5 70.8 44.3 70.5 44.2 C 70.3 43.7 69.8 42.7 69.6 42.2 C 68.2 42.0 66.9 41.9 65.5 41.7 L 64.9 41.3 C 66.4 41.0 68.0 40.7 69.5 40.4 C 70.0 40.8 70.9 41.7 71.4 42.1 C 71.9 41.6 72.7 40.7 73.2 40.2 Z" />
<path fill="#ecf0f1" stroke="#ecf0f1" stroke-width="0.09375" opacity="1.00" d=" M 63.1 42.2 C 66.4 42.3 61.6 45.3 63.1 42.2 Z" />
<path fill="#ecf0f1" stroke="#ecf0f1" stroke-width="0.09375" opacity="1.00" d=" M 71.9 44.5 C 72.2 43.3 73.0 42.5 74.1 41.9 C 74.3 42.1 74.8 42.4 75.0 42.6 C 74.4 43.1 73.1 44.1 72.5 44.7 L 71.9 44.5 Z" />
<path fill="#4f9bcf" stroke="#4f9bcf" stroke-width="0.09375" opacity="1.00" d=" M 80.4 42.0 C 82.0 42.7 83.6 43.4 85.2 44.1 C 84.3 44.4 82.6 44.9 81.7 45.1 C 80.9 45.4 79.3 46.1 78.5 46.4 C 78.1 44.6 79.4 43.3 80.4 42.0 Z" />
<path fill="#ecf0f1" stroke="#ecf0f1" stroke-width="0.09375" opacity="1.00" d=" M 65.5 42.8 L 65.8 44.2 L 66.5 42.6 L 66.8 43.5 C 67.0 46.5 68.6 49.1 71.7 49.7 C 69.9 51.1 67.7 51.5 65.5 51.8 C 64.6 51.0 63.8 50.2 63.0 49.3 C 62.9 47.9 62.9 46.4 62.8 44.9 L 64.7 45.7 C 64.9 45.0 65.3 43.5 65.5 42.8 Z" />
<path fill="#7096b0" stroke="#7096b0" stroke-width="0.09375" opacity="1.00" d=" M 66.8 43.5 C 68.0 43.8 69.2 44.0 70.5 44.2 C 70.8 44.3 71.5 44.5 71.9 44.5 L 72.5 44.7 C 73.1 44.1 74.4 43.1 75.0 42.6 C 75.6 43.0 76.9 44.0 77.6 44.4 C 75.7 44.0 74.1 45.0 72.5 45.8 C 72.1 47.6 73.7 51.3 70.4 50.9 C 71.9 52.1 73.4 53.3 74.9 54.4 C 75.5 56.7 76.3 59.0 77.3 61.1 C 76.9 60.7 76.1 59.8 75.6 59.4 C 74.6 60.8 73.5 62.1 72.4 63.5 L 74.2 65.3 C 71.9 65.9 70.8 65.1 70.8 62.8 C 72.1 61.3 73.5 59.9 74.8 58.4 C 73.7 58.2 71.5 57.8 70.4 57.6 C 71.8 57.1 73.1 56.5 74.5 56.0 C 74.2 55.7 73.6 55.2 73.3 54.9 C 72.5 53.8 71.4 53.4 70.1 53.6 C 70.0 53.0 69.9 51.8 69.9 51.2 C 69.0 51.5 67.1 52.1 66.2 52.5 C 66.2 53.0 66.1 53.5 66.1 54.0 C 67.0 54.1 68.8 54.1 69.8 54.1 C 68.9 55.8 67.3 56.8 65.6 57.7 C 65.2 58.5 64.8 59.3 64.4 60.1 C 64.7 55.7 62.2 60.3 63.0 62.2 L 61.7 61.8 C 61.7 61.2 61.6 60.0 61.6 59.4 C 61.5 58.0 61.5 56.6 61.5 55.2 C 61.5 53.7 61.6 52.3 61.5 50.8 C 63.2 50.9 63.5 52.9 64.7 53.8 C 64.9 53.3 65.3 52.3 65.5 51.8 C 67.7 51.5 69.9 51.1 71.7 49.7 C 68.6 49.1 67.0 46.5 66.8 43.5 Z" />
<path fill="#ecf0f1" stroke="#ecf0f1" stroke-width="0.09375" opacity="1.00" d=" M 69.2 45.3 C 72.5 45.3 67.8 48.4 69.2 45.3 Z" />
<path fill="#4994c6" stroke="#4994c6" stroke-width="0.09375" opacity="1.00" d=" M 71.2 45.4 C 72.5 45.7 72.7 46.4 71.8 47.6 C 70.5 47.3 70.3 46.6 71.2 45.4 Z" />
<path fill="#89a5b7" stroke="#89a5b7" stroke-width="0.09375" opacity="1.00" d=" M 76.0 44.6 C 76.9 45.5 77.7 46.3 78.5 47.2 L 78.5 46.4 C 79.3 46.1 80.9 45.4 81.7 45.1 C 80.7 47.5 80.0 49.9 79.2 52.3 C 79.5 51.0 79.2 49.9 78.3 49.0 C 78.0 48.7 77.5 48.2 77.3 48.0 C 75.0 48.9 76.1 52.3 77.9 49.7 C 77.5 51.0 77.8 52.1 78.9 53.0 C 79.1 53.2 79.5 53.7 79.7 53.9 C 79.1 54.7 78.5 55.5 77.9 56.3 C 76.9 55.7 75.9 55.0 75.0 54.4 C 75.5 53.9 76.5 53.0 77.0 52.5 C 76.4 52.1 75.3 51.4 74.8 51.0 C 75.1 48.8 75.5 46.7 76.0 44.6 Z" />
<path fill="#dbdfe1" stroke="#dbdfe1" stroke-width="0.09375" opacity="1.00" d=" M 77.3 48.0 C 77.5 48.2 78.0 48.7 78.3 49.0 L 77.9 49.7 C 76.1 52.3 75.0 48.9 77.3 48.0 Z" />
<path fill="#3598db" stroke="#3598db" stroke-width="0.09375" opacity="1.00" d=" M 78.3 49.0 C 79.2 49.9 79.5 51.0 79.2 52.3 L 78.9 53.0 C 77.8 52.1 77.5 51.0 77.9 49.7 L 78.3 49.0 Z" />
<path fill="#e9edee" stroke="#e9edee" stroke-width="0.09375" opacity="1.00" d=" M 61.5 55.2 C 59.3 54.9 59.0 50.3 61.5 50.8 C 61.6 52.3 61.5 53.7 61.5 55.2 Z" />
<path fill="#4c96c8" stroke="#4c96c8" stroke-width="0.09375" opacity="1.00" d=" M 66.2 52.5 C 67.1 52.1 69.0 51.5 69.9 51.2 C 69.9 51.8 70.0 53.0 70.1 53.6 C 71.4 53.4 72.5 53.8 73.3 54.9 C 70.7 55.4 68.9 57.5 67.0 59.1 C 67.0 59.9 67.1 61.4 67.1 62.1 C 65.9 62.8 64.7 63.5 63.5 64.2 L 63.4 62.3 C 63.7 61.8 64.1 60.7 64.4 60.1 C 64.8 59.3 65.2 58.5 65.6 57.7 C 67.3 56.8 68.9 55.8 69.8 54.1 C 68.8 54.1 67.0 54.1 66.1 54.0 C 66.1 53.5 66.2 53.0 66.2 52.5 Z" />
<path fill="#4b97cb" stroke="#4b97cb" stroke-width="0.09375" opacity="1.00" d=" M 74.9 54.4 L 75.0 54.4 C 75.9 55.0 76.9 55.7 77.9 56.3 C 78.5 55.5 79.1 54.7 79.7 53.9 C 80.5 54.9 81.4 56.0 82.2 57.0 C 81.2 57.5 80.2 57.9 79.2 58.4 C 78.8 59.5 78.4 60.7 78.0 61.8 L 77.3 61.1 C 76.3 59.0 75.5 56.7 74.9 54.4 Z" />
<path fill="#ecf0f1" stroke="#ecf0f1" stroke-width="0.09375" opacity="1.00" d=" M 77.2 54.5 C 77.8 55.0 77.8 55.0 77.2 54.5 Z" />
<path fill="#ecf0f1" stroke="#ecf0f1" stroke-width="0.09375" opacity="1.00" d=" M 50.8 59.6 C 52.5 57.8 54.3 56.1 56.1 54.4 C 58.0 56.0 59.7 57.8 61.6 59.4 C 61.6 60.0 61.7 61.2 61.7 61.8 L 63.0 62.2 L 63.4 62.3 L 63.5 64.2 C 64.7 63.5 65.9 62.8 67.1 62.1 C 67.1 61.4 67.0 59.9 67.0 59.1 C 68.9 57.5 70.7 55.4 73.3 54.9 C 73.6 55.2 74.2 55.7 74.5 56.0 C 73.1 56.5 71.8 57.1 70.4 57.6 C 71.5 57.8 73.7 58.2 74.8 58.4 C 73.5 59.9 72.1 61.3 70.8 62.8 C 70.8 65.1 71.9 65.9 74.2 65.3 C 71.6 67.6 68.5 66.0 67.2 63.2 C 67.1 63.8 66.8 65.0 66.7 65.6 C 68.8 67.1 71.0 68.6 72.3 70.9 C 70.6 72.2 69.3 73.8 68.0 75.5 C 64.8 75.2 64.3 70.3 61.1 70.0 C 60.3 72.6 62.3 74.9 63.2 77.1 C 62.8 77.0 62.0 76.7 61.6 76.6 C 59.5 75.9 57.4 75.2 55.3 74.6 C 56.9 72.4 58.3 69.9 60.8 68.8 C 62.3 68.2 63.2 66.9 63.8 65.4 C 62.6 65.9 61.4 66.5 60.2 67.0 C 59.7 66.8 58.8 66.6 58.3 66.4 C 56.4 68.1 54.5 69.7 52.5 71.3 C 52.3 70.7 51.8 69.6 51.6 69.0 C 50.9 67.2 50.0 65.5 49.7 63.6 C 52.2 64.9 54.8 66.1 57.7 66.2 C 56.0 63.4 53.2 61.6 50.8 59.6 Z" />
<path fill="#e2e6e7" stroke="#e2e6e7" stroke-width="0.09375" opacity="1.00" d=" M 63.0 62.2 C 62.2 60.3 64.7 55.7 64.4 60.1 C 64.1 60.7 63.7 61.8 63.4 62.3 L 63.0 62.2 Z" />
<path fill="#a2b4c0" stroke="#a2b4c0" stroke-width="0.09375" opacity="1.00" d=" M 83.0 62.6 C 84.1 61.3 85.5 60.2 87.1 59.8 C 86.7 61.0 86.9 62.0 87.6 63.0 L 88.1 63.7 C 86.7 64.4 85.2 65.0 83.8 65.6 C 83.5 64.6 83.3 63.6 83.0 62.6 Z" />
<path fill="#dde2e4" stroke="#dde2e4" stroke-width="0.09375" opacity="1.00" d=" M 87.1 59.8 C 88.5 60.6 88.7 61.7 87.6 63.0 C 86.9 62.0 86.7 61.0 87.1 59.8 Z" />
<path fill="#abb6bd" stroke="#abb6bd" stroke-width="0.09375" opacity="1.00" d=" M 59.3 64.1 C 62.4 62.6 59.3 67.5 59.3 64.1 Z" />
<path fill="#599bc7" stroke="#599bc7" stroke-width="0.09375" opacity="1.00" d=" M 58.3 66.4 C 58.8 66.6 59.7 66.8 60.2 67.0 C 61.4 66.5 62.6 65.9 63.8 65.4 C 63.2 66.9 62.3 68.2 60.8 68.8 C 58.3 69.9 56.9 72.4 55.3 74.6 C 57.4 75.2 59.5 75.9 61.6 76.6 C 60.9 76.7 59.5 77.0 58.8 77.1 C 57.0 77.2 55.3 77.9 53.7 78.6 C 52.4 76.4 53.8 74.3 54.7 72.4 C 54.0 72.0 53.2 71.7 52.5 71.3 C 54.5 69.7 56.4 68.1 58.3 66.4 Z" />
<path fill="#ecf0f1" stroke="#ecf0f1" stroke-width="0.09375" opacity="1.00" d=" M 31.2 89.8 C 38.9 83.6 43.6 74.7 49.9 67.2 C 49.9 67.9 50.0 69.1 50.1 69.8 C 49.5 71.2 49.0 72.6 48.6 74.1 C 50.8 74.1 52.8 73.5 54.7 72.4 C 53.8 74.3 52.4 76.4 53.7 78.6 C 55.3 77.9 57.0 77.2 58.8 77.1 L 59.0 77.4 C 51.3 83.0 44.1 89.2 38.4 96.8 C 36.1 94.4 33.7 92.1 31.2 89.8 Z" />
<path fill="#5e9bc5" stroke="#5e9bc5" stroke-width="0.09375" opacity="1.00" d=" M 50.1 69.8 C 50.5 69.6 51.2 69.2 51.6 69.0 C 51.8 69.6 52.3 70.7 52.5 71.3 C 53.2 71.7 54.0 72.0 54.7 72.4 C 52.8 73.5 50.8 74.1 48.6 74.1 C 49.0 72.6 49.5 71.2 50.1 69.8 Z" />
</svg>
