<?xml version="1.0" encoding="UTF-8" ?>
<!DOCTYPE svg PUBLIC "-//W3C//DTD SVG 1.1//EN" "http://www.w3.org/Graphics/SVG/1.1/DTD/svg11.dtd">
<svg width="128pt" height="128pt" viewBox="0 0 128 128" version="1.1" xmlns="http://www.w3.org/2000/svg">
<path fill="#7f8b8c" stroke="#7f8b8c" stroke-width="0.09375" opacity="1.00" d=" M 0.0 0.0 L 128.0 0.0 L 128.0 128.0 L 0.0 128.0 L 0.0 0.0 Z" />
<path fill="#eceff0" stroke="#eceff0" stroke-width="0.09375" opacity="1.00" d=" M 35.8 27.7 C 54.9 27.3 74.4 25.3 93.3 28.2 C 91.5 49.5 89.0 70.8 87.0 92.1 C 86.9 95.7 84.5 99.0 80.9 100.0 C 68.3 103.3 54.0 103.6 42.3 97.1 C 40.7 73.9 37.1 50.9 35.8 27.7 Z" />
<path fill="#7f8b8c" stroke="#7f8b8c" stroke-width="0.09375" opacity="1.00" d=" M 44.1 34.3 C 57.8 34.0 71.6 33.6 85.3 34.4 C 84.0 53.9 81.3 73.3 79.5 92.8 C 69.6 94.9 59.2 95.6 49.3 93.1 C 48.1 73.5 44.8 54.0 44.1 34.3 Z" />
<path fill="#ebeff0" stroke="#ebeff0" stroke-width="0.09375" opacity="1.00" d=" M 50.1 51.8 C 59.7 51.7 69.3 53.2 78.9 53.4 C 77.9 65.3 76.7 77.2 75.8 89.1 C 68.6 90.3 61.2 90.8 54.0 89.3 C 52.7 76.8 51.7 64.3 50.1 51.8 Z" />
</svg>
