<?xml version="1.0" encoding="UTF-8" ?>
<!DOCTYPE svg PUBLIC "-//W3C//DTD SVG 1.1//EN" "http://www.w3.org/Graphics/SVG/1.1/DTD/svg11.dtd">
<svg width="128pt" height="128pt" viewBox="0 0 128 128" version="1.1" xmlns="http://www.w3.org/2000/svg">
<path fill="#f39c12" stroke="#f39c12" stroke-width="0.09375" opacity="1.00" d=" M 0.0 0.0 L 128.0 0.0 L 128.0 128.0 L 0.0 128.0 L 0.0 0.0 Z" />
<path fill="#ecf0f1" stroke="#ecf0f1" stroke-width="0.09375" opacity="1.00" d=" M 50.1 53.2 C 52.9 52.3 55.9 51.5 58.9 51.7 C 62.1 55.2 62.4 60.1 64.4 64.3 C 64.8 65.1 65.2 66.0 65.7 66.8 C 66.2 62.4 66.1 57.9 65.3 53.5 C 65.2 53.0 65.1 51.9 65.0 51.3 C 68.2 51.4 71.5 51.8 74.7 52.3 C 77.0 56.0 78.1 60.1 79.4 64.1 C 79.8 65.0 80.2 65.8 80.6 66.5 C 81.1 62.9 81.1 59.1 81.0 55.4 C 86.2 58.1 91.8 62.7 91.7 69.0 C 91.9 73.9 87.1 77.5 82.7 77.9 C 81.5 77.8 80.3 78.1 79.2 78.6 C 73.9 79.9 68.4 79.6 63.0 79.7 C 57.6 79.6 52.1 79.8 46.9 78.5 C 45.8 78.0 44.6 77.8 43.4 77.8 C 39.6 77.3 35.3 74.7 35.0 70.6 C 35.0 69.2 35.1 67.9 35.1 66.6 C 35.9 61.2 40.9 57.8 45.2 55.3 C 47.3 58.8 48.0 62.8 49.6 66.4 C 50.4 62.0 50.1 57.6 50.1 53.2 Z" />
<path fill="#bf995a" stroke="#bf995a" stroke-width="0.09375" opacity="1.00" d=" M 65.3 53.5 C 66.1 57.9 66.2 62.4 65.7 66.8 C 65.2 66.0 64.8 65.1 64.4 64.3 C 64.7 60.7 65.3 57.1 65.3 53.5 Z" />
<path fill="#c6974b" stroke="#c6974b" stroke-width="0.09375" opacity="1.00" d=" M 79.4 64.1 C 79.3 61.2 80.3 58.3 81.0 55.4 C 81.1 59.1 81.1 62.9 80.6 66.5 C 80.2 65.8 79.8 65.0 79.4 64.1 Z" />
<path fill="#b5a07d" stroke="#b5a07d" stroke-width="0.09375" opacity="1.00" d=" M 35.0 70.6 C 32.9 70.8 33.0 66.2 35.1 66.6 C 35.1 67.9 35.0 69.2 35.0 70.6 Z" />
<path fill="#bb9f6f" stroke="#bb9f6f" stroke-width="0.09375" opacity="1.00" d=" M 43.4 77.8 C 44.6 77.8 45.8 78.0 46.9 78.5 C 46.3 80.2 43.1 79.6 43.4 77.8 Z" />
<path fill="#b9a37d" stroke="#b9a37d" stroke-width="0.09375" opacity="1.00" d=" M 79.2 78.6 C 80.3 78.1 81.5 77.8 82.7 77.9 C 82.9 79.7 79.7 80.2 79.2 78.6 Z" />
</svg>
