<?xml version="1.0" encoding="UTF-8" ?>
<!DOCTYPE svg PUBLIC "-//W3C//DTD SVG 1.1//EN" "http://www.w3.org/Graphics/SVG/1.1/DTD/svg11.dtd">
<svg width="128pt" height="128pt" viewBox="0 0 128 128" version="1.1" xmlns="http://www.w3.org/2000/svg">
<path fill="#c0392b" stroke="#c0392b" stroke-width="0.09375" opacity="1.00" d=" M 0.0 0.0 L 128.0 0.0 L 128.0 128.0 L 0.0 128.0 L 0.0 0.0 Z" />
<path fill="#ecf0f1" stroke="#ecf0f1" stroke-width="0.09375" opacity="1.00" d=" M 43.9 38.4 C 45.1 36.9 46.8 35.4 48.9 35.7 C 59.9 35.6 71.0 35.6 82.0 35.7 C 84.9 35.4 88.1 37.7 87.9 40.9 C 88.0 56.6 88.0 72.4 87.9 88.1 C 88.1 91.2 84.9 93.5 82.0 93.3 C 71.0 93.3 60.0 93.4 49.0 93.3 C 46.9 93.5 45.1 92.1 43.8 90.5 C 44.3 73.2 44.3 55.8 43.9 38.4 Z" />
<path fill="#c0392b" stroke="#c0392b" stroke-width="0.09375" opacity="1.00" d=" M 45.0 40.9 C 44.7 38.6 46.9 37.0 49.1 37.3 C 60.8 37.3 72.5 37.3 84.2 37.4 C 84.7 37.9 85.6 38.9 86.0 39.3 C 86.1 56.1 86.1 72.9 86.0 89.6 C 85.5 90.1 84.6 91.1 84.1 91.6 C 72.4 91.7 60.7 91.6 49.0 91.6 C 46.9 91.9 44.7 90.3 45.0 88.1 C 45.0 72.3 45.0 56.6 45.0 40.9 Z" />
<path fill="#b1a3a2" stroke="#b1a3a2" stroke-width="0.09375" opacity="1.00" d=" M 43.0 43.0 C 42.9 41.4 43.4 39.9 43.9 38.4 C 44.3 55.8 44.3 73.2 43.8 90.5 C 42.6 87.2 43.0 83.6 43.0 80.1 C 43.0 67.7 43.0 55.4 43.0 43.0 Z" />
<path fill="#ecf0f1" stroke="#ecf0f1" stroke-width="0.09375" opacity="1.00" d=" M 47.4 41.5 C 48.6 42.0 49.9 42.5 50.7 43.6 C 51.2 42.8 51.7 42.0 52.3 41.2 C 54.3 43.1 53.3 45.5 51.2 46.6 C 48.4 47.0 47.4 43.7 47.4 41.5 Z" />
<path fill="#ecf0f1" stroke="#ecf0f1" stroke-width="0.09375" opacity="1.00" d=" M 58.4 55.0 C 59.8 55.0 61.1 55.0 62.5 55.0 C 63.5 55.7 64.5 56.4 65.5 57.0 C 66.5 56.4 67.5 55.7 68.5 55.0 C 70.2 55.0 71.9 55.0 73.7 54.9 C 76.6 57.3 77.6 60.9 77.0 64.6 C 74.6 68.3 71.4 71.6 67.6 74.0 C 66.2 74.0 64.8 74.0 63.4 74.0 C 59.6 71.6 56.4 68.4 54.0 64.6 C 54.0 62.9 54.0 61.2 54.0 59.5 C 55.5 58.0 56.9 56.5 58.4 55.0 Z" />
<path fill="#c0392b" stroke="#c0392b" stroke-width="0.09375" opacity="1.00" d=" M 56.9 59.3 C 58.3 58.3 59.6 56.2 61.5 57.6 C 62.8 58.4 64.1 59.2 65.5 59.9 C 66.2 59.5 66.8 59.1 67.5 58.7 C 69.5 57.4 71.7 56.6 73.9 58.1 C 74.3 60.0 75.5 61.9 74.2 63.8 C 74.2 64.2 74.0 65.1 73.9 65.6 C 71.6 68.3 68.8 70.6 65.4 71.8 C 61.9 70.4 58.8 68.0 57.0 64.6 C 57.0 62.8 57.0 61.1 56.9 59.3 Z" />
<path fill="#ecf0f1" stroke="#ecf0f1" stroke-width="0.09375" opacity="1.00" d=" M 79.3 82.0 C 79.9 82.0 81.1 81.9 81.7 81.9 C 83.2 83.5 84.3 85.3 84.5 87.5 C 83.4 87.1 82.2 86.6 81.5 85.5 C 80.1 84.7 79.6 87.2 78.7 87.8 C 75.6 86.1 77.6 83.6 79.3 82.0 Z" />
</svg>
