<?xml version="1.0" encoding="UTF-8" ?>
<!DOCTYPE svg PUBLIC "-//W3C//DTD SVG 1.1//EN" "http://www.w3.org/Graphics/SVG/1.1/DTD/svg11.dtd">
<svg width="128pt" height="128pt" viewBox="0 0 128 128" version="1.1" xmlns="http://www.w3.org/2000/svg">
<path fill="#c0392b" stroke="#c0392b" stroke-width="0.09375" opacity="1.00" d=" M 0.0 0.0 L 128.0 0.0 L 128.0 128.0 L 0.0 128.0 L 0.0 0.0 Z" />
<path fill="#ecf0f1" stroke="#ecf0f1" stroke-width="0.09375" opacity="1.00" d=" M 57.4 17.5 C 60.6 16.8 64.2 17.6 66.4 20.1 C 67.3 25.1 59.9 26.8 56.4 24.8 C 52.8 23.6 53.8 17.8 57.4 17.5 Z" />
<path fill="#ebedee" stroke="#ebedee" stroke-width="0.09375" opacity="1.00" d=" M 69.4 22.7 C 71.1 17.6 78.6 18.4 81.3 22.1 C 77.7 24.2 73.4 22.2 69.4 22.7 Z" />
<path fill="#ecf0f1" stroke="#ecf0f1" stroke-width="0.09375" opacity="1.00" d=" M 38.5 30.0 C 39.5 25.7 44.1 23.6 48.0 22.4 C 49.0 23.0 50.0 23.5 50.9 24.1 C 48.3 28.3 45.0 32.6 40.1 34.2 C 39.4 32.9 38.1 31.7 38.5 30.0 Z" />
<path fill="#ecf0f1" stroke="#ecf0f1" stroke-width="0.09375" opacity="1.00" d=" M 69.6 29.0 C 70.7 27.7 71.9 26.5 73.0 25.3 C 75.5 25.4 79.8 26.2 78.7 29.7 C 77.9 32.9 74.0 32.4 71.7 31.4 C 70.3 35.4 68.7 39.3 67.1 43.2 C 66.3 45.4 62.8 45.2 62.0 43.0 C 59.4 37.8 60.0 30.3 64.8 26.4 C 66.4 27.3 68.0 28.1 69.6 29.0 Z" />
<path fill="#ecf0f1" stroke="#ecf0f1" stroke-width="0.09375" opacity="1.00" d=" M 82.6 33.4 C 81.9 29.0 85.9 25.8 89.9 25.3 C 91.4 28.0 92.5 30.9 93.0 34.0 C 91.1 35.3 89.4 37.1 87.0 37.6 C 82.8 38.2 80.5 42.4 78.7 45.8 C 78.2 46.6 78.0 48.3 76.8 47.3 C 75.4 44.6 73.7 41.9 72.4 39.0 C 73.8 34.6 78.8 34.1 82.6 33.4 Z" />
<path fill="#ecf0f1" stroke="#ecf0f1" stroke-width="0.09375" opacity="1.00" d=" M 52.5 27.4 C 54.8 26.7 56.8 28.5 58.7 29.4 C 58.4 32.5 58.3 35.5 57.4 38.5 C 56.6 39.7 55.2 40.5 54.1 41.5 C 55.9 42.0 57.7 42.5 59.5 43.0 C 59.9 46.1 58.1 48.7 56.0 50.8 C 54.3 50.2 52.5 49.7 50.7 49.2 C 50.2 47.8 49.7 46.4 49.1 44.9 C 50.4 42.4 52.5 40.1 52.7 37.2 C 51.5 35.3 49.7 33.8 48.2 32.1 C 49.6 30.5 50.8 28.7 52.5 27.4 Z" />
<path fill="#ecf0f1" stroke="#ecf0f1" stroke-width="0.09375" opacity="1.00" d=" M 96.1 30.8 C 98.0 31.5 100.0 32.4 101.2 34.2 C 101.6 36.1 100.3 38.0 99.8 39.8 C 98.6 41.8 100.0 44.0 100.4 46.0 C 97.0 50.3 96.5 55.9 94.2 60.7 C 93.9 57.2 94.8 53.6 94.3 50.1 C 92.7 47.7 90.6 45.6 89.2 43.0 C 90.9 39.6 94.7 39.3 98.1 39.7 C 96.5 37.0 94.2 34.0 96.1 30.8 Z" />
<path fill="#eceff0" stroke="#eceff0" stroke-width="0.09375" opacity="1.00" d=" M 28.7 35.2 C 30.3 33.8 32.8 32.6 34.6 34.4 C 36.6 36.1 34.7 38.5 33.8 40.2 C 31.4 39.3 29.5 37.6 28.7 35.2 Z" />
<path fill="#ecf0f1" stroke="#ecf0f1" stroke-width="0.09375" opacity="1.00" d=" M 37.0 44.7 C 34.7 38.8 42.4 33.6 47.3 36.7 C 49.8 38.1 48.8 41.5 47.3 43.2 C 45.2 47.2 40.4 44.5 37.0 44.7 Z" />
<path fill="#eceff0" stroke="#eceff0" stroke-width="0.09375" opacity="1.00" d=" M 102.4 41.0 C 102.3 38.4 104.8 36.8 107.0 36.2 C 107.9 39.3 108.9 42.6 107.7 45.8 C 105.0 45.9 102.2 43.9 102.4 41.0 Z" />
<path fill="#ecf0f1" stroke="#ecf0f1" stroke-width="0.09375" opacity="1.00" d=" M 21.4 40.4 C 23.9 39.3 26.9 39.4 29.4 40.7 C 31.9 41.8 34.9 43.8 34.6 47.0 C 34.5 48.0 34.5 49.8 33.0 49.6 C 30.4 49.4 27.8 49.3 25.3 49.1 C 22.5 47.3 19.7 45.5 17.0 43.7 C 17.1 41.5 19.8 41.2 21.4 40.4 Z" />
<path fill="#ecf0f1" stroke="#ecf0f1" stroke-width="0.09375" opacity="1.00" d=" M 6.4 55.0 C 7.1 50.4 10.6 46.9 13.9 44.1 C 15.5 45.1 17.1 46.1 18.7 47.1 C 16.7 49.6 13.5 52.1 14.3 55.7 C 15.2 59.7 19.2 61.8 22.5 63.5 C 35.1 69.2 49.3 70.6 63.0 70.7 C 77.2 70.8 91.7 69.4 104.9 63.8 C 108.3 62.2 112.0 60.2 113.5 56.5 C 114.7 53.1 112.1 50.2 110.1 47.8 C 111.8 46.9 113.5 46.0 115.1 45.1 C 118.4 47.9 121.5 51.5 121.6 55.9 C 121.8 62.8 120.1 69.5 117.8 75.8 C 115.3 83.2 111.8 90.6 105.8 95.8 C 94.5 106.6 78.4 111.1 63.0 110.7 C 47.8 110.8 32.0 105.9 21.0 95.0 C 15.5 89.9 12.4 82.9 10.0 75.9 C 7.7 69.2 5.9 62.1 6.4 55.0 Z" />
<path fill="#eceeef" stroke="#eceeef" stroke-width="0.09375" opacity="1.00" d=" M 76.9 56.4 C 78.6 51.4 80.7 45.2 86.1 43.2 C 86.8 44.6 87.4 46.1 87.9 47.6 C 83.6 49.7 80.3 53.1 76.9 56.4 Z" />
<path fill="#ecf0f1" stroke="#ecf0f1" stroke-width="0.09375" opacity="1.00" d=" M 39.6 47.6 C 41.0 46.5 42.5 47.8 43.9 48.3 C 43.6 51.3 42.4 54.1 41.6 57.0 C 42.1 60.3 43.7 63.4 44.0 66.7 C 40.1 66.5 35.3 66.1 32.8 62.9 C 31.7 57.0 34.8 50.9 39.6 47.6 Z" />
<path fill="#ecf0f1" stroke="#ecf0f1" stroke-width="0.09375" opacity="1.00" d=" M 59.0 55.7 C 60.4 50.9 64.7 46.6 69.9 46.5 C 71.3 47.3 71.9 48.9 72.9 50.2 C 69.0 52.8 64.3 54.3 61.0 57.8 C 60.5 57.3 59.5 56.2 59.0 55.7 Z" />
<path fill="#eceff0" stroke="#eceff0" stroke-width="0.09375" opacity="1.00" d=" M 16.5 54.0 C 16.8 51.2 19.3 49.7 21.1 47.9 C 22.6 49.4 23.6 51.1 23.8 53.1 C 25.8 51.9 27.9 50.9 30.2 50.5 C 30.7 54.4 30.6 58.5 28.8 62.0 C 27.1 61.6 24.8 62.0 24.0 60.1 C 23.3 58.9 23.1 57.4 22.6 56.1 C 21.7 57.3 20.7 58.5 19.7 59.6 C 18.1 58.1 16.7 56.3 16.5 54.0 Z" />
<path fill="#ecf0f1" stroke="#ecf0f1" stroke-width="0.09375" opacity="1.00" d=" M 97.3 61.8 C 96.3 55.6 101.6 47.7 108.3 49.5 C 111.2 51.9 111.7 57.2 108.5 59.5 C 105.3 61.8 101.1 63.3 97.3 61.8 Z" />
<path fill="#ecf0f1" stroke="#ecf0f1" stroke-width="0.09375" opacity="1.00" d=" M 77.4 66.4 C 77.3 58.9 82.9 50.6 91.1 51.2 C 91.7 55.5 92.2 60.2 90.2 64.2 C 86.9 67.4 81.6 66.4 77.4 66.4 Z" />
<path fill="#ecf0f1" stroke="#ecf0f1" stroke-width="0.09375" opacity="1.00" d=" M 44.2 58.9 C 45.8 55.2 50.9 52.9 54.2 55.8 C 57.0 58.9 59.2 63.4 57.8 67.7 C 55.7 67.6 53.6 67.8 51.6 67.3 C 48.9 64.7 47.0 61.4 44.2 58.9 Z" />
<path fill="#ecf0f1" stroke="#ecf0f1" stroke-width="0.09375" opacity="1.00" d=" M 68.4 56.1 C 70.7 54.6 73.7 56.5 73.9 59.2 C 74.2 61.4 75.7 64.6 73.4 66.3 C 71.2 67.9 68.2 67.9 65.5 67.5 C 61.5 64.2 63.6 57.5 68.4 56.1 Z" />
</svg>
