<?xml version="1.0" encoding="UTF-8" ?>
<!DOCTYPE svg PUBLIC "-//W3C//DTD SVG 1.1//EN" "http://www.w3.org/Graphics/SVG/1.1/DTD/svg11.dtd">
<svg width="128pt" height="128pt" viewBox="0 0 128 128" version="1.1" xmlns="http://www.w3.org/2000/svg">
<path fill="#27ae60" stroke="#27ae60" stroke-width="0.09375" opacity="1.00" d=" M 0.0 0.0 L 128.0 0.0 L 128.0 128.0 L 0.0 128.0 L 0.0 0.0 Z" />
<path fill="#ecf0f1" stroke="#ecf0f1" stroke-width="0.09375" opacity="1.00" d=" M 55.1 37.8 C 56.1 38.4 58.2 38.4 58.1 40.1 C 58.4 52.1 58.0 64.0 58.2 76.0 C 58.1 78.4 58.5 81.0 57.4 83.2 C 57.2 83.6 56.7 84.4 56.4 84.8 C 61.4 85.0 66.4 85.1 71.4 85.1 C 74.1 84.4 75.0 86.8 75.4 88.9 C 74.9 88.8 73.9 88.6 73.4 88.5 C 67.7 87.1 61.8 87.8 56.0 87.7 C 50.2 87.8 44.3 87.1 38.6 88.5 C 38.2 88.6 37.4 88.8 37.0 88.8 C 37.5 87.6 37.8 86.3 38.1 85.0 C 38.8 85.1 40.1 85.1 40.7 85.1 C 45.5 85.1 50.2 85.0 55.0 85.0 L 55.0 84.0 C 54.9 68.6 54.6 53.2 55.1 37.8 Z" />
<path fill="#ecf0f1" stroke="#ecf0f1" stroke-width="0.09375" opacity="1.00" d=" M 73.0 37.7 C 74.3 38.2 75.9 38.1 76.8 39.3 C 77.6 42.2 77.8 45.2 78.9 48.1 C 80.1 45.8 80.0 43.2 80.1 40.7 C 83.4 41.4 87.5 41.7 89.7 44.4 C 89.9 47.4 89.8 50.7 88.6 53.6 C 87.5 55.9 84.9 56.9 82.8 57.9 C 83.5 68.2 83.2 78.6 83.0 88.9 C 82.3 88.9 80.8 88.8 80.1 88.8 C 79.7 78.5 79.6 68.2 80.2 58.0 C 73.1 54.0 73.1 44.8 73.0 37.7 Z" />
<path fill="#50966e" stroke="#50966e" stroke-width="0.09375" opacity="1.00" d=" M 56.4 84.8 C 56.7 84.4 57.2 83.6 57.4 83.2 C 62.0 84.7 67.1 83.0 71.4 85.1 C 66.4 85.1 61.4 85.0 56.4 84.8 Z" />
<path fill="#50946d" stroke="#50946d" stroke-width="0.09375" opacity="1.00" d=" M 40.7 85.1 C 45.2 83.1 50.2 84.2 55.0 84.0 L 55.0 85.0 C 50.2 85.0 45.5 85.1 40.7 85.1 Z" />
<path fill="#4e8967" stroke="#4e8967" stroke-width="0.09375" opacity="1.00" d=" M 38.6 88.5 C 44.3 87.1 50.2 87.8 56.0 87.7 C 61.8 87.8 67.7 87.1 73.4 88.5 C 67.6 89.3 61.8 88.9 56.0 88.9 C 50.2 88.9 44.4 89.4 38.6 88.5 Z" />
</svg>
