<?xml version="1.0" encoding="UTF-8" ?>
<!DOCTYPE svg PUBLIC "-//W3C//DTD SVG 1.1//EN" "http://www.w3.org/Graphics/SVG/1.1/DTD/svg11.dtd">
<svg width="128pt" height="128pt" viewBox="0 0 128 128" version="1.1" xmlns="http://www.w3.org/2000/svg">
<path fill="#ebeff0" stroke="#ebeff0" stroke-width="0.09375" opacity="1.00" d=" M 0.0 0.0 L 0.1 0.0 C 0.1 0.0 0.0 0.1 0.0 0.1 L 0.0 0.0 Z" />
<path fill="#f39c12" stroke="#f39c12" stroke-width="0.09375" opacity="1.00" d=" M 0.1 0.0 L 128.0 0.0 L 128.0 128.0 L 0.0 128.0 L 0.0 0.1 C 0.0 0.1 0.1 0.0 0.1 0.0 Z" />
<path fill="#ebeff0" stroke="#ebeff0" stroke-width="0.09375" opacity="1.00" d=" M 57.4 37.5 C 71.3 33.6 86.9 42.8 90.4 56.6 C 91.0 62.7 92.0 69.6 89.3 75.3 C 84.6 83.2 77.0 91.5 67.0 91.0 C 52.2 94.1 36.8 80.8 37.1 66.0 C 35.0 53.1 45.2 40.4 57.4 37.5 Z" />
<path fill="#f29c12" stroke="#f29c12" stroke-width="0.09375" opacity="1.00" d=" M 54.2 41.8 C 59.7 40.8 65.5 38.9 70.9 41.0 C 73.5 41.9 75.8 43.3 78.1 44.6 C 77.7 44.8 76.9 45.4 76.4 45.7 C 76.4 45.7 76.3 45.7 76.3 45.8 C 74.0 46.3 75.8 49.2 77.1 47.1 C 77.6 46.7 78.6 45.8 79.1 45.4 C 81.7 47.9 84.0 50.6 86.1 53.4 C 84.9 53.8 83.6 54.1 82.3 54.5 C 82.2 55.1 82.0 56.4 81.9 57.1 C 83.6 56.6 85.3 56.0 87.0 55.5 C 87.3 57.8 87.7 60.1 88.0 62.5 C 86.7 62.8 85.5 63.1 84.3 63.5 C 84.2 64.0 84.2 65.0 84.2 65.5 C 85.6 65.9 86.9 66.2 88.3 66.6 C 87.4 70.0 86.3 73.4 85.0 76.7 C 83.3 76.5 81.6 76.3 79.9 76.2 C 80.9 77.6 82.0 78.9 83.0 80.3 C 79.5 82.6 75.9 84.9 72.1 82.1 C 72.6 83.4 73.1 84.8 73.7 86.1 C 71.3 86.9 68.9 87.6 66.5 88.2 C 66.2 86.9 65.9 85.5 65.5 84.2 C 65.0 84.2 64.0 84.3 63.5 84.3 C 63.1 85.5 62.7 86.8 62.2 88.0 C 59.2 87.4 56.2 86.7 53.1 85.9 C 53.7 84.3 54.3 82.6 54.9 80.9 C 53.3 81.8 51.6 82.8 50.0 83.7 C 48.0 81.6 46.0 79.5 44.0 77.4 C 45.2 76.7 46.4 76.1 47.7 75.4 C 47.6 74.8 47.5 73.6 47.4 73.0 C 45.6 73.7 43.8 74.6 42.0 75.3 C 41.3 72.4 40.8 69.5 40.2 66.6 L 41.4 66.3 C 42.5 66.1 43.7 65.8 44.8 65.6 C 44.8 65.1 44.6 64.3 44.6 63.8 C 43.6 63.4 42.6 62.9 41.6 62.4 C 38.1 60.4 42.3 55.5 43.1 52.5 C 43.6 52.8 44.5 53.2 45.0 53.4 C 47.5 55.5 49.4 51.6 46.0 51.3 C 45.4 51.1 44.2 50.6 43.5 50.4 C 46.6 47.8 49.5 45.1 52.9 43.0 L 53.0 44.4 C 52.4 47.5 57.1 47.7 55.2 44.5 C 54.9 43.6 54.5 42.7 54.2 41.8 Z" />
<path fill="#ecf0f0" stroke="#ecf0f0" stroke-width="0.09375" opacity="1.00" d=" M 63.0 41.0 C 63.7 41.0 65.3 41.0 66.0 41.0 C 66.0 42.3 66.0 43.7 66.0 45.0 C 65.3 45.0 63.7 45.0 63.0 45.0 C 63.0 43.7 63.0 42.3 63.0 41.0 Z" />
<path fill="#eceff1" stroke="#eceff1" stroke-width="0.09375" opacity="1.00" d=" M 53.0 44.4 C 53.6 44.4 54.7 44.4 55.2 44.5 C 57.1 47.7 52.4 47.5 53.0 44.4 Z" />
<path fill="#ecf0f1" stroke="#ecf0f1" stroke-width="0.09375" opacity="1.00" d=" M 76.3 45.8 C 76.3 45.7 76.4 45.7 76.4 45.7 C 76.4 45.7 76.3 45.7 76.3 45.8 Z" />
<path fill="#ecf0f1" stroke="#ecf0f1" stroke-width="0.09375" opacity="1.00" d=" M 63.1 46.0 C 63.8 46.0 65.2 46.0 65.9 46.0 C 66.0 51.6 66.0 57.2 66.1 62.8 C 68.8 62.9 74.3 63.1 77.0 63.1 C 77.0 63.8 77.0 65.0 77.0 65.6 C 73.0 65.6 69.1 65.9 65.2 66.4 C 60.7 69.6 57.1 73.7 52.9 77.3 C 56.1 72.7 59.5 68.3 62.9 63.9 C 62.9 57.9 63.1 52.0 63.1 46.0 Z" />
<path fill="#ecf0f1" stroke="#ecf0f1" stroke-width="0.09375" opacity="1.00" d=" M 77.1 47.1 C 75.8 49.2 74.0 46.3 76.3 45.8 C 76.5 46.1 76.9 46.8 77.1 47.1 Z" />
<path fill="#ecf0f1" stroke="#ecf0f1" stroke-width="0.09375" opacity="1.00" d=" M 46.0 51.3 C 49.4 51.6 47.5 55.5 45.0 53.4 C 45.3 52.9 45.8 51.8 46.0 51.3 Z" />
<path fill="#ecf0f0" stroke="#ecf0f0" stroke-width="0.09375" opacity="1.00" d=" M 41.6 62.4 C 42.6 62.9 43.6 63.4 44.6 63.8 C 44.6 64.3 44.8 65.1 44.8 65.6 C 43.7 65.8 42.5 66.1 41.4 66.3 C 41.6 65.0 41.6 63.7 41.6 62.4 Z" />
</svg>
