<?xml version="1.0" encoding="UTF-8" ?>
<!DOCTYPE svg PUBLIC "-//W3C//DTD SVG 1.1//EN" "http://www.w3.org/Graphics/SVG/1.1/DTD/svg11.dtd">
<svg width="128pt" height="128pt" viewBox="0 0 128 128" version="1.1" xmlns="http://www.w3.org/2000/svg">
<path fill="#1abc9c" stroke="#1abc9c" stroke-width="0.09375" opacity="1.00" d=" M 0.0 0.0 L 128.0 0.0 L 128.0 128.0 L 0.0 128.0 L 0.0 0.0 Z" />
<path fill="#ecf0f1" stroke="#ecf0f1" stroke-width="0.09375" opacity="1.00" d=" M 71.9 48.0 C 76.0 43.5 80.4 39.2 85.1 35.3 C 85.7 35.4 86.9 35.6 87.5 35.6 C 87.7 36.7 87.9 37.7 87.9 38.7 C 83.3 44.5 76.9 48.5 72.0 54.0 C 70.1 56.0 67.7 57.4 65.4 58.8 C 67.5 61.8 70.0 64.6 71.0 68.0 C 70.2 72.7 67.8 77.1 67.9 82.0 C 68.1 86.1 70.3 89.8 70.0 93.9 C 69.2 94.0 67.7 94.2 67.0 94.3 C 64.7 94.5 64.4 91.8 63.7 90.2 C 62.1 85.9 62.1 81.2 62.6 76.7 C 58.2 79.5 57.0 84.7 55.2 89.2 C 54.4 91.7 51.5 90.5 49.8 90.0 C 50.4 86.0 51.2 81.9 53.2 78.3 C 55.2 74.5 59.4 72.7 62.4 70.0 C 60.1 65.6 56.5 62.2 53.7 58.3 C 51.6 56.0 53.2 51.7 56.3 51.4 C 60.2 50.9 64.0 49.7 67.8 48.7 C 65.4 50.6 62.8 52.1 60.7 54.2 C 64.8 52.9 68.3 50.4 71.9 48.0 Z" />
<path fill="#ecf0f1" stroke="#ecf0f1" stroke-width="0.09375" opacity="1.00" d=" M 47.1 45.4 C 48.6 43.2 51.5 43.1 53.9 42.3 C 54.6 44.5 55.3 46.7 56.0 48.9 C 54.2 50.4 52.1 52.6 49.5 51.5 C 47.0 50.8 46.1 47.7 47.1 45.4 Z" />
<path fill="#ecf0f1" stroke="#ecf0f1" stroke-width="0.09375" opacity="1.00" d=" M 82.8 55.8 C 84.6 54.0 82.9 49.9 86.1 49.7 C 86.8 57.4 79.6 63.2 72.8 65.0 C 72.9 64.4 73.1 63.1 73.2 62.5 C 76.9 61.2 81.1 59.7 82.8 55.8 Z" />
<path fill="#a1b9b6" stroke="#a1b9b6" stroke-width="0.09375" opacity="1.00" d=" M 44.1 67.1 C 46.7 67.2 49.4 67.2 52.0 67.0 L 51.8 67.6 C 51.7 68.0 51.5 68.8 51.4 69.2 C 50.8 69.2 49.6 69.2 49.0 69.2 C 48.5 69.2 47.5 69.2 47.0 69.2 C 46.4 69.2 45.3 69.2 44.7 69.2 C 44.6 68.8 44.4 68.0 44.3 67.6 L 44.1 67.1 Z" />
<path fill="#e4e9ea" stroke="#e4e9ea" stroke-width="0.09375" opacity="1.00" d=" M 44.3 67.6 C 44.4 68.0 44.6 68.8 44.7 69.2 C 45.5 76.3 45.0 83.6 44.9 90.7 C 44.4 90.7 43.6 90.7 43.1 90.7 C 42.9 84.5 43.0 78.2 43.0 72.0 C 42.9 70.4 43.6 69.0 44.3 67.6 Z" />
<path fill="#dee4e4" stroke="#dee4e4" stroke-width="0.09375" opacity="1.00" d=" M 51.4 69.2 C 51.5 68.8 51.7 68.0 51.8 67.6 C 53.8 70.9 54.0 75.7 51.2 78.7 C 51.0 75.5 50.5 72.3 51.4 69.2 Z" />
<path fill="#e3e7e8" stroke="#e3e7e8" stroke-width="0.09375" opacity="1.00" d=" M 47.0 69.2 C 47.5 69.2 48.5 69.2 49.0 69.2 C 48.5 75.7 50.4 82.8 47.8 89.0 C 47.6 89.3 47.3 90.0 47.1 90.4 C 46.9 83.3 47.2 76.2 47.0 69.2 Z" />
<path fill="#8aaea8" stroke="#8aaea8" stroke-width="0.09375" opacity="1.00" d=" M 47.8 89.0 C 50.4 88.7 48.0 92.8 47.1 90.4 C 47.3 90.0 47.6 89.3 47.8 89.0 Z" />
</svg>
