<?xml version="1.0" encoding="UTF-8" ?>
<!DOCTYPE svg PUBLIC "-//W3C//DTD SVG 1.1//EN" "http://www.w3.org/Graphics/SVG/1.1/DTD/svg11.dtd">
<svg width="128pt" height="128pt" viewBox="0 0 128 128" version="1.1" xmlns="http://www.w3.org/2000/svg">
<path fill="#c0392b" stroke="#c0392b" stroke-width="0.09375" opacity="1.00" d=" M 0.0 0.0 L 128.0 0.0 L 128.0 128.0 L 0.0 128.0 L 0.0 0.0 Z" />
<path fill="#ecf0f1" stroke="#ecf0f1" stroke-width="0.09375" opacity="1.00" d=" M 61.4 38.4 C 66.8 37.0 71.7 41.3 74.6 45.4 C 79.7 52.9 83.0 61.9 82.9 71.0 C 82.6 81.1 73.0 89.6 63.0 88.9 C 53.3 88.9 44.6 80.6 44.2 71.0 C 44.0 63.8 46.4 56.8 49.5 50.4 C 52.1 45.4 55.7 40.1 61.4 38.4 Z" />
<path fill="#c0392b" stroke="#c0392b" stroke-width="0.09375" opacity="1.00" d=" M 60.2 42.2 C 64.4 39.5 69.1 43.0 71.5 46.5 C 76.3 53.3 79.6 61.6 79.8 70.0 C 80.1 79.2 71.1 87.0 62.0 85.8 C 52.5 85.4 45.7 75.5 47.4 66.4 C 48.9 65.8 50.4 65.0 51.9 64.2 C 53.4 65.7 55.0 67.2 56.5 68.7 C 58.5 66.0 60.5 63.3 62.7 60.7 C 64.4 62.1 66.2 63.5 68.2 64.5 C 67.1 62.4 65.4 60.8 63.7 59.2 C 63.2 59.2 62.1 59.2 61.5 59.2 C 60.1 61.4 58.4 63.4 56.7 65.3 C 55.4 63.9 54.1 62.5 52.9 61.1 C 51.4 61.3 49.9 61.5 48.4 61.7 C 50.9 54.6 53.6 46.6 60.2 42.2 Z" />
</svg>
