<?xml version="1.0" encoding="UTF-8" ?>
<!DOCTYPE svg PUBLIC "-//W3C//DTD SVG 1.1//EN" "http://www.w3.org/Graphics/SVG/1.1/DTD/svg11.dtd">
<svg width="128pt" height="128pt" viewBox="0 0 128 128" version="1.1" xmlns="http://www.w3.org/2000/svg">
<path fill="#2c3e50" stroke="#2c3e50" stroke-width="0.09375" opacity="1.00" d=" M 0.0 0.0 L 128.0 0.0 L 128.0 128.0 L 0.0 128.0 L 0.0 0.0 Z" />
<path fill="#ecf0f1" stroke="#ecf0f1" stroke-width="0.09375" opacity="1.00" d=" M 75.4 34.4 C 81.8 34.2 88.3 34.1 94.7 34.2 C 94.8 40.6 94.9 47.0 94.9 53.4 C 89.0 46.4 82.4 40.1 75.4 34.4 Z" />
<path fill="#eceff0" stroke="#eceff0" stroke-width="0.09375" opacity="1.00" d=" M 37.5 64.4 C 41.4 51.3 52.1 39.7 65.8 37.2 C 76.7 43.4 85.0 53.1 92.4 63.1 C 88.3 72.9 83.3 83.4 73.0 88.0 C 69.3 89.7 64.6 93.5 60.6 90.5 C 52.4 84.8 45.4 77.5 39.3 69.7 C 38.3 68.1 36.9 66.4 37.5 64.4 Z" />
<path fill="#2b3e4f" stroke="#2b3e4f" stroke-width="0.09375" opacity="1.00" d=" M 70.7 52.5 C 73.0 54.1 75.1 56.0 76.9 58.2 C 72.6 59.6 69.8 63.1 66.8 66.1 C 63.7 69.3 59.9 72.1 58.3 76.5 C 56.0 74.9 53.9 73.0 52.1 70.8 C 56.4 69.4 59.2 65.9 62.2 62.9 C 65.3 59.7 69.1 56.9 70.7 52.5 Z" />
<path fill="#ecf0f1" stroke="#ecf0f1" stroke-width="0.09375" opacity="1.00" d=" M 34.1 75.6 C 40.0 82.6 46.6 88.9 53.6 94.6 C 47.2 94.8 40.7 94.9 34.3 94.8 C 34.2 88.4 34.1 82.0 34.1 75.6 Z" />
</svg>
