<?xml version="1.0" encoding="UTF-8" ?>
<!DOCTYPE svg PUBLIC "-//W3C//DTD SVG 1.1//EN" "http://www.w3.org/Graphics/SVG/1.1/DTD/svg11.dtd">
<svg width="128pt" height="128pt" viewBox="0 0 128 128" version="1.1" xmlns="http://www.w3.org/2000/svg">
<path fill="#3598db" stroke="#3598db" stroke-width="0.09375" opacity="1.00" d=" M 0.0 0.0 L 128.0 0.0 L 128.0 128.0 L 0.0 128.0 L 0.0 0.0 Z" />
<path fill="#ecf0f1" stroke="#ecf0f1" stroke-width="0.09375" opacity="1.00" d=" M 84.2 33.1 C 85.1 32.6 85.8 31.8 86.7 31.3 C 92.3 37.2 96.3 44.6 97.4 52.7 C 99.6 66.3 94.1 80.8 83.3 89.3 C 68.5 101.7 44.2 100.5 31.1 86.2 C 31.9 85.6 32.8 85.0 33.6 84.4 C 42.6 93.2 56.3 96.8 68.4 93.3 C 83.5 89.4 94.8 74.6 94.6 59.0 C 94.9 49.3 90.5 40.2 84.2 33.1 Z" />
<path fill="#ecf0f1" stroke="#ecf0f1" stroke-width="0.09375" opacity="1.00" d=" M 82.2 36.1 C 88.3 42.4 91.9 51.2 91.5 60.0 C 91.4 70.9 85.1 81.3 75.8 86.9 C 63.5 94.5 46.3 92.5 36.1 82.2 C 51.4 66.8 66.7 51.4 82.2 36.1 Z" />
<path fill="#649ec6" stroke="#649ec6" stroke-width="0.09375" opacity="1.00" d=" M 80.2 46.0 C 81.7 46.0 83.3 46.0 84.8 46.0 C 84.8 46.5 84.8 47.5 84.8 48.0 C 83.3 48.0 81.8 48.0 80.3 48.0 C 80.3 47.5 80.2 46.5 80.2 46.0 Z" />
<path fill="#6da0c3" stroke="#6da0c3" stroke-width="0.09375" opacity="1.00" d=" M 67.9 55.7 C 69.1 56.0 70.2 56.3 71.3 56.6 C 71.5 57.2 71.8 58.5 72.0 59.2 C 70.9 58.9 69.8 58.7 68.6 58.5 C 68.5 57.8 68.1 56.4 67.9 55.7 Z" />
<path fill="#6fa0c0" stroke="#6fa0c0" stroke-width="0.09375" opacity="1.00" d=" M 74.1 58.9 C 76.1 57.4 79.3 58.0 79.0 61.0 C 77.1 61.0 75.4 60.2 74.1 58.9 Z" />
<path fill="#4d95c6" stroke="#4d95c6" stroke-width="0.09375" opacity="1.00" d=" M 65.9 64.0 C 66.4 64.0 67.4 64.1 68.0 64.1 C 68.0 65.4 68.0 66.6 68.0 67.9 C 67.4 67.9 66.4 67.9 65.9 68.0 C 65.9 66.6 65.9 65.3 65.9 64.0 Z" />
<path fill="#5f9ac2" stroke="#5f9ac2" stroke-width="0.09375" opacity="1.00" d=" M 58.0 64.8 C 60.7 65.1 60.2 68.8 58.0 69.5 C 57.4 68.0 56.9 66.2 58.0 64.8 Z" />
<path fill="#5c9cc7" stroke="#5c9cc7" stroke-width="0.09375" opacity="1.00" d=" M 73.8 70.8 C 74.1 69.1 73.6 66.7 76.0 67.0 C 76.1 68.6 76.1 70.3 76.1 72.0 C 75.5 71.7 74.4 71.1 73.8 70.8 Z" />
<path fill="#609ac0" stroke="#609ac0" stroke-width="0.09375" opacity="1.00" d=" M 66.7 75.2 C 66.8 72.7 69.3 72.5 71.1 71.9 C 71.2 74.5 68.9 75.3 66.7 75.2 Z" />
<path fill="#3598db" stroke="#3598db" stroke-width="0.09375" opacity="1.00" d=" M 56.8 74.0 C 58.6 74.8 60.3 75.9 61.0 77.7 C 59.9 77.6 58.8 77.4 57.7 77.3 C 57.4 76.2 57.1 75.1 56.8 74.0 Z" />
<path fill="#5896c0" stroke="#5896c0" stroke-width="0.09375" opacity="1.00" d=" M 47.8 78.7 C 49.8 79.2 51.4 80.5 52.2 82.4 C 49.9 82.5 47.7 81.3 47.8 78.7 Z" />
</svg>
