<?xml version="1.0" encoding="UTF-8" ?>
<!DOCTYPE svg PUBLIC "-//W3C//DTD SVG 1.1//EN" "http://www.w3.org/Graphics/SVG/1.1/DTD/svg11.dtd">
<svg width="128pt" height="128pt" viewBox="0 0 128 128" version="1.1" xmlns="http://www.w3.org/2000/svg">
<path fill="#f39c12" stroke="#f39c12" stroke-width="0.09375" opacity="1.00" d=" M 0.0 0.0 L 128.0 0.0 L 128.0 128.0 L 0.0 128.0 L 0.0 0.0 Z" />
<path fill="#ecf0f1" stroke="#ecf0f1" stroke-width="0.09375" opacity="1.00" d=" M 40.3 38.0 C 43.7 35.2 47.1 32.1 51.1 30.3 C 60.4 30.0 69.8 30.1 79.1 30.3 C 79.5 31.9 79.3 34.5 77.0 34.3 C 74.5 34.9 70.8 33.2 69.3 35.9 C 71.0 37.1 73.1 38.0 74.1 40.0 C 74.3 42.6 74.1 45.3 74.1 48.0 C 68.8 49.4 63.3 48.9 57.9 48.3 C 57.6 45.6 57.2 42.8 57.8 40.1 C 58.5 38.0 62.7 37.5 62.0 35.0 C 59.8 34.0 57.3 34.5 55.0 34.4 C 50.2 34.2 46.8 38.1 43.0 40.2 C 42.1 39.5 41.2 38.7 40.3 38.0 Z" />
<path fill="#cc9c4e" stroke="#cc9c4e" stroke-width="0.09375" opacity="1.00" d=" M 74.1 40.0 L 75.0 40.0 C 75.0 42.9 75.1 45.7 75.2 48.6 C 76.5 49.3 77.7 50.0 79.0 50.7 C 70.7 50.7 62.2 51.8 53.9 50.1 C 55.2 49.5 56.4 48.5 57.9 48.3 C 63.3 48.9 68.8 49.4 74.1 48.0 C 74.1 45.3 74.3 42.6 74.1 40.0 Z" />
<path fill="#cfd1cf" stroke="#cfd1cf" stroke-width="0.09375" opacity="1.00" d=" M 53.9 50.1 C 62.2 51.8 70.7 50.7 79.0 50.7 C 82.0 55.1 84.4 59.8 85.3 65.1 C 87.7 71.8 88.2 78.9 87.6 85.9 C 86.9 90.5 84.4 95.1 80.2 97.2 C 74.6 100.2 68.0 98.7 62.0 99.0 C 56.2 99.6 49.9 97.5 46.6 92.5 C 44.2 88.8 44.4 84.2 44.4 80.0 C 44.3 71.9 46.5 63.9 49.5 56.5 C 50.4 54.0 52.0 51.9 53.9 50.1 Z" />
<path fill="#f39c12" stroke="#f39c12" stroke-width="0.09375" opacity="1.00" d=" M 51.9 56.9 C 52.9 54.8 54.3 51.6 57.2 52.6 C 63.7 53.9 70.4 53.5 77.0 52.4 C 80.8 56.8 82.0 62.7 83.6 68.1 C 85.2 73.6 85.0 79.4 84.9 85.1 C 85.3 90.8 80.0 96.2 74.2 96.1 C 68.7 96.1 63.2 96.1 57.8 96.1 C 54.2 96.2 50.5 94.5 48.7 91.3 C 46.8 87.9 46.2 83.9 46.5 80.0 C 47.2 72.1 48.7 64.2 51.9 56.9 Z" />
<path fill="#ecf0f1" stroke="#ecf0f1" stroke-width="0.09375" opacity="1.00" d=" M 49.8 70.8 C 60.5 70.4 71.2 70.4 81.8 70.8 C 82.5 76.7 83.5 82.9 81.9 88.8 C 80.1 93.4 74.4 94.5 70.0 94.4 C 64.9 94.2 59.6 95.0 54.6 93.3 C 51.5 92.4 49.5 89.2 49.3 86.1 C 49.1 81.0 49.2 75.9 49.8 70.8 Z" />
<path fill="#cba465" stroke="#cba465" stroke-width="0.09375" opacity="1.00" d=" M 69.9 73.2 C 70.9 72.5 71.9 72.0 73.1 71.7 C 73.4 72.7 73.6 73.8 73.8 74.8 C 72.7 76.6 68.8 75.6 69.9 73.2 Z" />
<path fill="#ef9c19" stroke="#ef9c19" stroke-width="0.09375" opacity="1.00" d=" M 75.1 75.2 C 76.6 74.9 78.3 74.1 79.4 75.6 C 80.9 77.7 77.9 80.9 75.8 79.2 C 75.1 78.0 75.3 76.5 75.1 75.2 Z" />
<path fill="#f29c13" stroke="#f29c13" stroke-width="0.09375" opacity="1.00" d=" M 68.1 81.3 C 69.3 78.5 72.5 79.5 74.7 80.2 C 75.5 82.4 75.3 84.6 73.8 86.4 L 72.7 86.1 C 71.7 85.9 70.7 85.8 69.6 85.7 C 67.9 85.2 66.7 82.9 68.1 81.3 Z" />
<path fill="#bba580" stroke="#bba580" stroke-width="0.09375" opacity="1.00" d=" M 69.6 85.7 C 70.7 85.8 71.7 85.9 72.7 86.1 C 72.9 88.1 68.9 87.6 69.6 85.7 Z" />
<path fill="#bf995b" stroke="#bf995b" stroke-width="0.09375" opacity="1.00" d=" M 57.8 96.1 C 63.2 96.1 68.7 96.1 74.2 96.1 C 69.0 97.9 63.0 97.9 57.8 96.1 Z" />
</svg>
