<?xml version="1.0" encoding="UTF-8" ?>
<!DOCTYPE svg PUBLIC "-//W3C//DTD SVG 1.1//EN" "http://www.w3.org/Graphics/SVG/1.1/DTD/svg11.dtd">
<svg width="128pt" height="128pt" viewBox="0 0 128 128" version="1.1" xmlns="http://www.w3.org/2000/svg">
<path fill="#2c3e50" stroke="#2c3e50" stroke-width="0.09375" opacity="1.00" d=" M 0.0 0.0 L 128.0 0.0 L 128.0 128.0 L 0.0 128.0 L 0.0 0.0 Z" />
<path fill="#ecf0f1" stroke="#ecf0f1" stroke-width="0.09375" opacity="1.00" d=" M 79.5 30.5 C 85.2 26.9 93.6 29.9 95.5 36.4 C 97.7 42.3 93.7 49.2 87.6 50.5 C 84.3 51.5 81.1 49.9 78.1 48.8 C 72.7 55.6 66.7 62.0 61.7 69.1 C 61.5 77.8 61.3 86.7 61.9 95.4 C 65.9 95.7 70.5 95.6 73.5 98.8 C 63.5 99.1 53.6 99.1 43.7 98.8 C 46.9 95.8 51.5 95.7 55.6 95.4 C 56.0 87.2 55.7 79.1 55.8 70.9 C 56.1 68.3 53.8 66.5 52.4 64.6 C 45.5 56.4 38.7 48.2 32.0 39.9 C 35.6 39.8 39.2 39.6 42.8 39.9 C 46.4 44.3 47.9 50.1 51.9 54.2 C 50.4 49.4 48.2 44.8 46.9 39.9 C 55.9 39.7 64.9 39.9 73.9 39.8 C 74.7 36.2 76.2 32.4 79.5 30.5 Z" />
<path fill="#2c3e50" stroke="#2c3e50" stroke-width="0.09375" opacity="1.00" d=" M 84.7 31.7 C 85.7 31.4 86.8 31.7 87.8 31.8 C 86.9 34.8 85.5 37.7 85.8 40.8 C 83.7 38.8 80.9 37.9 78.3 36.6 C 78.0 35.5 78.2 34.7 79.2 34.0 C 81.8 34.7 82.6 37.9 85.1 38.9 C 85.2 36.5 84.0 34.0 84.7 31.7 Z" />
<path fill="#2c3e50" stroke="#2c3e50" stroke-width="0.09375" opacity="1.00" d=" M 86.8 39.1 C 88.3 37.6 89.9 36.0 91.9 35.1 C 92.9 35.7 93.7 37.5 92.4 38.3 C 90.6 38.8 88.7 38.9 86.8 39.1 Z" />
<path fill="#2c3e50" stroke="#2c3e50" stroke-width="0.09375" opacity="1.00" d=" M 86.7 41.0 C 88.4 41.7 90.2 42.5 91.9 43.2 C 91.9 43.9 91.8 45.3 91.7 46.0 C 88.8 46.0 87.9 43.1 86.7 41.0 Z" />
<path fill="#425262" stroke="#425262" stroke-width="0.09375" opacity="1.00" d=" M 82.7 48.0 C 83.2 45.9 83.9 43.9 85.0 42.1 C 85.7 44.1 86.0 46.1 86.3 48.1 C 85.4 48.1 83.6 48.0 82.7 48.0 Z" />
</svg>
