<?xml version="1.0" encoding="UTF-8" ?>
<!DOCTYPE svg PUBLIC "-//W3C//DTD SVG 1.1//EN" "http://www.w3.org/Graphics/SVG/1.1/DTD/svg11.dtd">
<svg width="128pt" height="128pt" viewBox="0 0 128 128" version="1.1" xmlns="http://www.w3.org/2000/svg">
<path fill="#8e44ad" stroke="#8e44ad" stroke-width="0.09375" opacity="1.00" d=" M 0.0 0.0 L 128.0 0.0 L 128.0 128.0 L 0.0 128.0 L 0.0 0.0 Z" />
<path fill="#ecf0f1" stroke="#ecf0f1" stroke-width="0.09375" opacity="1.00" d=" M 48.4 49.4 C 49.1 46.9 51.5 45.2 54.0 45.1 C 60.0 44.7 66.0 45.1 72.0 44.9 C 75.0 45.0 78.7 44.7 80.6 47.4 C 83.3 51.7 82.8 57.2 85.3 61.6 C 89.5 63.6 94.6 64.4 97.8 68.2 C 99.8 70.2 99.2 73.5 97.1 75.1 C 92.8 78.9 87.0 80.3 81.5 81.5 C 68.3 83.8 54.6 83.6 41.6 80.3 C 37.4 79.1 32.8 77.6 30.0 74.0 C 28.4 72.1 28.9 69.2 30.7 67.6 C 34.5 63.8 40.1 62.9 45.0 61.1 C 46.3 57.2 47.1 53.2 48.4 49.4 Z" />
<path fill="#8e44ad" stroke="#8e44ad" stroke-width="0.09375" opacity="1.00" d=" M 43.9 64.7 C 52.7 68.6 62.4 71.0 72.0 69.0 C 76.9 68.4 81.2 65.6 86.1 64.7 C 86.2 67.5 85.3 70.4 82.6 71.5 C 75.0 75.2 66.2 75.2 58.0 74.6 C 53.3 74.1 48.2 73.7 44.3 70.7 C 42.3 69.2 42.9 66.6 43.9 64.7 Z" />
</svg>
