<?xml version="1.0" encoding="UTF-8" ?>
<!DOCTYPE svg PUBLIC "-//W3C//DTD SVG 1.1//EN" "http://www.w3.org/Graphics/SVG/1.1/DTD/svg11.dtd">
<svg width="128pt" height="128pt" viewBox="0 0 128 128" version="1.1" xmlns="http://www.w3.org/2000/svg">
<path fill="#2c3e50" stroke="#2c3e50" stroke-width="0.09375" opacity="1.00" d=" M 0.0 0.0 L 128.0 0.0 L 128.0 128.0 L 0.0 128.0 L 0.0 0.0 Z" />
<path fill="#ebeff0" stroke="#ebeff0" stroke-width="0.09375" opacity="1.00" d=" M 54.2 36.2 C 61.1 35.9 68.0 35.9 74.8 36.2 C 74.8 37.3 74.8 38.5 74.8 39.7 C 67.9 39.6 61.1 39.7 54.3 39.7 C 54.2 38.5 54.2 37.4 54.2 36.2 Z" />
<path fill="#ecf0f1" stroke="#ecf0f1" stroke-width="0.09375" opacity="1.00" d=" M 54.0 41.6 C 60.7 41.6 67.4 41.4 74.1 41.7 C 73.1 44.5 72.0 47.3 70.9 50.1 C 64.2 50.1 57.4 50.2 50.7 50.0 C 51.6 47.2 52.8 44.4 54.0 41.6 Z" />
<path fill="#ebeff0" stroke="#ebeff0" stroke-width="0.09375" opacity="1.00" d=" M 73.7 48.2 C 74.4 46.0 74.9 43.6 76.7 42.0 C 77.0 43.3 77.3 44.5 77.6 45.8 C 76.3 46.6 75.1 47.4 73.7 48.2 Z" />
<path fill="#ecf0f1" stroke="#ecf0f1" stroke-width="0.09375" opacity="1.00" d=" M 72.4 51.4 C 74.2 50.2 76.1 48.9 78.0 47.8 C 77.9 60.8 78.1 73.7 77.9 86.7 C 76.1 88.2 74.2 89.6 72.4 91.0 C 72.5 77.8 72.4 64.6 72.4 51.4 Z" />
<path fill="#ecf0f1" stroke="#ecf0f1" stroke-width="0.09375" opacity="1.00" d=" M 50.0 52.0 C 56.9 52.0 63.8 51.8 70.7 52.2 C 70.5 65.4 70.5 78.6 70.7 91.8 C 63.8 92.1 56.9 91.9 50.1 91.9 C 50.0 78.6 50.1 65.3 50.0 52.0 Z" />
<path fill="#2c3e50" stroke="#2c3e50" stroke-width="0.09375" opacity="1.00" d=" M 56.3 67.2 C 59.9 65.9 65.6 65.9 67.3 70.0 C 65.7 75.1 57.5 75.1 54.1 71.8 C 52.0 70.1 54.5 67.7 56.3 67.2 Z" />
</svg>
