<?xml version="1.0" encoding="UTF-8" ?>
<!DOCTYPE svg PUBLIC "-//W3C//DTD SVG 1.1//EN" "http://www.w3.org/Graphics/SVG/1.1/DTD/svg11.dtd">
<svg width="128pt" height="128pt" viewBox="0 0 128 128" version="1.1" xmlns="http://www.w3.org/2000/svg">
<path fill="#3598da" stroke="#3598da" stroke-width="0.09375" opacity="1.00" d=" M 0.0 0.0 L 128.0 0.0 L 128.0 128.0 L 0.0 128.0 L 0.0 0.0 Z" />
<path fill="#ebeff0" stroke="#ebeff0" stroke-width="0.09375" opacity="1.00" d=" M 42.8 58.2 C 51.7 51.2 60.0 43.5 69.5 37.3 C 72.8 41.7 76.2 46.1 79.2 50.7 C 74.2 51.5 70.7 48.1 68.1 44.1 C 61.3 49.3 54.7 54.7 48.1 60.1 C 49.5 65.0 50.7 70.0 52.6 74.7 C 53.9 78.4 57.5 80.1 59.5 83.2 C 60.9 85.7 62.0 88.3 63.2 90.9 C 55.8 90.9 48.4 91.0 40.9 90.9 C 42.0 86.1 44.4 81.8 47.0 77.7 C 46.9 71.0 44.2 64.7 42.8 58.2 Z" />
<path fill="#ecf0f1" stroke="#ecf0f1" stroke-width="0.09375" opacity="1.00" d=" M 71.1 53.5 C 75.3 52.3 79.5 50.7 83.6 49.2 C 86.5 53.3 89.6 57.2 92.4 61.3 C 85.2 63.5 78.3 66.2 71.1 68.4 C 71.1 64.7 71.1 57.2 71.1 53.5 Z" />
<path fill="#3598db" stroke="#3598db" stroke-width="0.09375" opacity="1.00" d=" M 50.4 82.5 C 51.5 83.5 52.5 84.5 53.5 85.6 C 52.6 85.7 50.8 86.0 49.9 86.1 C 50.0 85.2 50.3 83.4 50.4 82.5 Z" />
</svg>
