<?xml version="1.0" encoding="UTF-8" ?>
<!DOCTYPE svg PUBLIC "-//W3C//DTD SVG 1.1//EN" "http://www.w3.org/Graphics/SVG/1.1/DTD/svg11.dtd">
<svg width="128pt" height="128pt" viewBox="0 0 128 128" version="1.1" xmlns="http://www.w3.org/2000/svg">
<path fill="#bf392a" stroke="#bf392a" stroke-width="0.09375" opacity="1.00" d=" M 0.0 0.0 L 128.0 0.0 L 128.0 128.0 L 0.0 128.0 L 0.0 0.0 Z" />
<path fill="#eceff0" stroke="#eceff0" stroke-width="0.09375" opacity="1.00" d=" M 32.1 27.0 C 53.2 27.0 74.4 27.0 95.6 27.0 C 97.4 38.0 97.5 49.4 95.6 60.5 C 95.4 62.4 94.7 64.4 95.4 66.3 C 98.2 76.6 100.0 87.2 99.5 98.0 C 75.5 98.0 51.6 98.0 27.6 98.0 C 26.1 86.4 29.4 75.2 32.2 64.1 C 31.6 51.8 29.9 39.2 32.1 27.0 Z" />
<path fill="#bf382a" stroke="#bf382a" stroke-width="0.09375" opacity="1.00" d=" M 37.0 33.0 C 55.0 33.0 73.0 33.0 91.0 33.0 C 91.0 41.2 91.0 49.4 91.0 57.6 C 73.0 56.7 55.0 56.7 37.0 57.4 C 37.0 49.3 37.0 41.1 37.0 33.0 Z" />
<path fill="#c0392b" stroke="#c0392b" stroke-width="0.09375" opacity="1.00" d=" M 34.2 68.0 C 53.7 68.0 73.3 68.0 92.9 68.0 C 94.2 76.0 95.6 83.9 97.1 91.9 C 74.7 92.2 52.4 93.4 30.1 91.9 C 31.6 84.0 32.9 76.0 34.2 68.0 Z" />
<path fill="#ebeff0" stroke="#ebeff0" stroke-width="0.09375" opacity="1.00" d=" M 39.6 69.0 C 55.6 69.0 71.5 68.9 87.5 69.2 C 88.3 74.1 89.0 79.1 89.9 84.0 C 72.2 83.9 54.5 84.4 36.9 83.5 C 37.7 78.6 38.4 73.7 39.6 69.0 Z" />
<path fill="#ecf0f1" stroke="#ecf0f1" stroke-width="0.09375" opacity="1.00" d=" M 55.1 85.0 C 55.8 85.1 57.4 85.1 58.1 85.1 C 57.7 86.4 57.3 87.6 56.9 88.9 C 61.3 88.9 65.7 89.0 70.2 89.0 C 69.7 87.7 69.2 86.4 68.8 85.1 C 69.8 85.1 71.8 85.1 72.8 85.1 C 72.7 87.4 72.6 89.7 71.9 91.9 C 65.9 92.1 59.8 91.9 53.8 91.5 C 54.2 89.4 54.7 87.2 55.1 85.0 Z" />
</svg>
