<?xml version="1.0" encoding="UTF-8" ?>
<!DOCTYPE svg PUBLIC "-//W3C//DTD SVG 1.1//EN" "http://www.w3.org/Graphics/SVG/1.1/DTD/svg11.dtd">
<svg width="128pt" height="128pt" viewBox="0 0 128 128" version="1.1" xmlns="http://www.w3.org/2000/svg">
<path fill="#1abc9c" stroke="#1abc9c" stroke-width="0.09375" opacity="1.00" d=" M 0.0 0.0 L 128.0 0.0 L 128.0 128.0 L 0.0 128.0 L 0.0 0.0 Z" />
<path fill="#ecf0f1" stroke="#ecf0f1" stroke-width="0.09375" opacity="1.00" d=" M 50.6 37.7 C 52.8 36.7 55.1 38.3 57.3 38.6 C 60.5 39.1 63.8 38.8 67.0 38.9 C 69.7 38.9 72.1 37.4 74.7 37.3 C 78.0 38.4 80.4 41.1 83.7 42.3 C 88.3 44.3 91.9 48.8 91.9 53.9 C 87.3 53.5 82.7 53.0 78.4 51.5 C 78.4 53.8 78.5 56.2 78.5 58.5 C 81.4 60.7 85.2 62.9 85.3 67.0 C 85.4 73.0 80.1 76.9 75.6 79.7 C 72.1 82.1 73.9 86.7 74.1 90.2 C 70.3 91.9 66.3 89.5 63.6 87.0 C 65.5 84.1 69.0 82.3 70.1 78.9 C 69.7 75.9 69.0 72.9 67.8 70.2 C 65.2 68.6 61.6 69.0 58.8 69.8 C 57.2 73.3 55.0 77.9 57.5 81.5 C 59.2 83.6 62.2 84.8 62.4 87.9 C 59.3 89.4 56.1 91.4 52.5 90.6 C 52.3 87.4 53.4 84.0 52.1 81.0 C 50.2 78.8 47.3 77.8 45.3 75.7 C 42.6 73.1 40.3 69.3 41.4 65.4 C 42.1 62.1 45.3 60.6 47.7 58.6 C 47.8 56.2 47.8 53.9 47.9 51.5 C 43.7 53.1 39.1 53.4 34.6 54.2 C 34.1 49.0 38.0 44.5 42.4 42.5 C 45.3 41.2 47.8 39.1 50.6 37.7 Z" />
</svg>
