<?xml version="1.0" encoding="UTF-8" ?>
<!DOCTYPE svg PUBLIC "-//W3C//DTD SVG 1.1//EN" "http://www.w3.org/Graphics/SVG/1.1/DTD/svg11.dtd">
<svg width="128pt" height="128pt" viewBox="0 0 128 128" version="1.1" xmlns="http://www.w3.org/2000/svg">
<path fill="#bf382a" stroke="#bf382a" stroke-width="0.09375" opacity="1.00" d=" M 0.0 0.0 L 128.0 0.0 L 128.0 128.0 L 0.0 128.0 L 0.0 0.0 Z" />
<path fill="#dadbdc" stroke="#dadbdc" stroke-width="0.09375" opacity="1.00" d=" M 23.9 30.1 C 34.7 27.3 46.0 28.0 57.0 27.9 C 72.3 28.1 87.7 27.6 103.0 28.1 C 106.6 28.3 109.1 32.6 107.9 36.0 C 108.4 57.9 107.8 79.9 108.1 101.9 C 97.3 104.7 86.0 104.0 75.0 104.1 C 59.7 103.9 44.3 104.4 29.0 103.9 C 25.4 103.7 22.9 99.4 24.1 96.0 C 23.6 74.1 24.2 52.1 23.9 30.1 Z" />
<path fill="#bf382a" stroke="#bf382a" stroke-width="0.09375" opacity="1.00" d=" M 60.0 46.0 C 64.0 46.0 68.0 46.0 72.0 46.0 C 72.0 50.7 72.0 55.3 72.0 60.0 C 75.8 60.0 83.3 60.0 87.0 60.0 C 87.0 62.7 87.0 68.3 87.0 71.0 C 83.2 71.0 75.7 71.0 72.0 71.0 C 72.0 74.7 72.0 82.2 72.0 86.0 C 68.0 86.0 64.0 86.0 60.0 86.0 C 60.0 82.2 60.0 74.7 60.0 71.0 C 56.3 71.0 48.8 71.0 45.0 71.0 C 45.0 68.3 45.0 62.7 45.0 60.0 C 48.8 60.0 56.3 60.0 60.0 60.0 C 60.0 55.3 60.0 50.7 60.0 46.0 Z" />
</svg>
