<?xml version="1.0" encoding="UTF-8" ?>
<!DOCTYPE svg PUBLIC "-//W3C//DTD SVG 1.1//EN" "http://www.w3.org/Graphics/SVG/1.1/DTD/svg11.dtd">
<svg width="128pt" height="128pt" viewBox="0 0 128 128" version="1.1" xmlns="http://www.w3.org/2000/svg">
<path fill="#2c3e50" stroke="#2c3e50" stroke-width="0.09375" opacity="1.00" d=" M 0.0 0.0 L 128.0 0.0 L 128.0 128.0 L 0.0 128.0 L 0.0 0.0 Z" />
<path fill="#ecf0f1" stroke="#ecf0f1" stroke-width="0.09375" opacity="1.00" d=" M 31.1 38.1 C 52.5 38.0 73.9 37.8 95.2 38.2 C 95.5 53.2 95.4 68.2 95.2 83.2 C 87.3 83.6 79.3 83.2 71.3 83.4 C 71.3 84.5 71.2 85.7 71.2 86.8 C 72.9 87.2 74.7 87.6 76.4 88.0 C 76.1 89.3 75.3 90.0 74.0 89.9 C 66.3 90.1 58.6 90.1 50.9 89.8 C 51.0 89.3 51.2 88.2 51.2 87.7 C 52.7 87.4 54.2 87.1 55.6 86.8 C 55.5 85.6 55.5 84.5 55.5 83.4 C 47.3 83.2 39.2 83.6 31.0 83.2 C 31.0 68.2 30.9 53.2 31.1 38.1 Z" />
<path fill="#2c3e50" stroke="#2c3e50" stroke-width="0.09375" opacity="1.00" d=" M 35.0 41.9 C 39.0 41.1 43.0 41.5 47.0 41.5 C 60.0 41.4 73.0 41.5 86.0 41.4 C 87.7 41.4 89.3 41.7 91.0 42.0 C 90.9 53.5 91.3 65.1 90.8 76.7 C 72.3 76.9 53.7 76.9 35.2 76.7 C 34.7 65.1 35.1 53.5 35.0 41.9 Z" />
</svg>
