<?xml version="1.0" encoding="UTF-8" ?>
<!DOCTYPE svg PUBLIC "-//W3C//DTD SVG 1.1//EN" "http://www.w3.org/Graphics/SVG/1.1/DTD/svg11.dtd">
<svg width="128pt" height="128pt" viewBox="0 0 128 128" version="1.1" xmlns="http://www.w3.org/2000/svg">
<path fill="#8e44ad" stroke="#8e44ad" stroke-width="0.09375" opacity="1.00" d=" M 0.0 0.0 L 128.0 0.0 L 128.0 128.0 L 0.0 128.0 L 0.0 0.0 Z" />
<path fill="#8f6ca0" stroke="#8f6ca0" stroke-width="0.09375" opacity="1.00" d=" M 31.4 46.3 C 37.5 45.2 43.8 45.9 50.0 45.7 C 60.0 45.9 70.0 45.3 80.0 46.1 C 80.0 50.0 80.1 54.0 80.2 58.0 C 82.9 58.0 85.6 58.0 88.3 58.1 C 87.4 54.1 86.6 50.2 85.8 46.3 C 86.2 46.2 87.1 46.2 87.5 46.1 C 88.2 50.1 89.0 54.2 90.1 58.1 C 93.5 58.3 97.0 58.1 100.4 57.5 L 101.2 57.3 C 101.1 58.0 100.9 59.3 100.9 60.0 C 97.4 59.9 93.9 59.8 90.3 59.8 C 89.9 59.8 89.1 59.8 88.6 59.8 C 86.0 59.8 83.4 59.9 80.8 60.0 C 80.6 67.3 80.6 74.7 80.8 82.0 C 80.3 82.0 79.5 82.0 79.0 82.0 C 79.0 78.6 79.0 75.3 79.0 71.9 C 66.3 71.8 53.7 71.9 41.0 71.8 C 36.6 71.7 32.1 71.7 27.7 72.5 L 26.9 72.6 C 27.0 72.0 27.1 70.7 27.2 70.1 C 44.5 70.2 61.7 70.1 79.0 70.1 C 79.0 69.3 79.0 67.8 79.0 67.0 C 65.0 67.0 51.1 67.1 37.1 66.9 C 37.1 64.6 37.1 62.2 37.0 59.9 C 33.7 59.9 30.4 59.9 27.1 59.9 C 27.3 59.4 27.6 58.5 27.8 58.0 C 30.5 58.1 33.1 58.4 35.7 57.9 C 37.8 56.7 39.2 54.0 42.0 54.3 C 54.2 54.2 66.5 54.5 78.8 54.2 C 78.5 51.8 78.2 49.3 77.9 46.8 C 62.7 46.3 47.5 47.1 32.4 46.4 L 31.4 46.3 Z" />
<path fill="#ecf0f1" stroke="#ecf0f1" stroke-width="0.09375" opacity="1.00" d=" M 80.0 46.1 C 81.9 46.1 83.8 46.2 85.8 46.3 C 86.6 50.2 87.4 54.1 88.3 58.1 C 85.6 58.0 82.9 58.0 80.2 58.0 C 80.1 54.0 80.0 50.0 80.0 46.1 Z" />
<path fill="#ecf0f1" stroke="#ecf0f1" stroke-width="0.09375" opacity="1.00" d=" M 87.5 46.1 C 90.3 46.2 93.0 46.3 95.8 46.4 C 97.2 50.1 98.7 53.8 100.4 57.5 C 97.0 58.1 93.5 58.3 90.1 58.1 C 89.0 54.2 88.2 50.1 87.5 46.1 Z" />
<path fill="#ecf0f1" stroke="#ecf0f1" stroke-width="0.09375" opacity="1.00" d=" M 32.4 46.4 C 47.5 47.1 62.7 46.3 77.9 46.8 C 78.2 49.3 78.5 51.8 78.8 54.2 C 66.5 54.5 54.2 54.2 42.0 54.3 C 39.2 54.0 37.8 56.7 35.7 57.9 C 33.1 58.4 30.5 58.1 27.8 58.0 C 29.3 54.1 30.8 50.3 32.4 46.4 Z" />
<path fill="#ecf0f1" stroke="#ecf0f1" stroke-width="0.09375" opacity="1.00" d=" M 38.9 56.0 C 52.3 56.0 65.7 56.0 79.0 56.0 C 79.0 59.3 79.0 62.5 78.9 65.8 C 65.6 65.6 52.3 65.7 38.9 65.8 C 38.7 62.5 38.7 59.3 38.9 56.0 Z" />
<path fill="#9784a3" stroke="#9784a3" stroke-width="0.09375" opacity="1.00" d=" M 44.1 58.2 C 54.4 57.8 64.7 58.0 75.0 58.0 C 75.0 58.5 75.0 59.5 75.0 60.0 C 64.7 60.0 54.4 60.3 44.1 59.8 C 44.1 59.4 44.1 58.6 44.1 58.2 Z" />
<path fill="#ecf0f1" stroke="#ecf0f1" stroke-width="0.09375" opacity="1.00" d=" M 27.1 59.9 C 30.4 59.9 33.7 59.9 37.0 59.9 C 37.1 62.2 37.1 64.6 37.1 66.9 C 51.1 67.1 65.0 67.0 79.0 67.0 C 79.0 67.8 79.0 69.3 79.0 70.1 C 61.7 70.1 44.5 70.2 27.2 70.1 C 27.4 66.7 27.3 63.3 27.1 59.9 Z" />
<path fill="#ecf0f1" stroke="#ecf0f1" stroke-width="0.09375" opacity="1.00" d=" M 80.8 60.0 C 83.4 59.9 86.0 59.8 88.6 59.8 C 89.1 67.1 88.8 74.5 88.9 81.9 C 86.2 81.9 83.5 82.0 80.8 82.0 C 80.6 74.7 80.6 67.3 80.8 60.0 Z" />
<path fill="#ecf0f1" stroke="#ecf0f1" stroke-width="0.09375" opacity="1.00" d=" M 90.3 59.8 C 93.9 59.8 97.4 59.9 100.9 60.0 C 100.7 63.4 100.6 66.7 100.8 70.1 C 97.2 70.3 93.6 70.4 90.1 70.2 C 90.1 66.7 90.2 63.3 90.3 59.8 Z" />
<path fill="#8f6ca0" stroke="#8f6ca0" stroke-width="0.09375" opacity="1.00" d=" M 40.2 61.2 C 42.5 61.2 44.8 62.0 47.2 61.9 C 51.8 61.8 56.4 63.1 61.0 61.8 C 63.2 61.3 64.5 63.3 65.4 64.9 C 57.0 65.1 48.5 64.5 40.0 64.9 C 40.1 63.7 40.1 62.4 40.2 61.2 Z" />
<path fill="#ecf0f1" stroke="#ecf0f1" stroke-width="0.09375" opacity="1.00" d=" M 27.7 72.5 C 32.1 71.7 36.6 71.7 41.0 71.8 C 53.7 71.9 66.3 71.8 79.0 71.9 C 79.0 75.3 79.0 78.6 79.0 82.0 C 63.1 81.8 47.1 82.1 31.2 81.9 C 30.2 78.7 29.0 75.5 27.7 72.5 Z" />
<path fill="#ecf0f1" stroke="#ecf0f1" stroke-width="0.09375" opacity="1.00" d=" M 90.1 71.8 C 93.5 71.7 96.9 71.7 100.2 71.8 C 99.3 75.3 98.2 78.6 97.1 82.0 C 94.8 81.9 92.4 81.9 90.1 81.9 C 90.2 78.5 90.1 75.2 90.1 71.8 Z" />
<path fill="#977da4" stroke="#977da4" stroke-width="0.09375" opacity="1.00" d=" M 35.6 77.3 C 38.2 74.4 42.4 74.2 45.1 77.0 C 44.9 77.6 44.6 78.9 44.4 79.6 C 42.4 79.7 40.3 80.4 38.3 79.9 C 37.3 79.1 36.5 78.2 35.6 77.3 Z" />
<path fill="#957ba3" stroke="#957ba3" stroke-width="0.09375" opacity="1.00" d=" M 45.5 77.0 C 47.9 75.1 52.7 73.4 54.3 77.1 C 54.4 80.8 49.9 80.5 47.4 79.7 C 46.7 78.9 46.1 78.0 45.5 77.0 Z" />
<path fill="#ecf0f1" stroke="#ecf0f1" stroke-width="0.09375" opacity="1.00" d=" M 38.6 77.4 C 39.6 76.5 41.4 76.5 42.4 77.4 C 42.3 78.9 38.7 78.9 38.6 77.4 Z" />
<path fill="#ecf0f1" stroke="#ecf0f1" stroke-width="0.09375" opacity="1.00" d=" M 48.6 77.4 C 49.6 76.5 51.4 76.5 52.4 77.3 C 52.3 78.8 48.7 78.9 48.6 77.4 Z" />
</svg>
