<?xml version="1.0" encoding="UTF-8" ?>
<!DOCTYPE svg PUBLIC "-//W3C//DTD SVG 1.1//EN" "http://www.w3.org/Graphics/SVG/1.1/DTD/svg11.dtd">
<svg width="128pt" height="128pt" viewBox="0 0 128 128" version="1.1" xmlns="http://www.w3.org/2000/svg">
<path fill="#7f8b8c" stroke="#7f8b8c" stroke-width="0.09375" opacity="1.00" d=" M 0.0 0.0 L 128.0 0.0 L 128.0 128.0 L 0.0 128.0 L 0.0 0.0 Z" />
<path fill="#eceff0" stroke="#eceff0" stroke-width="0.09375" opacity="1.00" d=" M 39.0 35.0 C 57.3 35.4 75.8 33.8 94.0 36.1 C 93.3 56.7 95.6 77.6 92.8 98.1 C 74.9 98.0 57.0 98.0 39.0 98.0 C 39.0 95.4 39.0 92.8 38.9 90.2 C 36.3 89.9 33.6 89.7 31.0 89.4 C 31.0 86.6 31.0 83.8 31.0 81.0 C 33.7 81.0 36.3 81.0 39.0 81.0 C 39.0 80.3 38.9 78.9 38.9 78.2 C 36.3 77.8 33.7 77.5 31.1 77.1 C 31.0 74.4 31.0 71.6 31.0 68.8 C 33.6 68.5 36.3 68.2 39.0 67.8 C 39.0 67.2 39.0 65.9 39.0 65.2 C 36.3 64.9 33.6 64.7 31.0 64.4 C 31.0 61.6 31.0 58.8 31.0 56.0 C 33.7 56.0 36.3 56.0 39.0 56.0 C 39.0 55.3 38.9 53.9 38.9 53.2 C 36.3 52.8 33.7 52.5 31.1 52.1 C 31.0 49.4 31.0 46.6 31.0 43.8 C 33.6 43.5 36.3 43.2 38.9 42.8 C 39.0 40.2 39.0 37.6 39.0 35.0 Z" />
<path fill="#7f8b8c" stroke="#7f8b8c" stroke-width="0.09375" opacity="1.00" d=" M 43.7 40.2 C 46.4 40.1 49.0 40.0 51.6 39.9 C 50.7 57.6 50.7 75.3 51.5 93.0 C 49.0 93.0 46.5 93.0 44.0 93.0 C 46.1 89.5 47.5 85.7 48.8 81.8 C 47.2 81.4 45.7 81.1 44.1 80.7 C 45.8 77.7 47.4 74.6 48.0 71.1 C 47.2 69.5 45.9 68.1 44.8 66.6 C 46.4 63.5 47.6 60.1 48.8 56.8 C 47.2 56.4 45.7 56.1 44.1 55.7 C 45.8 52.7 47.4 49.6 47.9 46.1 C 46.9 43.9 45.2 42.2 43.7 40.2 Z" />
</svg>
