<?xml version="1.0" encoding="UTF-8" ?>
<!DOCTYPE svg PUBLIC "-//W3C//DTD SVG 1.1//EN" "http://www.w3.org/Graphics/SVG/1.1/DTD/svg11.dtd">
<svg width="128pt" height="128pt" viewBox="0 0 128 128" version="1.1" xmlns="http://www.w3.org/2000/svg">
<path fill="#ecf0f1" stroke="#ecf0f1" stroke-width="0.09375" opacity="1.00" d=" M 0.0 0.0 L 0.0 0.0 C 0.0 0.0 0.0 0.1 0.0 0.1 L 0.0 0.0 Z" />
<path fill="#c0392b" stroke="#c0392b" stroke-width="0.09375" opacity="1.00" d=" M 0.0 0.0 L 128.0 0.0 L 128.0 128.0 L 0.0 128.0 L 0.0 0.1 C 0.0 0.1 0.0 0.0 0.0 0.0 Z" />
<path fill="#ecf0f1" stroke="#ecf0f1" stroke-width="0.09375" opacity="1.00" d=" M 23.3 51.3 C 24.0 49.9 25.4 49.0 27.0 49.3 C 38.0 49.3 49.0 49.3 60.0 49.3 C 61.3 49.5 63.1 48.9 64.1 50.0 C 64.3 52.3 61.3 51.0 60.0 51.4 C 47.8 51.3 35.5 51.4 23.3 51.3 Z" />
<path fill="#ecf0f1" stroke="#ecf0f1" stroke-width="0.09375" opacity="1.00" d=" M 64.8 49.3 C 77.2 49.3 89.6 49.3 101.9 49.3 C 103.5 49.0 104.7 50.0 105.4 51.3 C 91.9 51.4 78.3 51.3 64.8 51.3 C 64.8 50.8 64.8 49.8 64.8 49.3 Z" />
<path fill="#ecf0f1" stroke="#ecf0f1" stroke-width="0.09375" opacity="1.00" d=" M 23.4 52.7 C 36.9 52.8 50.4 52.5 63.9 52.9 C 63.7 55.2 63.6 57.5 63.7 59.9 C 50.3 59.8 36.9 59.7 23.5 59.9 C 23.5 57.5 23.5 55.1 23.4 52.7 Z" />
<path fill="#ecf0f1" stroke="#ecf0f1" stroke-width="0.09375" opacity="1.00" d=" M 64.8 52.7 C 78.2 52.7 91.6 52.7 105.0 52.7 C 105.0 58.9 105.0 65.0 105.0 71.2 C 91.6 71.2 78.2 71.1 64.8 71.2 C 64.8 65.0 64.8 58.9 64.8 52.7 Z" />
<path fill="#c0392b" stroke="#c0392b" stroke-width="0.09375" opacity="1.00" d=" M 93.3 58.4 C 94.2 57.0 95.2 57.0 96.3 58.4 C 95.4 59.5 94.4 59.5 93.3 58.4 Z" />
<path fill="#c0392b" stroke="#c0392b" stroke-width="0.09375" opacity="1.00" d=" M 92.3 58.4 C 93.8 59.0 92.3 62.3 90.8 61.8 C 90.3 60.6 91.1 58.9 92.3 58.4 Z" />
<path fill="#c0392b" stroke="#c0392b" stroke-width="0.09375" opacity="1.00" d=" M 95.9 60.3 C 96.5 59.5 97.1 59.4 97.9 59.8 C 98.3 60.5 98.3 62.6 97.2 62.5 C 96.9 62.0 96.2 60.9 95.9 60.3 Z" />
<path fill="#ecf0f1" stroke="#ecf0f1" stroke-width="0.09375" opacity="1.00" d=" M 25.9 62.2 C 26.2 60.1 28.6 61.2 30.0 60.9 C 39.3 61.0 48.6 60.7 57.8 61.0 C 58.2 61.3 58.9 61.8 59.3 62.1 C 48.2 62.4 37.0 62.3 25.9 62.2 Z" />
<path fill="#ecf0f1" stroke="#ecf0f1" stroke-width="0.09375" opacity="1.00" d=" M 62.1 63.5 C 61.9 62.7 61.5 61.1 61.4 60.3 C 61.8 61.8 62.3 63.2 63.6 64.2 C 63.9 66.5 63.7 68.9 63.7 71.2 C 50.3 71.2 36.9 71.1 23.5 71.2 C 23.5 68.7 23.5 66.1 23.4 63.5 C 36.3 63.8 49.2 63.8 62.1 63.5 Z" />
<path fill="#c0392b" stroke="#c0392b" stroke-width="0.09375" opacity="1.00" d=" M 90.4 62.6 C 92.0 62.4 93.3 61.6 94.4 60.4 C 95.2 61.4 96.1 62.1 97.2 62.5 C 96.0 65.9 92.2 64.8 90.4 62.6 Z" />
<path fill="#ecf0f1" stroke="#ecf0f1" stroke-width="0.09375" opacity="1.00" d=" M 23.1 72.7 C 31.7 72.0 40.4 72.8 49.0 72.4 C 53.8 72.7 58.6 72.2 63.4 72.6 C 63.7 73.0 64.3 73.8 64.6 74.2 C 53.1 75.1 41.5 74.3 30.0 74.6 C 27.6 74.5 24.5 75.3 23.1 72.7 Z" />
<path fill="#ecf0f1" stroke="#ecf0f1" stroke-width="0.09375" opacity="1.00" d=" M 65.0 72.4 C 69.3 73.2 73.7 71.2 77.8 72.4 C 80.6 72.5 83.4 72.5 86.1 72.4 C 87.6 71.8 89.2 72.0 90.8 72.2 C 95.7 72.9 100.6 72.0 105.5 72.7 C 103.8 75.4 100.6 74.5 98.0 74.6 C 87.0 74.6 76.0 74.5 65.0 74.7 C 65.0 74.1 65.0 73.0 65.0 72.4 Z" />
</svg>
