<?xml version="1.0" encoding="UTF-8" ?>
<!DOCTYPE svg PUBLIC "-//W3C//DTD SVG 1.1//EN" "http://www.w3.org/Graphics/SVG/1.1/DTD/svg11.dtd">
<svg width="128pt" height="128pt" viewBox="0 0 128 128" version="1.1" xmlns="http://www.w3.org/2000/svg">
<path fill="#354b5e" stroke="#354b5e" stroke-width="0.09375" opacity="1.00" d=" M 0.0 0.0 L 128.0 0.0 L 128.0 128.0 L 0.0 128.0 L 0.0 0.0 Z" />
<path fill="#ffffff" stroke="#ffffff" stroke-width="0.09375" opacity="1.00" d=" M 31.8 33.1 C 53.3 33.1 74.7 33.1 96.2 33.1 C 96.3 35.8 96.3 38.5 96.2 41.2 C 74.7 41.3 53.3 41.3 31.8 41.2 C 31.8 38.5 31.8 35.8 31.8 33.1 Z" />
<path fill="#ffffff" stroke="#ffffff" stroke-width="0.09375" opacity="1.00" d=" M 31.6 44.4 C 32.8 43.4 34.5 44.0 36.0 43.8 C 56.0 43.8 76.1 43.8 96.1 43.8 C 98.6 50.2 99.1 57.2 99.0 64.0 C 98.9 74.3 99.1 84.6 98.9 94.9 C 89.1 94.8 79.2 95.0 69.3 94.8 C 67.7 85.2 65.7 75.6 64.2 66.0 C 61.9 75.5 60.7 85.2 58.8 94.8 C 48.9 95.0 39.0 94.8 29.1 94.9 C 29.1 85.3 29.2 75.6 29.0 66.0 C 28.8 58.8 29.4 51.4 31.6 44.4 Z" />
</svg>
