<?xml version="1.0" encoding="UTF-8" ?>
<!DOCTYPE svg PUBLIC "-//W3C//DTD SVG 1.1//EN" "http://www.w3.org/Graphics/SVG/1.1/DTD/svg11.dtd">
<svg width="128pt" height="128pt" viewBox="0 0 128 128" version="1.1" xmlns="http://www.w3.org/2000/svg">
<path fill="#c0392b" stroke="#c0392b" stroke-width="0.09375" opacity="1.00" d=" M 0.0 0.0 L 128.0 0.0 L 128.0 128.0 L 0.0 128.0 L 0.0 0.0 Z" />
<path fill="#ecf0f1" stroke="#ecf0f1" stroke-width="0.09375" opacity="1.00" d=" M 34.3 39.3 C 35.4 37.1 37.3 34.8 40.0 35.1 C 55.0 35.0 70.0 35.1 85.1 35.0 C 82.4 38.4 80.4 42.4 79.7 46.7 C 79.3 48.7 79.0 50.8 79.0 52.9 C 78.9 67.3 79.1 81.6 79.0 96.0 C 63.0 95.9 47.0 96.0 31.1 95.9 C 31.0 83.3 31.1 70.6 31.0 58.0 C 31.0 51.7 31.5 45.1 34.3 39.3 Z" />
<path fill="#ecf0f1" stroke="#ecf0f1" stroke-width="0.09375" opacity="1.00" d=" M 85.7 36.7 C 87.1 34.9 90.1 34.6 91.7 36.4 C 96.0 40.7 96.9 47.1 97.0 53.0 C 97.1 59.3 96.5 66.3 92.4 71.4 C 91.1 73.5 87.7 74.2 86.0 72.2 C 80.9 66.0 80.4 57.8 80.8 50.2 C 81.3 45.4 82.4 40.4 85.7 36.7 Z" />
<path fill="#ad5a51" stroke="#ad5a51" stroke-width="0.09375" opacity="1.00" d=" M 79.0 52.9 C 79.0 50.8 79.3 48.7 79.7 46.7 C 80.1 47.8 80.5 49.0 80.8 50.2 C 80.4 57.8 80.9 66.0 86.0 72.2 L 85.3 72.3 L 84.4 72.5 C 83.4 70.9 82.4 69.4 81.4 67.8 C 81.1 67.1 80.7 66.5 80.3 65.8 C 80.2 68.5 80.1 71.2 80.1 73.9 C 79.8 81.2 80.1 88.6 79.9 95.9 L 79.0 96.0 C 79.1 81.6 78.9 67.3 79.0 52.9 Z" />
<path fill="#c0392b" stroke="#c0392b" stroke-width="0.09375" opacity="1.00" d=" M 88.3 49.2 C 88.9 49.2 90.2 49.1 90.8 49.1 C 92.6 52.5 92.5 56.5 90.7 59.9 C 85.7 59.3 87.0 52.6 88.3 49.2 Z" />
<path fill="#a98b88" stroke="#a98b88" stroke-width="0.09375" opacity="1.00" d=" M 80.3 65.8 C 80.7 66.5 81.1 67.1 81.4 67.8 C 81.2 69.5 81.0 71.3 80.8 73.1 C 82.0 72.9 83.2 72.7 84.4 72.5 L 85.3 72.3 C 85.1 75.0 81.9 73.6 80.1 73.9 C 80.1 71.2 80.2 68.5 80.3 65.8 Z" />
<path fill="#e5e7e8" stroke="#e5e7e8" stroke-width="0.09375" opacity="1.00" d=" M 80.8 73.1 C 81.0 71.3 81.2 69.5 81.4 67.8 C 82.4 69.4 83.4 70.9 84.4 72.5 C 83.2 72.7 82.0 72.9 80.8 73.1 Z" />
</svg>
