<?xml version="1.0" encoding="UTF-8" ?>
<!DOCTYPE svg PUBLIC "-//W3C//DTD SVG 1.1//EN" "http://www.w3.org/Graphics/SVG/1.1/DTD/svg11.dtd">
<svg width="128pt" height="128pt" viewBox="0 0 128 128" version="1.1" xmlns="http://www.w3.org/2000/svg">
<path fill="#7f8c8d" stroke="#7f8c8d" stroke-width="0.09375" opacity="1.00" d=" M 0.0 0.0 L 128.0 0.0 L 128.0 128.0 L 0.0 128.0 L 0.0 0.0 Z" />
<path fill="#ebeff0" stroke="#ebeff0" stroke-width="0.09375" opacity="1.00" d=" M 39.6 41.6 C 40.6 39.4 42.5 37.9 45.0 38.1 C 58.3 37.9 71.7 38.2 85.0 38.0 C 87.6 38.1 90.4 37.8 92.7 39.2 C 94.3 40.7 93.8 43.0 94.0 44.9 C 93.9 54.3 93.9 63.7 94.0 73.1 C 93.9 75.1 94.1 77.3 93.2 79.2 C 90.4 80.9 87.0 80.2 84.0 80.4 C 74.5 80.1 64.9 80.7 55.4 80.0 C 55.4 77.7 55.4 75.5 55.4 73.2 C 67.0 72.7 78.6 73.2 90.2 72.9 C 90.5 62.6 90.5 52.2 90.2 41.8 C 73.4 41.4 56.5 41.9 39.6 41.6 Z" />
<path fill="#ecf0f1" stroke="#ecf0f1" stroke-width="0.09375" opacity="1.00" d=" M 32.0 51.9 C 31.9 49.7 32.4 46.5 35.2 46.2 C 40.4 45.9 45.9 45.2 50.8 47.1 C 51.3 58.1 50.9 69.0 51.1 80.0 C 51.0 84.6 51.4 89.2 50.8 93.7 C 50.5 95.4 48.4 95.8 47.0 95.9 C 42.8 96.1 38.5 96.4 34.5 95.5 C 32.1 94.9 32.1 92.0 32.0 90.1 C 32.1 77.4 32.1 64.6 32.0 51.9 Z" />
<path fill="#7f8c8d" stroke="#7f8c8d" stroke-width="0.09375" opacity="1.00" d=" M 35.9 49.3 C 39.9 49.2 43.8 49.2 47.7 49.4 C 47.8 50.8 47.8 52.2 47.9 53.7 C 43.9 53.9 39.9 53.9 35.9 53.7 C 35.8 52.3 35.8 50.8 35.9 49.3 Z" />
<path fill="#828d8e" stroke="#828d8e" stroke-width="0.09375" opacity="1.00" d=" M 35.9 57.1 C 39.9 56.9 43.9 56.9 47.9 57.2 C 47.9 58.5 47.9 59.9 48.0 61.2 C 43.9 61.7 39.8 61.6 35.7 61.3 C 35.8 59.9 35.9 58.5 35.9 57.1 Z" />
<path fill="#859091" stroke="#859091" stroke-width="0.09375" opacity="1.00" d=" M 64.8 74.9 C 66.3 75.0 67.7 75.0 69.1 75.0 C 69.1 76.9 68.6 79.5 66.1 79.1 C 64.9 78.0 65.1 76.4 64.8 74.9 Z" />
<path fill="#8c9596" stroke="#8c9596" stroke-width="0.09375" opacity="1.00" d=" M 35.9 81.1 C 36.9 80.8 37.9 80.4 38.9 80.0 C 39.4 81.2 39.9 82.4 40.2 83.7 C 39.7 84.0 38.5 84.8 38.0 85.2 C 37.5 84.8 36.4 84.1 35.9 83.7 C 35.9 83.1 35.9 81.8 35.9 81.1 Z" />
<path fill="#ecf0f1" stroke="#ecf0f1" stroke-width="0.09375" opacity="1.00" d=" M 57.1 92.0 C 59.0 89.7 60.5 87.2 62.5 85.1 C 65.4 84.6 68.5 84.5 71.4 85.1 C 73.3 87.2 74.7 89.7 76.5 91.9 C 70.0 92.1 63.6 92.0 57.1 92.0 Z" />
</svg>
