<?xml version="1.0" encoding="UTF-8" ?>
<!DOCTYPE svg PUBLIC "-//W3C//DTD SVG 1.1//EN" "http://www.w3.org/Graphics/SVG/1.1/DTD/svg11.dtd">
<svg width="128pt" height="128pt" viewBox="0 0 128 128" version="1.1" xmlns="http://www.w3.org/2000/svg">
<path fill="#bf392a" stroke="#bf392a" stroke-width="0.09375" opacity="1.00" d=" M 0.0 0.0 L 128.0 0.0 L 128.0 128.0 L 0.0 128.0 L 0.0 0.0 Z" />
<path fill="#ebeff0" stroke="#ebeff0" stroke-width="0.09375" opacity="1.00" d=" M 88.7 30.7 C 91.6 27.4 96.2 29.1 100.0 29.3 C 98.8 32.3 98.0 35.5 96.1 38.1 C 85.6 52.4 73.5 65.4 62.6 79.3 C 58.6 75.9 54.7 72.4 50.7 68.9 C 63.4 56.2 76.0 43.3 88.7 30.7 Z" />
<path fill="#ebeff1" stroke="#ebeff1" stroke-width="0.09375" opacity="1.00" d=" M 36.3 79.3 C 39.7 75.5 44.7 73.5 49.0 70.8 C 52.8 74.3 56.6 77.8 60.5 81.3 C 57.0 86.0 54.5 92.0 48.8 94.7 C 43.1 97.7 37.0 99.8 30.7 101.4 C 32.2 94.0 33.1 86.2 36.3 79.3 Z" />
<path fill="#c03b2e" stroke="#c03b2e" stroke-width="0.09375" opacity="1.00" d=" M 41.4 83.3 C 43.7 84.7 45.9 86.3 47.9 87.9 C 43.1 91.8 37.8 95.1 33.1 99.1 C 35.9 93.9 38.7 88.6 41.4 83.3 Z" />
</svg>
