<?xml version="1.0" encoding="UTF-8" ?>
<!DOCTYPE svg PUBLIC "-//W3C//DTD SVG 1.1//EN" "http://www.w3.org/Graphics/SVG/1.1/DTD/svg11.dtd">
<svg width="128pt" height="128pt" viewBox="0 0 128 128" version="1.1" xmlns="http://www.w3.org/2000/svg">
<path fill="#8d43ac" stroke="#8d43ac" stroke-width="0.09375" opacity="1.00" d=" M 0.0 0.0 L 128.0 0.0 L 128.0 128.0 L 0.0 128.0 L 0.0 0.0 Z" />
<path fill="#eceff0" stroke="#eceff0" stroke-width="0.09375" opacity="1.00" d=" M 78.3 30.3 C 84.6 23.2 98.6 24.6 102.0 34.0 C 104.1 39.2 104.0 46.4 99.2 50.2 C 86.5 63.4 73.1 76.1 60.3 89.3 C 52.0 99.6 37.8 101.1 25.6 103.3 C 29.5 90.4 31.5 75.6 42.2 66.2 C 54.3 54.3 66.1 42.1 78.3 30.3 Z" />
<path fill="#8e45ad" stroke="#8e45ad" stroke-width="0.09375" opacity="1.00" d=" M 80.9 34.9 C 85.3 31.7 92.5 29.4 96.0 35.0 C 99.9 39.2 96.8 44.2 94.4 48.1 C 91.8 42.1 87.4 36.7 80.9 34.9 Z" />
<path fill="#8e44ad" stroke="#8e44ad" stroke-width="0.09375" opacity="1.00" d=" M 74.5 42.5 C 81.0 37.8 91.2 45.8 87.3 53.3 C 78.6 64.3 67.5 73.0 58.3 83.6 C 55.5 78.3 50.8 74.3 46.5 70.1 C 55.9 60.9 64.5 51.0 74.5 42.5 Z" />
<path fill="#ecf0f1" stroke="#ecf0f1" stroke-width="0.09375" opacity="1.00" d=" M 53.6 72.0 C 63.7 62.9 71.6 51.0 83.4 44.0 C 83.3 46.4 84.5 49.4 82.1 51.1 C 74.3 59.7 66.1 68.0 57.1 75.5 C 56.0 74.3 54.8 73.2 53.6 72.0 Z" />
<path fill="#8d43ac" stroke="#8d43ac" stroke-width="0.09375" opacity="1.00" d=" M 40.3 76.7 C 43.7 79.9 46.8 83.5 51.2 85.3 C 50.4 88.1 49.7 91.8 46.2 92.3 C 42.2 94.3 39.0 90.4 36.9 87.5 C 37.1 83.7 39.1 80.2 40.3 76.7 Z" />
</svg>
