<?xml version="1.0" encoding="UTF-8" ?>
<!DOCTYPE svg PUBLIC "-//W3C//DTD SVG 1.1//EN" "http://www.w3.org/Graphics/SVG/1.1/DTD/svg11.dtd">
<svg width="128pt" height="128pt" viewBox="0 0 128 128" version="1.1" xmlns="http://www.w3.org/2000/svg">
<path fill="#8e44ad" stroke="#8e44ad" stroke-width="0.09375" opacity="1.00" d=" M 0.0 0.0 L 128.0 0.0 L 128.0 128.0 L 0.0 128.0 L 0.0 0.0 Z" />
<path fill="#ebeff0" stroke="#ebeff0" stroke-width="0.09375" opacity="1.00" d=" M 50.3 36.3 C 57.5 35.6 64.8 36.3 72.1 36.0 C 75.0 35.9 80.0 35.9 79.9 40.0 C 80.1 54.7 79.8 69.4 80.0 84.1 C 79.9 86.3 80.3 88.9 78.9 90.9 C 76.2 92.5 73.0 91.9 70.0 92.0 C 63.4 91.7 56.8 92.4 50.2 91.7 C 47.4 91.5 47.0 88.3 47.0 86.1 C 47.0 71.7 47.1 57.3 47.0 42.9 C 46.9 40.4 47.1 36.8 50.3 36.3 Z" />
<path fill="#9a81a7" stroke="#9a81a7" stroke-width="0.09375" opacity="1.00" d=" M 58.2 39.7 C 61.1 37.4 65.9 37.3 68.8 39.8 C 65.3 40.1 61.7 40.2 58.2 39.7 Z" />
<path fill="#8e44ad" stroke="#8e44ad" stroke-width="0.09375" opacity="1.00" d=" M 49.6 42.0 C 58.9 42.0 68.3 41.9 77.7 42.1 C 77.6 56.4 77.6 70.8 77.6 85.1 C 68.3 85.3 58.9 85.2 49.6 85.2 C 49.5 70.8 49.5 56.4 49.6 42.0 Z" />
<path fill="#9461ab" stroke="#9461ab" stroke-width="0.09375" opacity="1.00" d=" M 63.1 86.1 C 64.0 86.4 65.0 86.8 65.9 87.2 C 65.6 88.2 65.3 89.1 65.0 90.1 C 64.3 90.1 62.9 90.0 62.2 90.0 C 61.9 89.5 61.4 88.5 61.1 88.0 C 61.8 87.4 62.5 86.8 63.1 86.1 Z" />
</svg>
