<?xml version="1.0" encoding="UTF-8" ?>
<!DOCTYPE svg PUBLIC "-//W3C//DTD SVG 1.1//EN" "http://www.w3.org/Graphics/SVG/1.1/DTD/svg11.dtd">
<svg width="128pt" height="128pt" viewBox="0 0 128 128" version="1.1" xmlns="http://www.w3.org/2000/svg">
<path fill="#c0392b" stroke="#c0392b" stroke-width="0.09375" opacity="1.00" d=" M 0.0 0.0 L 128.0 0.0 L 128.0 128.0 L 0.0 128.0 L 0.0 0.0 Z" />
<path fill="#ebeff0" stroke="#ebeff0" stroke-width="0.09375" opacity="1.00" d=" M 56.9 34.4 C 59.8 34.8 59.8 38.2 60.7 40.3 C 62.2 38.4 62.3 35.0 65.2 34.6 C 64.7 36.9 63.8 39.0 62.9 41.1 C 64.9 40.4 66.9 39.5 69.0 39.2 C 70.5 40.6 67.2 42.1 66.0 41.8 C 63.0 41.2 60.0 40.9 57.0 41.8 C 55.0 42.3 52.8 40.9 52.6 38.8 C 54.9 39.3 57.1 40.1 59.2 41.1 C 58.3 38.9 57.5 36.7 56.9 34.4 Z" />
<path fill="#aa928f" stroke="#aa928f" stroke-width="0.09375" opacity="1.00" d=" M 57.0 41.8 C 60.0 40.9 63.0 41.2 66.0 41.8 C 65.7 42.2 64.9 43.1 64.6 43.5 C 64.2 43.9 63.6 44.8 63.2 45.2 L 62.8 45.6 C 61.6 45.4 60.4 45.1 59.1 44.9 L 58.4 44.7 C 58.0 44.6 57.1 44.3 56.7 44.1 C 56.8 43.6 57.0 42.4 57.0 41.8 Z" />
<path fill="#ebeff0" stroke="#ebeff0" stroke-width="0.09375" opacity="1.00" d=" M 49.3 50.2 C 51.6 48.1 53.0 43.6 56.7 44.1 C 57.1 44.3 58.0 44.6 58.4 44.7 C 57.2 45.3 55.9 45.8 54.7 46.4 C 54.9 48.9 53.7 51.1 52.2 53.0 C 53.8 53.1 55.4 53.1 57.1 53.2 C 57.1 54.4 57.1 55.6 57.1 56.8 C 55.5 56.9 53.8 57.0 52.1 57.1 C 53.0 58.9 56.7 61.6 53.8 63.0 C 52.1 62.5 50.6 61.3 49.1 60.3 C 48.8 62.8 48.3 65.3 47.8 67.8 C 50.2 67.7 52.6 67.6 55.0 67.6 C 54.1 70.9 51.4 72.6 48.1 72.6 C 48.0 73.7 48.0 74.8 48.0 75.9 C 52.0 76.0 56.0 76.0 60.0 76.0 C 60.1 67.1 59.8 58.1 60.1 49.2 C 58.9 49.9 57.8 50.5 56.6 51.1 C 57.3 49.0 58.2 46.9 59.1 44.9 C 60.4 45.1 61.6 45.4 62.8 45.6 C 63.7 47.5 64.5 49.4 65.1 51.3 C 64.1 50.9 63.0 50.5 61.9 50.2 C 62.0 54.0 62.1 57.8 62.2 61.7 C 62.9 61.8 64.1 62.0 64.7 62.1 C 63.9 60.6 63.1 59.1 62.6 57.5 C 64.0 58.1 65.5 58.8 66.8 59.7 C 66.8 58.5 66.7 57.3 66.7 56.1 C 67.3 56.1 68.6 56.1 69.2 56.0 C 69.2 57.3 69.2 58.5 69.1 59.8 C 70.4 59.1 71.5 57.2 73.1 57.9 C 73.7 59.4 71.9 60.5 71.3 61.8 C 72.5 61.8 73.7 61.8 74.9 61.8 C 74.9 62.4 74.9 63.6 74.9 64.2 C 73.7 64.2 72.5 64.2 71.2 64.2 C 71.9 65.5 73.6 66.6 73.1 68.1 C 71.5 68.6 70.4 66.9 69.1 66.3 C 69.1 67.9 69.1 69.4 69.0 71.0 C 70.3 70.7 71.5 70.4 72.7 70.1 C 72.6 72.8 71.1 74.7 68.9 76.0 C 73.6 76.0 78.3 76.0 83.0 75.9 C 83.0 75.3 82.9 74.1 82.9 73.5 C 79.4 73.9 77.0 71.4 76.0 68.3 C 78.4 68.5 80.8 68.6 83.2 68.8 C 82.7 65.9 82.1 63.0 81.8 60.0 C 80.2 61.6 78.3 63.0 76.0 63.0 C 75.8 60.6 77.4 58.8 79.0 57.2 C 77.3 57.1 75.6 57.0 73.8 56.8 C 73.8 55.6 73.9 54.4 73.9 53.3 C 75.6 53.1 77.3 53.0 79.0 52.9 C 77.4 51.2 75.8 49.4 76.0 47.0 C 78.3 47.1 80.2 48.4 81.8 50.0 C 82.1 48.0 81.2 44.7 84.0 44.4 C 86.4 45.2 86.0 47.9 86.1 50.0 C 87.6 48.8 88.9 47.2 90.8 47.0 C 93.7 48.6 90.2 51.3 89.0 52.9 C 90.7 53.0 92.4 53.1 94.1 53.3 C 94.1 54.5 94.2 55.6 94.2 56.8 C 92.4 57.0 90.7 57.1 89.0 57.2 C 90.2 58.6 91.7 60.0 92.1 61.9 C 90.3 64.6 87.8 61.3 86.1 60.1 C 85.2 65.3 84.7 70.5 85.0 75.8 C 86.9 76.3 89.6 75.4 90.8 77.3 C 91.2 81.5 91.1 85.7 90.9 89.9 C 91.1 92.1 88.5 91.9 87.0 92.0 C 71.0 92.0 55.0 92.0 39.0 92.0 C 37.5 92.0 34.9 92.0 35.1 89.9 C 35.2 85.5 34.3 80.8 35.6 76.6 C 38.9 75.4 42.6 76.2 46.1 75.9 C 46.0 74.8 45.9 73.8 45.8 72.7 C 42.8 72.2 41.0 70.0 40.0 67.5 C 42.0 67.4 44.0 67.5 46.1 67.4 C 45.5 65.0 45.0 62.5 44.8 60.0 C 43.2 61.6 41.3 63.0 39.0 63.1 C 38.8 60.6 40.4 58.8 42.0 57.2 C 40.7 57.2 39.4 57.1 38.1 56.9 C 36.1 57.0 37.0 54.5 36.8 53.3 C 38.6 53.1 40.3 52.9 42.1 52.8 C 41.1 51.8 40.1 50.8 39.1 49.8 C 39.1 49.0 39.3 47.6 39.3 46.9 C 41.5 47.3 43.3 48.5 44.8 50.0 C 45.1 48.0 44.1 44.7 47.0 44.4 C 49.5 45.3 48.9 48.2 49.3 50.2 Z" />
<path fill="#dbdbdc" stroke="#dbdbdc" stroke-width="0.09375" opacity="1.00" d=" M 63.2 45.2 C 63.6 44.8 64.2 43.9 64.6 43.5 C 66.5 44.3 69.2 44.8 69.4 47.3 C 67.2 46.9 65.2 46.1 63.2 45.2 Z" />
<path fill="#bf3a2c" stroke="#bf3a2c" stroke-width="0.09375" opacity="1.00" d=" M 54.7 46.4 C 55.9 45.8 57.2 45.3 58.4 44.7 L 59.1 44.9 C 58.2 46.9 57.3 49.0 56.6 51.1 C 57.8 50.5 58.9 49.9 60.1 49.2 C 59.8 58.1 60.1 67.1 60.0 76.0 C 56.0 76.0 52.0 76.0 48.0 75.9 C 48.0 74.8 48.0 73.7 48.1 72.6 C 51.4 72.6 54.1 70.9 55.0 67.6 C 52.6 67.6 50.2 67.7 47.8 67.8 C 48.3 65.3 48.8 62.8 49.1 60.3 C 50.6 61.3 52.1 62.5 53.8 63.0 C 56.7 61.6 53.0 58.9 52.1 57.1 C 53.8 57.0 55.5 56.9 57.1 56.8 C 57.1 55.6 57.1 54.4 57.1 53.2 C 55.4 53.1 53.8 53.1 52.2 53.0 C 53.7 51.1 54.9 48.9 54.7 46.4 Z" />
<path fill="#c0392b" stroke="#c0392b" stroke-width="0.09375" opacity="1.00" d=" M 46.2 54.1 C 47.8 53.6 48.3 54.2 47.8 55.8 C 46.2 56.3 45.6 55.8 46.2 54.1 Z" />
<path fill="#c0392b" stroke="#c0392b" stroke-width="0.09375" opacity="1.00" d=" M 83.2 54.2 C 84.8 53.6 85.3 54.2 84.8 55.8 C 83.2 56.3 82.6 55.8 83.2 54.2 Z" />
<path fill="#a46963" stroke="#a46963" stroke-width="0.09375" opacity="1.00" d=" M 67.2 62.2 C 68.8 61.6 69.3 62.2 68.8 63.8 C 67.2 64.3 66.6 63.8 67.2 62.2 Z" />
<path fill="#bf3a2d" stroke="#bf3a2d" stroke-width="0.09375" opacity="1.00" d=" M 62.3 64.3 C 62.9 64.2 64.1 64.1 64.7 64.0 C 63.9 65.4 63.2 66.9 62.6 68.5 C 64.0 67.9 65.4 67.2 66.8 66.3 C 66.8 69.6 67.0 72.8 67.0 76.0 C 65.4 76.0 63.7 76.0 62.0 76.0 C 62.0 72.1 62.1 68.2 62.3 64.3 Z" />
<path fill="#be3b2e" stroke="#be3b2e" stroke-width="0.09375" opacity="1.00" d=" M 39.2 78.2 C 41.4 77.9 43.6 78.0 45.8 78.0 C 46.0 78.8 46.2 80.5 46.3 81.4 C 47.8 80.8 48.0 79.4 48.4 78.1 C 52.2 78.0 56.0 78.0 59.8 78.0 C 60.0 78.8 60.2 80.6 60.3 81.4 C 61.8 80.8 62.0 79.3 62.4 78.1 C 63.9 78.0 65.3 78.0 66.8 78.0 C 67.0 78.8 67.2 80.6 67.3 81.4 C 68.8 80.8 69.0 79.4 69.4 78.1 C 73.9 78.0 78.3 78.0 82.8 78.0 C 83.0 78.8 83.2 80.6 83.3 81.4 C 84.9 80.8 85.0 79.1 85.5 77.7 C 88.2 78.0 89.2 81.8 85.9 82.0 C 70.6 82.1 55.3 82.2 40.1 81.9 C 37.8 82.3 37.0 78.8 39.2 78.2 Z" />
</svg>
