<?xml version="1.0" encoding="UTF-8" ?>
<!DOCTYPE svg PUBLIC "-//W3C//DTD SVG 1.1//EN" "http://www.w3.org/Graphics/SVG/1.1/DTD/svg11.dtd">
<svg width="128pt" height="128pt" viewBox="0 0 128 128" version="1.1" xmlns="http://www.w3.org/2000/svg">
<path fill="#8e44ad" stroke="#8e44ad" stroke-width="0.09375" opacity="1.00" d=" M 0.0 0.0 L 128.0 0.0 L 128.0 128.0 L 0.0 128.0 L 0.0 0.0 Z" />
<path fill="#dadbdc" stroke="#dadbdc" stroke-width="0.09375" opacity="1.00" d=" M 24.3 38.3 C 49.2 37.6 74.1 38.1 99.0 38.0 C 104.8 36.5 110.5 42.2 109.0 48.0 C 109.0 60.0 109.0 72.0 109.0 84.0 C 108.2 87.6 104.2 91.8 100.0 90.0 C 76.7 90.0 53.3 89.9 30.0 90.0 C 25.5 91.6 21.8 89.1 19.2 85.8 C 18.8 72.5 19.1 59.3 19.0 46.0 C 18.7 42.6 21.1 39.4 24.3 38.3 Z" />
<path fill="#8e44ad" stroke="#8e44ad" stroke-width="0.09375" opacity="1.00" d=" M 29.1 52.0 C 35.7 48.1 35.2 55.4 31.1 54.2 C 30.9 60.8 30.9 67.4 31.0 73.9 C 30.4 76.2 34.5 73.8 34.1 76.1 L 29.0 76.0 C 29.0 68.0 28.8 60.0 29.1 52.0 Z" />
<path fill="#8e44ad" stroke="#8e44ad" stroke-width="0.09375" opacity="1.00" d=" M 72.3 52.4 L 73.1 52.2 C 71.9 55.9 69.0 58.8 67.0 62.0 C 68.5 65.9 72.0 68.9 73.1 73.0 C 67.2 75.1 67.9 66.9 64.2 65.1 C 62.3 68.4 62.3 74.8 56.9 73.0 C 57.6 68.9 61.5 66.1 62.0 62.1 C 60.6 58.9 58.5 56.1 56.9 53.0 C 64.4 48.9 61.6 59.8 65.7 59.9 C 66.5 56.2 67.8 52.1 72.3 52.4 Z" />
<path fill="#8e44ad" stroke="#8e44ad" stroke-width="0.09375" opacity="1.00" d=" M 91.3 52.4 L 92.1 52.2 C 90.9 55.9 88.0 58.7 86.0 62.0 C 87.8 65.8 90.7 69.0 92.1 73.0 C 87.3 74.6 86.4 69.5 84.8 66.1 C 81.9 65.3 82.1 69.3 81.0 71.0 C 80.5 73.5 77.9 73.0 75.9 73.0 C 76.8 69.0 80.6 66.1 81.0 62.1 C 79.7 58.9 77.7 55.9 76.0 53.0 C 83.4 49.0 80.6 59.8 84.7 59.9 C 85.5 56.2 86.8 52.1 91.3 52.4 Z" />
<path fill="#8e44ad" stroke="#8e44ad" stroke-width="0.09375" opacity="1.00" d=" M 95.0 52.0 C 96.5 52.0 99.5 52.0 101.0 52.0 C 101.0 60.0 101.2 68.0 100.9 76.0 C 99.4 76.0 96.5 76.0 95.0 76.0 C 94.7 74.1 97.8 75.4 99.0 74.9 C 99.1 67.9 99.1 61.0 99.0 54.1 C 97.3 53.8 94.1 54.9 95.0 52.0 Z" />
<path fill="#8e44ad" stroke="#8e44ad" stroke-width="0.09375" opacity="1.00" d=" M 37.9 53.0 C 45.7 48.7 42.1 60.0 46.7 59.9 C 47.7 56.6 48.4 51.5 53.1 53.0 C 53.0 57.3 45.4 60.9 49.2 64.8 C 51.3 67.2 52.6 70.2 54.0 73.0 C 48.7 74.6 48.4 68.3 45.9 65.1 C 42.2 66.6 44.2 76.5 37.1 73.1 C 38.5 68.8 45.5 64.2 41.7 59.3 C 40.5 57.1 39.0 55.2 37.9 53.0 Z" />
</svg>
