<?xml version="1.0" encoding="UTF-8" ?>
<!DOCTYPE svg PUBLIC "-//W3C//DTD SVG 1.1//EN" "http://www.w3.org/Graphics/SVG/1.1/DTD/svg11.dtd">
<svg width="128pt" height="128pt" viewBox="0 0 128 128" version="1.1" xmlns="http://www.w3.org/2000/svg">
<path fill="#3598db" stroke="#3598db" stroke-width="0.09375" opacity="1.00" d=" M 0.0 0.0 L 128.0 0.0 L 128.0 128.0 L 0.0 128.0 L 0.0 0.0 Z" />
<path fill="#ecf0f1" stroke="#ecf0f1" stroke-width="0.09375" opacity="1.00" d=" M 35.8 38.8 C 36.8 34.7 42.0 34.5 45.2 35.7 C 47.4 37.1 48.1 39.8 49.2 42.0 C 59.3 42.1 69.5 42.2 79.6 41.9 C 80.7 39.7 81.3 36.8 83.6 35.7 C 86.7 34.6 91.4 34.7 92.6 38.4 C 94.1 43.2 98.8 46.4 99.5 51.5 C 100.4 57.3 101.0 63.2 101.8 69.1 C 102.0 72.5 102.7 76.5 100.4 79.4 C 97.9 82.7 92.8 82.8 89.6 80.4 C 86.2 77.9 84.7 73.8 82.5 70.3 C 79.4 70.5 76.2 70.6 73.0 70.5 C 69.8 70.6 68.2 66.6 64.9 66.9 C 61.9 66.3 59.9 68.5 57.7 70.1 C 54.0 71.0 50.0 70.4 46.3 70.2 C 43.6 74.1 42.0 79.3 37.3 81.3 C 33.9 82.9 29.2 81.9 27.5 78.4 C 25.9 75.2 26.6 71.6 27.0 68.2 C 27.8 62.5 28.3 56.9 29.2 51.2 C 29.9 46.3 34.3 43.3 35.8 38.8 Z" />
<path fill="#5f94b8" stroke="#5f94b8" stroke-width="0.09375" opacity="1.00" d=" M 86.4 42.3 C 89.4 41.3 92.5 45.7 90.3 48.2 C 88.8 50.6 85.3 50.2 84.1 47.9 C 82.1 45.8 84.4 43.2 86.4 42.3 Z" />
<path fill="#ecf0f1" stroke="#ecf0f1" stroke-width="0.09375" opacity="1.00" d=" M 84.8 44.9 C 86.2 44.5 87.6 44.1 89.1 43.7 C 89.1 45.2 89.1 46.7 89.1 48.1 C 87.9 48.0 86.6 47.8 85.4 47.7 C 85.2 47.0 84.9 45.6 84.8 44.9 Z" />
<path fill="#5f94b8" stroke="#5f94b8" stroke-width="0.09375" opacity="1.00" d=" M 38.7 45.6 C 40.0 45.4 41.3 45.2 42.6 44.9 C 43.3 46.3 44.0 47.7 44.7 49.0 C 46.4 49.8 49.3 50.4 48.8 52.9 C 48.7 54.9 46.1 55.3 44.6 56.0 C 44.0 57.4 43.4 58.8 42.7 60.1 C 41.4 59.9 40.0 59.7 38.7 59.5 C 38.5 58.2 38.3 56.9 38.1 55.7 C 36.7 55.4 35.3 55.1 34.0 54.8 C 34.1 53.3 34.1 51.8 34.2 50.3 C 35.5 50.0 36.7 49.7 38.0 49.4 C 38.2 48.1 38.5 46.9 38.7 45.6 Z" />
<path fill="#6a95b8" stroke="#6a95b8" stroke-width="0.09375" opacity="1.00" d=" M 57.4 45.4 C 61.9 45.4 66.4 45.4 70.9 45.5 C 70.6 46.1 70.3 46.8 70.0 47.4 C 65.7 47.6 61.5 47.7 57.2 47.6 C 57.2 47.1 57.3 46.0 57.4 45.4 Z" />
<path fill="#e4e9ea" stroke="#e4e9ea" stroke-width="0.09375" opacity="1.00" d=" M 39.9 46.9 C 40.8 46.9 42.4 47.0 43.3 47.0 C 42.5 48.5 42.1 50.4 40.1 50.4 C 40.0 49.6 40.0 47.8 39.9 46.9 Z" />
<path fill="#6f9bb8" stroke="#6f9bb8" stroke-width="0.09375" opacity="1.00" d=" M 76.6 52.0 C 77.9 50.4 79.4 49.0 81.0 47.7 C 82.4 48.8 84.3 49.5 84.9 51.3 C 85.6 53.8 82.8 56.6 80.3 55.9 C 78.5 55.3 77.7 53.4 76.6 52.0 Z" />
<path fill="#5f94b8" stroke="#5f94b8" stroke-width="0.09375" opacity="1.00" d=" M 92.4 48.4 C 95.7 47.3 98.9 52.6 95.8 54.8 C 93.6 57.5 89.8 55.0 89.3 52.1 C 89.7 50.5 90.9 49.1 92.4 48.4 Z" />
<path fill="#ecf0f1" stroke="#ecf0f1" stroke-width="0.09375" opacity="1.00" d=" M 78.9 53.8 C 78.5 51.3 80.3 49.5 82.8 50.0 C 82.8 51.3 82.9 52.7 83.0 54.0 C 81.7 53.9 80.3 53.9 78.9 53.8 Z" />
<path fill="#ecf0f1" stroke="#ecf0f1" stroke-width="0.09375" opacity="1.00" d=" M 91.0 52.9 C 90.4 50.4 93.3 49.9 95.1 49.9 C 95.1 51.3 95.1 52.8 95.1 54.2 C 93.7 54.0 92.0 54.2 91.0 52.9 Z" />
<path fill="#e1e6e7" stroke="#e1e6e7" stroke-width="0.09375" opacity="1.00" d=" M 35.9 50.7 C 37.1 51.1 38.2 51.6 39.4 52.0 C 39.0 52.5 38.2 53.5 37.8 54.0 C 37.1 54.0 35.7 53.9 35.0 53.9 C 35.3 52.8 35.6 51.7 35.9 50.7 Z" />
<path fill="#e4e9ea" stroke="#e4e9ea" stroke-width="0.09375" opacity="1.00" d=" M 42.5 52.8 C 43.9 51.9 45.4 51.2 46.9 50.6 C 46.9 51.5 47.0 53.4 47.0 54.3 C 45.5 53.8 44.0 53.3 42.5 52.8 Z" />
<path fill="#6e9ab6" stroke="#6e9ab6" stroke-width="0.09375" opacity="1.00" d=" M 55.0 50.8 C 56.7 50.9 58.4 51.0 60.2 51.1 C 60.2 54.1 57.4 54.3 55.2 54.1 C 55.1 53.3 55.0 51.6 55.0 50.8 Z" />
<path fill="#699aba" stroke="#699aba" stroke-width="0.09375" opacity="1.00" d=" M 69.0 50.5 C 70.9 50.7 72.9 51.0 74.3 52.6 C 72.5 53.2 70.8 53.7 69.0 54.2 C 69.0 53.3 69.0 51.4 69.0 50.5 Z" />
<path fill="#a6b5be" stroke="#a6b5be" stroke-width="0.09375" opacity="1.00" d=" M 63.4 54.3 C 66.9 53.5 70.1 57.4 69.0 60.8 C 68.2 65.2 61.2 65.2 59.7 61.3 C 58.0 58.5 60.4 54.9 63.4 54.3 Z" />
<path fill="#5f94b8" stroke="#5f94b8" stroke-width="0.09375" opacity="1.00" d=" M 82.8 58.0 C 84.1 56.6 85.1 54.8 87.0 54.3 C 88.6 54.7 90.4 55.4 90.9 57.2 C 91.7 59.5 89.3 62.3 87.0 61.9 C 84.7 62.0 84.0 59.5 82.8 58.0 Z" />
<path fill="#ebeff0" stroke="#ebeff0" stroke-width="0.09375" opacity="1.00" d=" M 40.3 55.4 C 41.7 54.1 43.7 56.7 42.4 57.9 C 40.9 59.2 38.9 56.7 40.3 55.4 Z" />
<path fill="#e7ebec" stroke="#e7ebec" stroke-width="0.09375" opacity="1.00" d=" M 62.9 58.7 C 59.4 60.4 61.6 53.9 63.4 57.2 C 63.2 57.6 63.0 58.4 62.9 58.7 Z" />
<path fill="#ecf0f1" stroke="#ecf0f1" stroke-width="0.09375" opacity="1.00" d=" M 86.0 55.6 C 88.5 55.8 89.6 57.7 89.3 60.0 C 87.8 60.0 86.3 59.9 84.8 59.9 C 85.2 58.5 85.6 57.1 86.0 55.6 Z" />
<path fill="#5f94b8" stroke="#5f94b8" stroke-width="0.09375" opacity="1.00" d=" M 51.4 57.4 C 54.6 56.7 58.3 59.7 58.1 63.0 C 58.4 67.3 52.8 70.4 49.4 67.7 C 45.2 65.3 46.7 58.2 51.4 57.4 Z" />
<path fill="#5894bc" stroke="#5894bc" stroke-width="0.09375" opacity="1.00" d=" M 63.4 57.2 C 63.9 57.2 64.9 57.1 65.4 57.1 C 65.9 58.5 66.5 59.9 67.1 61.3 C 65.4 61.2 63.7 61.2 62.0 61.1 C 62.2 60.5 62.6 59.3 62.9 58.7 C 63.0 58.4 63.2 57.6 63.4 57.2 Z" />
<path fill="#5f94b8" stroke="#5f94b8" stroke-width="0.09375" opacity="1.00" d=" M 75.4 57.3 C 78.1 56.9 80.6 59.1 81.6 61.4 C 82.9 65.1 79.1 69.3 75.4 68.7 C 72.8 68.1 70.6 65.7 70.4 63.0 C 70.6 60.3 72.8 57.9 75.4 57.3 Z" />
<path fill="#ecf0f1" stroke="#ecf0f1" stroke-width="0.09375" opacity="1.00" d=" M 50.4 59.4 C 52.3 58.3 54.3 59.6 56.1 60.1 C 56.1 62.2 57.3 65.7 54.5 66.6 C 52.8 67.6 50.5 67.1 49.2 65.7 C 47.9 63.7 48.1 60.5 50.4 59.4 Z" />
<path fill="#ecf0f1" stroke="#ecf0f1" stroke-width="0.09375" opacity="1.00" d=" M 74.4 59.2 C 78.1 57.4 81.9 62.2 79.5 65.4 C 77.6 68.4 72.6 67.2 72.0 63.8 C 71.6 61.9 72.9 60.2 74.4 59.2 Z" />
<path fill="#d4dadc" stroke="#d4dadc" stroke-width="0.09375" opacity="1.00" d=" M 60.8 61.1 L 62.0 61.1 C 63.7 61.2 65.4 61.2 67.1 61.3 C 65.4 63.7 62.5 63.0 60.8 61.1 Z" />
<path fill="#ecf0f1" stroke="#ecf0f1" stroke-width="0.09375" opacity="1.00" d=" M 46.5 72.6 C 55.3 71.8 64.2 72.5 73.0 72.2 C 75.7 72.4 78.6 71.8 81.2 72.9 C 82.8 74.6 84.7 76.6 85.1 79.0 C 84.5 81.2 82.8 82.9 81.7 84.8 C 69.9 85.0 58.0 85.3 46.2 84.7 C 45.5 80.7 45.3 76.5 46.5 72.6 Z" />
<path fill="#3698db" stroke="#3698db" stroke-width="0.09375" opacity="1.00" d=" M 48.5 74.5 C 51.2 74.4 53.9 74.4 56.6 74.5 C 57.1 77.2 57.1 80.0 56.8 82.7 C 54.3 83.0 51.8 83.3 49.3 82.9 C 46.7 81.0 48.4 77.2 48.5 74.5 Z" />
</svg>
