<?xml version="1.0" encoding="UTF-8" ?>
<!DOCTYPE svg PUBLIC "-//W3C//DTD SVG 1.1//EN" "http://www.w3.org/Graphics/SVG/1.1/DTD/svg11.dtd">
<svg width="128pt" height="128pt" viewBox="0 0 128 128" version="1.1" xmlns="http://www.w3.org/2000/svg">
<path fill="#f39c12" stroke="#f39c12" stroke-width="0.09375" opacity="1.00" d=" M 0.0 0.0 L 128.0 0.0 L 128.0 128.0 L 0.0 128.0 L 0.0 0.0 Z" />
<path fill="#b69a6a" stroke="#b69a6a" stroke-width="0.09375" opacity="1.00" d=" M 61.5 28.0 C 61.6 26.0 66.4 26.0 66.5 28.0 C 64.8 28.0 63.2 28.0 61.5 28.0 Z" />
<path fill="#ecf0f1" stroke="#ecf0f1" stroke-width="0.09375" opacity="1.00" d=" M 53.9 46.1 C 49.3 39.6 53.5 29.0 61.5 28.0 C 63.2 28.0 64.8 28.0 66.5 28.0 C 74.7 28.9 79.0 39.7 74.2 46.2 C 69.9 53.4 58.1 53.3 53.9 46.1 Z" />
<path fill="#f29c13" stroke="#f29c13" stroke-width="0.09375" opacity="1.00" d=" M 55.3 45.1 C 57.3 39.4 60.6 34.2 64.0 29.2 C 67.7 34.1 70.5 39.5 73.1 45.0 C 67.2 45.5 61.2 45.4 55.3 45.1 Z" />
<path fill="#ecf0f1" stroke="#ecf0f1" stroke-width="0.09375" opacity="1.00" d=" M 58.9 42.8 C 60.6 39.7 62.0 36.4 64.4 33.7 C 66.0 36.7 67.7 39.7 69.2 42.8 C 65.8 42.8 62.3 42.8 58.9 42.8 Z" />
<path fill="#ecf0f1" stroke="#ecf0f1" stroke-width="0.09375" opacity="1.00" d=" M 27.5 62.0 C 28.5 56.6 33.5 52.3 39.0 52.2 C 44.8 51.9 50.8 56.5 51.1 62.5 C 51.0 63.8 51.0 65.1 51.0 66.5 C 50.5 73.4 42.5 77.8 36.2 75.9 C 30.3 74.4 26.2 68.0 27.5 62.0 Z" />
<path fill="#ecf0f1" stroke="#ecf0f1" stroke-width="0.09375" opacity="1.00" d=" M 83.5 53.4 C 90.2 49.8 99.5 54.4 100.6 62.0 C 102.1 68.7 96.8 75.8 90.0 76.3 C 84.4 77.0 78.8 73.2 77.2 67.8 C 75.4 62.3 78.3 55.9 83.5 53.4 Z" />
<path fill="#f29c12" stroke="#f29c12" stroke-width="0.09375" opacity="1.00" d=" M 87.4 55.4 C 94.1 54.0 100.1 61.9 96.9 68.0 C 94.4 74.4 84.5 75.0 81.1 69.0 C 77.5 63.8 81.3 56.2 87.4 55.4 Z" />
<path fill="#ea9a1b" stroke="#ea9a1b" stroke-width="0.09375" opacity="1.00" d=" M 32.6 57.2 C 37.2 57.0 41.8 57.0 46.5 57.3 L 46.4 58.3 C 46.1 62.5 46.2 66.7 46.0 70.9 C 41.6 71.0 37.1 71.1 32.6 71.4 C 32.9 67.0 33.2 62.6 32.6 58.3 L 32.6 57.2 Z" />
<path fill="#bc9555" stroke="#bc9555" stroke-width="0.09375" opacity="1.00" d=" M 32.5 57.2 L 32.6 58.3 C 33.2 62.6 32.9 67.0 32.6 71.4 C 31.5 66.8 31.8 61.9 32.5 57.2 Z" />
<path fill="#b7ab94" stroke="#b7ab94" stroke-width="0.09375" opacity="1.00" d=" M 46.4 58.3 L 46.5 57.3 C 47.5 62.0 47.1 66.9 46.7 71.6 C 42.0 72.1 37.3 72.1 32.6 71.4 C 37.1 71.1 41.6 71.0 46.0 70.9 C 46.2 66.7 46.1 62.5 46.4 58.3 Z" />
<path fill="#ecf0f1" stroke="#ecf0f1" stroke-width="0.09375" opacity="1.00" d=" M 86.4 58.3 C 90.9 56.1 96.6 61.0 95.1 65.9 C 94.0 70.6 87.5 72.4 84.2 68.8 C 80.8 65.8 82.2 59.8 86.4 58.3 Z" />
<path fill="#bb975c" stroke="#bb975c" stroke-width="0.09375" opacity="1.00" d=" M 34.3 59.2 C 37.6 59.2 41.2 58.1 44.3 59.7 C 41.2 60.0 38.1 60.0 35.1 60.0 C 35.1 63.0 35.0 66.1 34.8 69.1 C 33.8 65.9 34.1 62.5 34.3 59.2 Z" />
<path fill="#ecf0f1" stroke="#ecf0f1" stroke-width="0.09375" opacity="1.00" d=" M 35.1 60.0 C 38.1 60.0 41.2 60.0 44.3 59.7 C 44.0 62.7 44.0 65.8 44.0 68.9 C 40.9 68.9 37.9 68.9 34.8 69.1 C 35.0 66.1 35.1 63.0 35.1 60.0 Z" />
<path fill="#b59b70" stroke="#b59b70" stroke-width="0.09375" opacity="1.00" d=" M 51.1 62.5 C 53.1 62.3 53.0 66.8 51.0 66.5 C 51.0 65.1 51.0 63.8 51.1 62.5 Z" />
<path fill="#ecf0f1" stroke="#ecf0f1" stroke-width="0.09375" opacity="1.00" d=" M 60.4 77.5 C 67.8 74.7 76.5 81.1 76.2 89.0 C 76.4 95.8 69.8 101.8 63.0 100.9 C 55.6 100.6 50.1 92.4 52.5 85.4 C 53.6 81.7 56.7 78.6 60.4 77.5 Z" />
<path fill="#f09b15" stroke="#f09b15" stroke-width="0.09375" opacity="1.00" d=" M 57.7 81.9 C 60.0 83.3 62.1 85.1 64.0 87.0 C 65.9 85.3 67.8 83.6 69.9 82.0 C 70.1 82.5 70.5 83.4 70.8 83.9 C 69.2 85.6 67.6 87.3 66.0 89.0 C 67.9 90.9 69.7 92.9 71.1 95.3 C 68.0 95.4 66.1 92.7 64.0 90.8 C 61.9 92.2 59.8 96.9 57.1 94.4 C 58.8 92.6 60.5 90.8 62.2 88.9 C 60.3 86.9 57.5 85.0 57.7 81.9 Z" />
</svg>
