<?xml version="1.0" encoding="UTF-8" ?>
<!DOCTYPE svg PUBLIC "-//W3C//DTD SVG 1.1//EN" "http://www.w3.org/Graphics/SVG/1.1/DTD/svg11.dtd">
<svg width="128pt" height="128pt" viewBox="0 0 128 128" version="1.1" xmlns="http://www.w3.org/2000/svg">
<path fill="#1abc9c" stroke="#1abc9c" stroke-width="0.09375" opacity="1.00" d=" M 0.0 0.0 L 128.0 0.0 L 128.0 128.0 L 0.0 128.0 L 0.0 0.0 Z" />
<path fill="#ecf0f1" stroke="#ecf0f1" stroke-width="0.09375" opacity="1.00" d=" M 57.4 27.7 C 66.8 26.2 76.8 28.0 84.7 33.3 C 93.2 38.9 99.3 48.0 101.0 58.1 C 102.2 65.8 101.4 73.9 97.9 81.0 C 92.5 92.2 81.3 100.4 68.9 101.9 C 62.9 102.3 56.7 102.1 51.1 99.9 C 41.0 96.2 32.8 88.0 29.0 78.0 C 25.4 68.5 25.8 57.5 30.3 48.3 C 35.4 37.7 45.8 29.8 57.4 27.7 Z" />
<path fill="#1abc9c" stroke="#1abc9c" stroke-width="0.09375" opacity="1.00" d=" M 58.3 31.4 C 65.0 30.5 71.9 31.1 78.0 34.0 C 90.2 39.5 98.5 52.6 97.8 66.0 C 97.4 78.4 89.5 90.1 78.3 95.2 C 68.9 99.7 57.5 99.4 48.4 94.5 C 42.1 91.2 36.9 85.8 33.7 79.3 C 29.1 70.0 29.3 58.5 34.1 49.2 C 38.9 40.0 48.1 33.2 58.3 31.4 Z" />
<path fill="#ecf0f1" stroke="#ecf0f1" stroke-width="0.09375" opacity="1.00" d=" M 57.2 40.8 C 63.4 42.7 70.2 43.6 75.8 47.2 C 81.7 51.0 82.6 59.5 79.3 65.2 C 77.5 68.3 73.6 67.2 70.8 67.0 C 70.2 61.5 70.8 56.0 70.4 50.4 C 70.4 48.5 68.2 48.4 66.9 47.5 C 65.7 60.5 66.8 73.5 66.3 86.5 C 63.3 85.6 60.3 84.6 57.3 83.6 C 57.2 69.4 57.3 55.1 57.2 40.8 Z" />
<path fill="#ecf0f1" stroke="#ecf0f1" stroke-width="0.09375" opacity="1.00" d=" M 34.6 75.3 C 40.9 71.3 48.2 69.5 55.1 66.9 C 55.1 68.8 55.0 70.7 54.8 72.6 C 51.0 74.2 46.2 74.6 43.5 78.0 C 47.4 78.7 51.3 77.6 55.0 76.2 C 55.0 77.8 55.0 79.4 55.0 81.1 C 49.0 81.9 42.6 81.6 37.0 78.9 C 35.5 78.3 35.4 76.5 34.6 75.3 Z" />
<path fill="#ecf0f1" stroke="#ecf0f1" stroke-width="0.09375" opacity="1.00" d=" M 68.6 70.9 C 75.9 68.8 84.2 68.2 91.3 71.7 C 92.5 72.6 94.6 73.9 93.6 75.6 C 91.8 77.8 89.0 78.5 86.6 79.5 C 80.5 81.7 74.5 84.0 68.3 85.9 C 68.4 84.2 68.5 82.4 68.5 80.6 C 73.1 78.8 77.8 77.3 82.4 75.5 C 83.8 75.1 84.7 74.0 85.6 73.0 C 79.6 71.8 74.1 75.1 68.6 76.6 C 68.6 74.7 68.6 72.8 68.6 70.9 Z" />
</svg>
