<?xml version="1.0" encoding="UTF-8" ?>
<!DOCTYPE svg PUBLIC "-//W3C//DTD SVG 1.1//EN" "http://www.w3.org/Graphics/SVG/1.1/DTD/svg11.dtd">
<svg width="128pt" height="128pt" viewBox="0 0 128 128" version="1.1" xmlns="http://www.w3.org/2000/svg">
<path fill="#c0392b" stroke="#c0392b" stroke-width="0.09375" opacity="1.00" d=" M 0.0 0.0 L 128.0 0.0 L 128.0 128.0 L 0.0 128.0 L 0.0 0.0 Z" />
<path fill="#ecf0f1" stroke="#ecf0f1" stroke-width="0.09375" opacity="1.00" d=" M 64.5 38.3 C 67.2 37.2 70.9 38.3 71.6 41.4 C 72.9 45.3 68.5 49.1 64.8 47.5 C 60.8 46.2 60.6 39.9 64.5 38.3 Z" />
<path fill="#ecf0f1" stroke="#ecf0f1" stroke-width="0.09375" opacity="1.00" d=" M 78.8 48.0 C 78.7 43.3 82.4 37.9 87.5 38.5 C 92.0 39.8 91.4 45.9 88.5 48.6 C 86.1 51.9 81.1 51.5 78.8 54.9 C 76.2 57.0 80.3 59.9 78.0 62.4 C 72.6 62.9 67.5 60.6 63.0 57.7 C 61.6 60.1 60.3 62.6 59.1 65.1 C 62.3 67.8 65.9 70.5 67.3 74.6 C 69.3 79.6 68.1 85.2 66.0 90.0 C 65.3 91.3 64.8 93.2 62.9 93.0 C 61.1 93.6 60.0 91.8 58.8 90.8 C 59.8 86.9 62.1 83.2 61.6 79.0 C 61.2 75.7 58.8 73.2 56.1 71.3 C 56.0 75.3 59.0 80.3 55.3 83.3 C 52.0 86.2 48.1 88.4 44.0 90.1 C 42.4 90.7 40.3 91.6 38.7 90.3 C 37.9 89.1 38.1 87.5 37.8 86.1 C 41.9 83.5 46.4 81.7 50.3 78.8 C 50.3 73.8 48.3 69.0 47.8 64.1 C 49.0 59.4 51.4 55.1 53.9 50.9 C 55.2 48.5 57.8 46.1 60.9 46.9 C 63.7 47.6 64.9 50.5 66.4 52.6 C 68.1 55.4 71.6 56.7 74.8 57.0 C 77.5 54.9 79.0 51.4 78.8 48.0 Z" />
<path fill="#c0392b" stroke="#c0392b" stroke-width="0.09375" opacity="1.00" d=" M 84.4 40.1 C 86.2 38.8 89.2 39.7 89.5 42.1 C 90.1 46.6 85.7 51.0 81.2 50.9 C 77.7 48.0 81.1 42.1 84.4 40.1 Z" />
</svg>
