<?xml version="1.0" encoding="UTF-8" ?>
<!DOCTYPE svg PUBLIC "-//W3C//DTD SVG 1.1//EN" "http://www.w3.org/Graphics/SVG/1.1/DTD/svg11.dtd">
<svg width="128pt" height="128pt" viewBox="0 0 128 128" version="1.1" xmlns="http://www.w3.org/2000/svg">
<path fill="#c0392b" stroke="#c0392b" stroke-width="0.09375" opacity="1.00" d=" M 0.0 0.0 L 128.0 0.0 L 128.0 128.0 L 0.0 128.0 L 0.0 0.0 Z" />
<path fill="#ecf0f1" stroke="#ecf0f1" stroke-width="0.09375" opacity="1.00" d=" M 62.7 30.0 C 64.9 30.0 67.1 30.0 69.3 30.0 C 69.3 30.8 69.3 32.4 69.4 33.2 C 67.1 33.2 64.9 33.2 62.7 33.1 C 62.7 32.3 62.7 30.8 62.7 30.0 Z" />
<path fill="#ecf0f1" stroke="#ecf0f1" stroke-width="0.09375" opacity="1.00" d=" M 62.3 35.0 C 64.7 34.9 67.2 34.9 69.6 34.9 C 69.9 38.1 70.0 41.4 70.6 44.5 C 72.3 47.3 75.8 49.2 75.5 52.9 C 75.5 66.9 75.5 81.0 75.4 95.0 C 68.8 96.8 61.6 97.2 55.1 94.8 C 55.1 92.0 55.1 89.3 55.1 86.5 C 58.0 86.6 60.8 86.4 63.7 86.2 C 63.6 76.7 63.6 67.3 63.7 57.8 C 60.8 57.5 57.9 57.4 55.1 57.5 C 55.1 55.4 54.9 53.4 55.4 51.4 C 56.5 48.7 59.4 47.3 60.8 44.8 C 61.7 41.6 61.9 38.3 62.3 35.0 Z" />
</svg>
