<?xml version="1.0" encoding="UTF-8" ?>
<!DOCTYPE svg PUBLIC "-//W3C//DTD SVG 1.1//EN" "http://www.w3.org/Graphics/SVG/1.1/DTD/svg11.dtd">
<svg width="128pt" height="128pt" viewBox="0 0 128 128" version="1.1" xmlns="http://www.w3.org/2000/svg">
<path fill="#7f8c8d" stroke="#7f8c8d" stroke-width="0.09375" opacity="1.00" d=" M 0.0 0.0 L 128.0 0.0 L 128.0 128.0 L 0.0 128.0 L 0.0 0.0 Z" />
<path fill="#000000" stroke="#000000" stroke-width="0.09375" opacity="1.00" d=" M 57.5 29.6 C 58.6 27.1 61.1 25.0 63.9 25.2 C 67.0 25.3 69.7 28.1 70.2 31.1 C 70.7 34.4 70.4 37.9 70.6 41.3 C 72.9 43.0 75.3 44.8 76.6 47.4 C 79.1 51.8 79.3 57.0 79.6 61.9 C 79.8 72.3 79.7 82.6 79.5 92.9 C 79.6 96.9 77.0 101.2 72.9 101.7 C 68.2 102.2 63.6 101.9 59.0 102.0 C 56.0 101.9 52.5 102.1 50.5 99.6 C 48.2 97.4 48.0 94.0 47.9 91.0 C 47.6 81.4 47.5 71.7 47.9 62.0 C 48.3 57.2 48.2 52.0 50.6 47.7 C 51.9 45.0 54.4 43.4 56.4 41.4 C 57.5 37.6 56.1 33.3 57.5 29.6 Z" />
<path fill="#7f8c8d" stroke="#7f8c8d" stroke-width="0.09375" opacity="1.00" d=" M 62.4 48.5 C 67.5 47.1 72.4 53.8 69.0 58.1 C 66.8 61.8 61.0 62.0 58.6 58.4 C 55.6 54.9 58.2 49.4 62.4 48.5 Z" />
<path fill="#000000" stroke="#000000" stroke-width="0.09375" opacity="1.00" d=" M 61.4 58.7 C 57.6 56.6 58.9 51.4 62.5 49.9 C 63.9 51.6 65.3 53.3 66.8 55.0 C 66.9 54.2 67.2 52.6 67.3 51.8 C 70.8 55.4 65.5 61.5 61.4 58.7 Z" />
<path fill="#393f40" stroke="#393f40" stroke-width="0.09375" opacity="1.00" d=" M 62.5 49.9 C 64.1 50.0 67.0 49.7 67.3 51.8 C 67.2 52.6 66.9 54.2 66.8 55.0 C 65.3 53.3 63.9 51.6 62.5 49.9 Z" />
<path fill="#7f8c8d" stroke="#7f8c8d" stroke-width="0.09375" opacity="1.00" d=" M 58.0 65.6 C 61.9 67.4 66.0 65.7 70.0 65.6 C 69.6 66.4 69.2 67.3 68.8 68.1 C 65.3 68.3 61.9 68.4 58.4 68.7 C 58.3 67.6 58.2 66.6 58.0 65.6 Z" />
<path fill="#7f8c8d" stroke="#7f8c8d" stroke-width="0.09375" opacity="1.00" d=" M 52.6 71.8 C 60.3 73.6 67.9 70.8 75.6 71.8 C 75.3 72.8 75.6 74.7 73.9 74.4 C 66.7 74.6 59.5 74.1 52.3 74.6 C 52.4 73.6 52.5 72.7 52.6 71.8 Z" />
<path fill="#5c6566" stroke="#5c6566" stroke-width="0.09375" opacity="1.00" d=" M 53.0 78.1 C 60.1 78.0 67.1 78.0 74.2 78.0 C 74.2 78.5 74.2 79.5 74.2 80.0 C 67.1 80.0 60.1 80.1 53.0 80.0 C 53.0 79.5 53.0 78.5 53.0 78.1 Z" />
</svg>
