<?xml version="1.0" encoding="UTF-8" ?>
<!DOCTYPE svg PUBLIC "-//W3C//DTD SVG 1.1//EN" "http://www.w3.org/Graphics/SVG/1.1/DTD/svg11.dtd">
<svg width="128pt" height="128pt" viewBox="0 0 128 128" version="1.1" xmlns="http://www.w3.org/2000/svg">
<path fill="#c0392b" stroke="#c0392b" stroke-width="0.09375" opacity="1.00" d=" M 0.0 0.0 L 128.0 0.0 L 128.0 128.0 L 0.0 128.0 L 0.0 0.0 Z" />
<path fill="#ecf0f1" stroke="#ecf0f1" stroke-width="0.09375" opacity="1.00" d=" M 47.6 34.6 C 51.3 33.8 55.6 32.4 59.1 33.9 C 61.7 37.9 62.2 42.9 64.0 47.2 C 65.3 43.3 66.1 39.3 67.5 35.5 C 69.7 31.9 74.7 33.5 78.1 34.0 C 84.6 34.9 90.1 39.9 91.9 46.1 C 94.0 52.5 97.4 58.5 98.8 65.0 C 99.2 73.1 98.9 81.1 99.0 89.2 C 95.4 89.3 91.8 89.2 88.1 89.2 C 88.1 82.4 88.2 75.7 88.1 68.9 C 88.3 64.6 85.3 61.2 83.0 57.8 C 82.6 70.1 83.0 82.4 82.8 94.7 C 70.3 94.6 57.7 94.6 45.2 94.7 C 45.0 82.4 45.4 70.1 45.0 57.8 C 42.8 61.2 39.8 64.6 39.9 68.9 C 39.8 75.7 39.9 82.4 39.9 89.2 C 36.2 89.2 32.6 89.3 29.0 89.2 C 29.0 82.8 29.0 76.4 29.0 70.0 C 28.4 61.9 33.2 55.0 35.5 47.6 C 37.2 41.7 41.4 36.1 47.6 34.6 Z" />
</svg>
