<?xml version="1.0" encoding="UTF-8" ?>
<!DOCTYPE svg PUBLIC "-//W3C//DTD SVG 1.1//EN" "http://www.w3.org/Graphics/SVG/1.1/DTD/svg11.dtd">
<svg width="128pt" height="128pt" viewBox="0 0 128 128" version="1.1" xmlns="http://www.w3.org/2000/svg">
<path fill="#1abc9c" stroke="#1abc9c" stroke-width="0.09375" opacity="1.00" d=" M 0.0 0.0 L 128.0 0.0 L 128.0 128.0 L 0.0 128.0 L 0.0 0.0 Z" />
<path fill="#ebeff1" stroke="#ebeff1" stroke-width="0.09375" opacity="1.00" d=" M 70.8 48.2 C 73.1 46.3 75.5 44.6 78.0 43.0 C 79.7 44.4 81.8 45.7 82.2 48.1 C 82.9 51.0 81.3 53.7 79.2 55.5 C 76.3 53.2 73.2 51.0 70.8 48.2 Z" />
<path fill="#ebf0f1" stroke="#ebf0f1" stroke-width="0.09375" opacity="1.00" d=" M 92.2 50.0 C 94.2 50.0 94.5 52.3 95.2 53.7 C 97.7 60.1 97.9 67.0 97.7 73.8 C 89.9 74.0 82.1 74.2 74.4 73.7 C 71.2 68.7 68.0 63.8 64.7 58.9 C 63.6 59.4 62.5 60.1 61.4 60.7 C 64.3 65.2 67.4 69.6 70.1 74.2 C 68.5 74.4 66.3 75.5 65.3 73.8 C 62.5 70.0 60.3 66.0 57.7 62.1 C 56.6 62.7 55.5 63.3 54.4 63.9 C 56.5 67.8 59.3 71.3 61.2 75.3 C 59.8 75.3 58.4 75.4 57.0 75.5 C 54.8 72.5 53.1 69.1 50.7 66.2 C 49.4 65.6 48.2 66.8 47.0 67.1 C 48.8 70.1 50.7 73.0 52.4 76.0 C 44.7 76.1 36.8 76.4 29.4 74.1 C 29.9 71.9 30.3 69.5 32.1 68.0 C 40.4 62.9 50.0 60.4 58.4 55.4 C 61.7 54.1 64.1 50.6 67.9 50.9 C 72.3 53.1 74.3 58.5 79.1 59.9 C 81.8 60.0 84.4 59.0 86.7 57.8 C 89.7 56.2 90.4 52.6 92.2 50.0 Z" />
<path fill="#ebeff0" stroke="#ebeff0" stroke-width="0.09375" opacity="1.00" d=" M 29.1 77.2 C 45.0 81.4 61.7 81.0 78.0 81.0 C 85.0 81.0 92.0 80.9 99.0 80.1 C 99.0 80.8 99.0 82.2 99.0 82.9 C 94.1 85.7 88.4 84.9 83.0 85.0 C 70.3 84.9 57.7 85.5 45.0 84.4 C 39.6 83.9 34.0 83.3 29.0 81.0 C 29.0 79.7 29.1 78.4 29.1 77.2 Z" />
</svg>
