<?xml version="1.0" encoding="UTF-8" ?>
<!DOCTYPE svg PUBLIC "-//W3C//DTD SVG 1.1//EN" "http://www.w3.org/Graphics/SVG/1.1/DTD/svg11.dtd">
<svg width="128pt" height="128pt" viewBox="0 0 128 128" version="1.1" xmlns="http://www.w3.org/2000/svg">
<path fill="#27ae60" stroke="#27ae60" stroke-width="0.09375" opacity="1.00" d=" M 0.0 0.0 L 128.0 0.0 L 128.0 128.0 L 0.0 128.0 L 0.0 0.0 Z" />
<path fill="#eceff1" stroke="#eceff1" stroke-width="0.09375" opacity="1.00" d=" M 38.1 39.2 C 55.4 38.8 72.6 38.8 89.8 39.1 C 90.2 41.0 90.6 43.0 91.0 44.8 C 83.3 45.5 75.7 45.0 68.0 45.1 C 57.7 45.0 47.4 45.4 37.1 44.9 C 37.5 43.0 37.8 41.1 38.1 39.2 Z" />
<path fill="#ecf0f1" stroke="#ecf0f1" stroke-width="0.09375" opacity="1.00" d=" M 36.1 50.0 C 54.7 49.7 73.3 49.6 91.9 50.0 C 94.3 62.1 97.1 74.2 99.0 86.4 C 89.4 87.3 79.8 88.4 70.2 89.0 C 68.1 85.5 66.2 81.9 64.0 78.4 C 61.8 81.9 59.9 85.5 57.8 89.0 C 48.1 88.3 38.5 87.5 28.9 86.2 C 31.2 74.1 33.6 62.0 36.1 50.0 Z" />
</svg>
