<?xml version="1.0" encoding="UTF-8" ?>
<!DOCTYPE svg PUBLIC "-//W3C//DTD SVG 1.1//EN" "http://www.w3.org/Graphics/SVG/1.1/DTD/svg11.dtd">
<svg width="128pt" height="128pt" viewBox="0 0 128 128" version="1.1" xmlns="http://www.w3.org/2000/svg">
<path fill="#8d43ac" stroke="#8d43ac" stroke-width="0.09375" opacity="1.00" d=" M 0.0 0.0 L 128.0 0.0 L 128.0 128.0 L 0.0 128.0 L 0.0 0.0 Z" />
<path fill="#ebf0f1" stroke="#ebf0f1" stroke-width="0.09375" opacity="1.00" d=" M 82.3 41.4 C 83.9 41.4 87.1 41.4 88.7 41.4 C 88.8 43.1 88.8 44.9 88.7 46.6 C 87.1 46.6 83.9 46.6 82.3 46.6 C 82.2 44.9 82.2 43.1 82.3 41.4 Z" />
<path fill="#ebf0f1" stroke="#ebf0f1" stroke-width="0.09375" opacity="1.00" d=" M 73.6 51.2 C 75.5 50.3 77.4 49.5 79.3 48.6 C 80.0 50.9 80.6 53.2 81.2 55.4 C 79.4 55.7 77.6 55.9 75.9 56.2 C 75.1 54.5 74.3 52.8 73.6 51.2 Z" />
<path fill="#ecf0f1" stroke="#ecf0f1" stroke-width="0.09375" opacity="1.00" d=" M 81.9 54.8 C 84.5 53.1 87.0 51.1 89.9 49.8 C 92.5 51.5 95.6 54.0 93.8 57.8 C 92.6 59.8 90.8 61.3 89.1 63.0 C 86.4 60.6 83.9 57.8 81.9 54.8 Z" />
<path fill="#ebeff0" stroke="#ebeff0" stroke-width="0.09375" opacity="1.00" d=" M 59.5 57.4 C 70.1 56.8 82.1 58.2 90.3 65.7 C 93.2 71.1 92.5 79.5 87.1 83.0 C 80.6 84.7 73.8 82.5 67.3 81.9 C 58.1 80.1 49.3 84.4 40.1 84.0 C 32.4 80.4 31.0 67.8 38.2 63.2 C 44.3 58.7 52.2 58.3 59.5 57.4 Z" />
<path fill="#8e44ad" stroke="#8e44ad" stroke-width="0.09375" opacity="1.00" d=" M 45.4 68.0 C 51.5 65.8 57.9 65.3 64.3 66.0 C 58.0 66.6 51.7 67.3 45.4 68.0 Z" />
</svg>
