<?xml version="1.0" encoding="UTF-8" ?>
<!DOCTYPE svg PUBLIC "-//W3C//DTD SVG 1.1//EN" "http://www.w3.org/Graphics/SVG/1.1/DTD/svg11.dtd">
<svg width="128pt" height="128pt" viewBox="0 0 128 128" version="1.1" xmlns="http://www.w3.org/2000/svg">
<path fill="#7f8c8d" stroke="#7f8c8d" stroke-width="0.09375" opacity="1.00" d=" M 0.0 0.0 L 128.0 0.0 L 128.0 128.0 L 0.0 128.0 L 0.0 0.0 Z" />
<path fill="#ecf0f1" stroke="#ecf0f1" stroke-width="0.09375" opacity="1.00" d=" M 39.2 29.1 C 46.9 29.8 54.6 30.8 62.2 31.9 C 61.7 42.4 60.6 52.9 59.5 63.3 C 58.7 67.2 59.8 71.5 63.4 73.6 C 69.4 76.7 76.2 77.9 82.5 80.5 C 87.8 82.4 93.3 86.1 94.4 92.0 C 95.2 95.2 92.8 98.2 89.7 98.7 C 82.8 99.9 75.8 97.9 69.4 95.6 C 61.9 92.7 54.0 90.8 46.0 89.9 C 42.4 89.4 38.3 89.1 35.3 86.7 C 32.8 84.7 33.5 81.1 34.4 78.4 C 35.7 74.8 37.0 71.1 37.2 67.2 C 38.4 54.5 38.7 41.8 39.2 29.1 Z" />
</svg>
