<?xml version="1.0" encoding="UTF-8" ?>
<!DOCTYPE svg PUBLIC "-//W3C//DTD SVG 1.1//EN" "http://www.w3.org/Graphics/SVG/1.1/DTD/svg11.dtd">
<svg width="128pt" height="128pt" viewBox="0 0 128 128" version="1.1" xmlns="http://www.w3.org/2000/svg">
<path fill="#3598db" stroke="#3598db" stroke-width="0.09375" opacity="1.00" d=" M 0.0 0.0 L 128.0 0.0 L 128.0 128.0 L 0.0 128.0 L 0.0 0.0 Z" />
<path fill="#aab6be" stroke="#aab6be" stroke-width="0.09375" opacity="1.00" d=" M 72.2 27.2 C 77.4 27.0 82.7 27.0 87.9 27.2 C 88.1 33.9 88.1 40.6 87.8 47.3 C 87.3 41.0 87.9 34.6 86.7 28.4 C 82.2 27.7 77.6 28.0 73.0 28.0 C 73.0 34.7 73.1 41.4 73.1 48.2 C 73.1 48.6 73.1 49.5 73.1 49.9 C 73.1 55.0 73.1 60.0 73.1 65.1 C 73.1 65.5 73.1 66.4 73.1 66.8 C 73.1 71.6 73.1 76.4 73.2 81.2 C 73.1 81.6 73.1 82.5 73.1 82.9 C 73.1 86.0 72.9 89.1 72.7 92.2 C 72.2 89.2 72.0 86.1 72.0 83.0 C 72.2 64.4 71.9 45.8 72.2 27.2 Z" />
<path fill="#ecf0f1" stroke="#ecf0f1" stroke-width="0.09375" opacity="1.00" d=" M 38.1 27.6 C 43.3 27.4 48.4 27.4 53.5 27.7 C 53.4 49.0 53.5 70.4 53.5 91.8 C 52.0 92.0 50.6 92.1 49.2 92.2 C 49.0 93.4 48.9 94.6 48.8 95.7 C 46.9 95.7 44.9 95.7 43.0 95.7 C 42.9 94.6 42.8 93.4 42.7 92.3 C 41.2 92.1 39.7 92.0 38.2 91.8 C 37.9 70.4 38.3 49.0 38.1 27.6 Z" />
<path fill="#ecf0f1" stroke="#ecf0f1" stroke-width="0.09375" opacity="1.00" d=" M 73.0 28.0 C 77.6 28.0 82.2 27.7 86.7 28.4 C 87.9 34.6 87.3 41.0 87.8 47.3 C 87.7 62.1 88.0 77.0 87.7 91.8 C 86.2 92.0 84.8 92.1 83.3 92.3 C 83.2 93.4 83.1 94.6 83.0 95.7 C 81.0 95.7 79.1 95.7 77.2 95.7 C 77.1 94.5 77.0 93.3 76.9 92.1 C 75.5 92.2 74.1 92.2 72.7 92.2 C 72.9 89.1 73.1 86.0 73.1 82.9 C 74.3 85.2 75.7 87.9 78.5 88.6 C 83.0 90.0 88.0 85.0 86.6 80.5 C 85.7 76.8 81.5 74.2 77.9 75.7 C 75.5 76.6 74.3 79.1 73.2 81.2 C 73.1 76.4 73.1 71.6 73.1 66.8 C 74.7 69.2 76.6 72.5 80.0 72.2 C 84.0 72.4 87.5 68.3 86.7 64.4 C 85.8 60.9 82.1 58.0 78.4 59.1 C 75.6 59.8 74.3 62.7 73.1 65.1 C 73.1 60.0 73.1 55.0 73.1 49.9 C 74.3 52.3 75.7 55.0 78.4 55.8 C 83.3 57.4 88.5 51.4 86.3 46.8 C 85.1 43.6 81.2 41.6 78.0 42.9 C 75.6 43.8 74.4 46.2 73.1 48.2 C 73.1 41.4 73.0 34.7 73.0 28.0 Z" />
<path fill="#5e9bc4" stroke="#5e9bc4" stroke-width="0.09375" opacity="1.00" d=" M 43.2 32.2 C 45.3 29.5 49.7 31.8 49.3 34.9 C 49.6 37.8 45.9 37.8 44.0 38.6 C 43.2 36.6 41.0 34.1 43.2 32.2 Z" />
<path fill="#629dc4" stroke="#629dc4" stroke-width="0.09375" opacity="1.00" d=" M 79.2 31.0 C 81.7 30.5 83.5 32.8 84.1 34.9 C 83.2 37.8 79.1 39.6 77.2 36.7 C 75.4 34.7 77.2 32.0 79.2 31.0 Z" />
<path fill="#e6eaec" stroke="#e6eaec" stroke-width="0.09375" opacity="1.00" d=" M 44.5 32.5 C 45.9 33.2 47.3 34.0 48.6 34.8 C 47.2 35.5 45.6 36.0 44.0 36.4 C 44.1 35.4 44.3 33.5 44.5 32.5 Z" />
<path fill="#ebf0f1" stroke="#ebf0f1" stroke-width="0.09375" opacity="1.00" d=" M 79.4 33.3 C 81.5 31.6 81.7 34.8 82.2 36.1 C 80.6 36.1 79.0 35.7 77.5 35.1 C 78.0 34.6 78.9 33.7 79.4 33.3 Z" />
<path fill="#5799c4" stroke="#5799c4" stroke-width="0.09375" opacity="1.00" d=" M 45.2 42.5 C 48.8 42.2 52.6 45.3 52.3 49.0 C 52.8 53.0 48.9 56.3 45.2 56.0 C 41.2 55.4 37.6 50.6 39.7 46.7 C 40.6 44.4 42.8 42.8 45.2 42.5 Z" />
<path fill="#5b9ac4" stroke="#5b9ac4" stroke-width="0.09375" opacity="1.00" d=" M 78.0 42.9 C 81.2 41.6 85.1 43.6 86.3 46.8 C 88.5 51.4 83.3 57.4 78.4 55.8 C 75.7 55.0 74.3 52.3 73.1 49.9 C 73.1 49.5 73.1 48.6 73.1 48.2 C 74.4 46.2 75.6 43.8 78.0 42.9 Z" />
<path fill="#ecf0f1" stroke="#ecf0f1" stroke-width="0.09375" opacity="1.00" d=" M 44.4 44.4 C 48.1 43.0 52.6 47.8 50.4 51.3 C 48.8 55.3 42.1 54.9 41.1 50.7 C 40.3 48.1 41.8 45.2 44.4 44.4 Z" />
<path fill="#e0e5e7" stroke="#e0e5e7" stroke-width="0.09375" opacity="1.00" d=" M 75.5 51.4 C 73.6 48.1 76.8 44.4 80.1 44.0 C 82.0 44.6 83.7 45.9 85.4 47.0 C 85.0 49.0 84.9 51.1 83.8 52.8 C 81.4 54.9 76.9 54.5 75.5 51.4 Z" />
<path fill="#3698da" stroke="#3698da" stroke-width="0.09375" opacity="1.00" d=" M 43.0 48.2 C 44.0 47.5 45.0 46.8 46.0 46.2 C 47.4 47.3 48.5 48.7 49.6 49.9 C 48.1 50.6 46.7 51.5 45.1 51.9 C 43.7 51.2 43.0 49.8 43.0 48.2 Z" />
<path fill="#3598db" stroke="#3598db" stroke-width="0.09375" opacity="1.00" d=" M 76.4 50.0 C 77.6 48.7 78.6 47.3 80.0 46.3 C 81.0 46.9 82.0 47.5 82.9 48.3 C 82.9 49.8 82.1 51.1 80.9 51.9 C 79.4 51.4 77.9 50.6 76.4 50.0 Z" />
<path fill="#5698c4" stroke="#5698c4" stroke-width="0.09375" opacity="1.00" d=" M 43.5 59.4 C 47.7 57.5 53.0 61.4 52.3 66.0 C 52.6 72.1 43.6 74.6 40.5 69.5 C 37.6 66.1 39.7 61.0 43.5 59.4 Z" />
<path fill="#5497c5" stroke="#5497c5" stroke-width="0.09375" opacity="1.00" d=" M 78.4 59.1 C 82.1 58.0 85.8 60.9 86.7 64.4 C 87.5 68.3 84.0 72.4 80.0 72.2 C 76.6 72.5 74.7 69.2 73.1 66.8 C 73.1 66.4 73.1 65.5 73.1 65.1 C 74.3 62.7 75.6 59.8 78.4 59.1 Z" />
<path fill="#e4e9ea" stroke="#e4e9ea" stroke-width="0.09375" opacity="1.00" d=" M 43.4 61.1 C 46.0 60.4 49.5 60.8 50.5 63.7 C 52.6 67.4 47.8 72.1 44.0 70.2 C 40.0 68.9 39.9 63.0 43.4 61.1 Z" />
<path fill="#e3e8e9" stroke="#e3e8e9" stroke-width="0.09375" opacity="1.00" d=" M 76.8 69.4 C 73.2 66.7 75.5 60.3 80.0 60.8 C 84.2 60.1 85.2 64.8 85.4 67.9 C 82.9 69.7 79.5 72.0 76.8 69.4 Z" />
<path fill="#3598db" stroke="#3598db" stroke-width="0.09375" opacity="1.00" d=" M 43.3 65.1 C 43.7 61.6 47.9 63.9 49.6 65.1 C 48.4 66.3 47.3 67.5 46.0 68.5 C 44.7 67.7 42.3 67.1 43.3 65.1 Z" />
<path fill="#3598db" stroke="#3598db" stroke-width="0.09375" opacity="1.00" d=" M 76.4 65.1 C 78.2 64.2 80.1 62.3 82.3 63.7 C 83.5 65.9 82.3 67.8 80.0 68.5 C 78.7 67.5 77.6 66.3 76.4 65.1 Z" />
<path fill="#5e9bc4" stroke="#5e9bc4" stroke-width="0.09375" opacity="1.00" d=" M 44.4 75.5 C 48.7 74.3 53.2 78.6 52.2 82.9 C 52.1 88.2 44.6 90.9 41.2 86.8 C 37.2 83.4 39.5 76.5 44.4 75.5 Z" />
<path fill="#619cc3" stroke="#619cc3" stroke-width="0.09375" opacity="1.00" d=" M 77.9 75.7 C 81.5 74.2 85.7 76.8 86.6 80.5 C 88.0 85.0 83.0 90.0 78.5 88.6 C 75.7 87.9 74.3 85.2 73.1 82.9 C 73.1 82.5 73.1 81.6 73.2 81.2 C 74.3 79.1 75.5 76.6 77.9 75.7 Z" />
<path fill="#e4e8ea" stroke="#e4e8ea" stroke-width="0.09375" opacity="1.00" d=" M 44.4 77.2 C 48.4 75.7 53.1 81.4 49.9 84.8 C 48.2 88.0 43.0 87.7 41.4 84.5 C 40.1 81.8 41.3 78.1 44.4 77.2 Z" />
<path fill="#e5e9eb" stroke="#e5e9eb" stroke-width="0.09375" opacity="1.00" d=" M 78.5 77.3 C 81.8 75.8 85.8 79.4 85.0 82.9 C 84.7 87.2 78.2 88.7 76.1 84.9 C 73.7 82.4 75.6 78.5 78.5 77.3 Z" />
<path fill="#3698da" stroke="#3698da" stroke-width="0.09375" opacity="1.00" d=" M 44.2 80.2 C 46.1 77.9 47.9 81.0 49.5 82.0 C 48.1 83.1 46.9 84.5 45.2 84.9 C 43.6 84.0 41.9 81.3 44.2 80.2 Z" />
<path fill="#3698da" stroke="#3698da" stroke-width="0.09375" opacity="1.00" d=" M 76.5 82.0 C 77.7 81.0 78.8 80.0 80.1 79.2 C 82.1 79.8 84.1 82.2 81.9 83.9 C 79.9 86.2 78.1 83.1 76.5 82.0 Z" />
<path fill="#ecf0f1" stroke="#ecf0f1" stroke-width="0.09375" opacity="1.00" d=" M 38.2 98.2 C 42.9 97.4 47.7 97.7 52.4 97.6 L 52.4 99.6 C 47.7 99.4 42.6 100.4 38.2 98.2 Z" />
<path fill="#c7d0d5" stroke="#c7d0d5" stroke-width="0.09375" opacity="1.00" d=" M 72.2 99.2 C 76.6 96.3 82.1 97.8 87.1 97.6 C 87.0 98.1 86.9 99.2 86.9 99.7 C 82.0 99.8 77.0 100.0 72.2 99.2 Z" />
</svg>
