<?xml version="1.0" encoding="UTF-8" ?>
<!DOCTYPE svg PUBLIC "-//W3C//DTD SVG 1.1//EN" "http://www.w3.org/Graphics/SVG/1.1/DTD/svg11.dtd">
<svg width="128pt" height="128pt" viewBox="0 0 128 128" version="1.1" xmlns="http://www.w3.org/2000/svg">
<path fill="#8e44ad" stroke="#8e44ad" stroke-width="0.09375" opacity="1.00" d=" M 0.0 0.0 L 128.0 0.0 L 128.0 128.0 L 0.0 128.0 L 0.0 0.0 Z" />
<path fill="#ecf0f1" stroke="#ecf0f1" stroke-width="0.09375" opacity="1.00" d=" M 61.4 44.4 C 73.1 42.6 85.0 53.1 84.1 65.0 C 84.5 76.8 72.6 86.8 61.1 84.9 C 50.6 83.7 42.3 73.5 43.5 63.0 C 44.0 53.5 52.0 45.4 61.4 44.4 Z" />
<path fill="#8e44ad" stroke="#8e44ad" stroke-width="0.09375" opacity="1.00" d=" M 65.4 54.5 C 66.8 54.5 68.2 54.5 69.6 54.5 C 69.4 55.7 69.2 57.0 69.0 58.2 C 66.6 58.3 65.1 57.0 65.4 54.5 Z" />
<path fill="#9362a9" stroke="#9362a9" stroke-width="0.09375" opacity="1.00" d=" M 63.8 61.9 C 65.1 62.0 66.4 62.2 67.7 62.3 C 67.7 63.4 67.6 64.5 67.5 65.6 C 66.3 65.6 64.8 66.0 63.9 64.9 C 63.9 64.2 63.8 62.7 63.8 61.9 Z" />
</svg>
