<?xml version="1.0" encoding="UTF-8" ?>
<!DOCTYPE svg PUBLIC "-//W3C//DTD SVG 1.1//EN" "http://www.w3.org/Graphics/SVG/1.1/DTD/svg11.dtd">
<svg width="128pt" height="128pt" viewBox="0 0 128 128" version="1.1" xmlns="http://www.w3.org/2000/svg">
<path fill="#c0392b" stroke="#c0392b" stroke-width="0.09375" opacity="1.00" d=" M 0.0 0.0 L 128.0 0.0 L 128.0 128.0 L 0.0 128.0 L 0.0 0.0 Z" />
<path fill="#ecf0f1" stroke="#ecf0f1" stroke-width="0.09375" opacity="1.00" d=" M 44.4 40.4 C 45.9 38.7 47.4 36.4 50.0 36.8 C 59.3 36.7 68.7 36.7 78.0 36.8 C 80.6 36.4 82.2 38.7 83.7 40.4 C 88.3 46.0 93.2 51.5 97.9 57.1 C 99.2 58.3 99.5 60.7 97.9 61.8 C 96.0 63.4 93.9 66.3 91.2 65.3 C 87.5 62.2 85.0 57.8 81.3 54.7 C 80.9 66.7 81.9 78.8 80.8 90.7 C 75.6 91.7 70.4 91.0 65.2 90.9 C 65.3 84.6 65.3 78.3 65.2 72.0 C 65.3 70.0 65.0 67.8 66.1 66.0 C 68.7 61.4 71.6 56.9 74.1 52.2 C 74.9 50.7 73.1 49.3 72.7 47.8 C 74.1 47.4 75.6 47.0 77.1 46.6 C 75.2 43.8 73.1 41.2 70.8 38.8 C 68.1 48.1 67.1 57.8 64.0 67.0 C 61.2 57.8 59.6 48.3 57.5 38.9 C 54.9 41.1 52.8 43.8 50.9 46.6 C 52.4 47.0 53.9 47.4 55.3 47.8 C 54.9 49.1 53.7 50.4 53.9 51.9 C 56.2 56.8 59.3 61.3 61.9 66.0 C 63.1 67.8 62.8 70.0 62.8 72.0 C 62.8 78.3 62.8 84.6 62.8 90.9 C 58.3 91.0 53.7 91.5 49.1 91.1 C 46.9 91.1 46.8 88.7 46.7 87.0 C 46.7 76.3 46.8 65.5 46.7 54.8 C 43.0 57.9 40.6 62.2 36.8 65.3 C 34.1 66.2 32.0 63.4 30.2 61.8 C 28.6 60.7 28.8 58.4 30.1 57.1 C 34.8 51.5 39.7 46.0 44.4 40.4 Z" />
</svg>
