<?xml version="1.0" encoding="UTF-8" ?>
<!DOCTYPE svg PUBLIC "-//W3C//DTD SVG 1.1//EN" "http://www.w3.org/Graphics/SVG/1.1/DTD/svg11.dtd">
<svg width="128pt" height="128pt" viewBox="0 0 128 128" version="1.1" xmlns="http://www.w3.org/2000/svg">
<path fill="#8e44ad" stroke="#8e44ad" stroke-width="0.09375" opacity="1.00" d=" M 0.0 0.0 L 128.0 0.0 L 128.0 128.0 L 0.0 128.0 L 0.0 0.0 Z" />
<path fill="#ecf0f1" stroke="#ecf0f1" stroke-width="0.09375" opacity="1.00" d=" M 57.7 47.7 C 59.9 46.2 61.4 49.0 62.5 50.5 C 65.7 56.0 69.4 61.2 72.3 66.9 C 63.5 70.0 54.2 72.1 44.9 70.8 C 50.0 67.0 55.9 64.3 61.2 60.8 C 60.5 58.0 59.5 55.2 58.2 52.6 C 53.1 54.6 48.7 58.3 43.2 59.1 C 42.7 58.1 42.3 57.1 41.8 56.1 C 46.8 52.8 52.3 50.3 57.7 47.7 Z" />
<path fill="#ecf0f1" stroke="#ecf0f1" stroke-width="0.09375" opacity="1.00" d=" M 78.3 50.1 C 81.7 48.9 85.6 50.5 87.2 53.7 C 89.4 57.3 87.1 62.1 83.4 63.4 C 79.2 65.4 73.4 61.7 73.7 57.0 C 73.5 54.0 75.5 51.1 78.3 50.1 Z" />
<path fill="#ecf0f1" stroke="#ecf0f1" stroke-width="0.09375" opacity="1.00" d=" M 61.4 75.3 C 67.5 73.9 73.6 70.9 80.0 71.8 C 85.0 72.5 89.1 75.9 92.2 79.6 C 88.4 77.8 84.4 75.7 80.0 76.1 C 71.5 76.5 63.6 80.9 55.0 80.9 C 48.1 81.4 40.9 78.7 36.5 73.1 C 44.3 76.6 53.1 77.0 61.4 75.3 Z" />
</svg>
