<?xml version="1.0" encoding="UTF-8" ?>
<!DOCTYPE svg PUBLIC "-//W3C//DTD SVG 1.1//EN" "http://www.w3.org/Graphics/SVG/1.1/DTD/svg11.dtd">
<svg width="128pt" height="128pt" viewBox="0 0 128 128" version="1.1" xmlns="http://www.w3.org/2000/svg">
<path fill="#27ae60" stroke="#27ae60" stroke-width="0.09375" opacity="1.00" d=" M 0.0 0.0 L 128.0 0.0 L 128.0 128.0 L 0.0 128.0 L 0.0 0.0 Z" />
<path fill="#ecf0f1" stroke="#ecf0f1" stroke-width="0.09375" opacity="1.00" d=" M 38.9 49.1 C 43.0 43.5 50.5 39.8 57.4 42.4 C 58.0 44.8 58.6 47.8 61.3 48.8 C 63.7 49.3 66.7 49.5 68.7 47.7 C 70.1 46.1 70.5 44.0 71.2 42.1 C 78.1 40.2 85.0 43.8 89.3 49.1 C 86.8 52.9 83.0 55.7 80.5 59.5 C 80.1 68.4 80.7 77.4 80.3 86.3 C 69.3 86.5 58.2 86.7 47.2 86.2 C 47.1 77.2 47.5 68.2 47.1 59.2 C 45.2 55.3 40.2 53.2 38.9 49.1 Z" />
<path fill="#ecf0f1" stroke="#ecf0f1" stroke-width="0.09375" opacity="1.00" d=" M 32.4 56.1 C 33.6 54.7 34.7 53.3 36.0 52.0 C 39.0 54.8 41.8 57.7 44.3 60.9 C 42.7 62.0 41.1 63.1 39.4 63.9 C 37.0 61.3 34.6 58.8 32.4 56.1 Z" />
<path fill="#ecf0f1" stroke="#ecf0f1" stroke-width="0.09375" opacity="1.00" d=" M 83.7 60.8 C 86.1 57.5 89.0 54.6 92.0 51.9 C 93.1 53.2 95.0 54.1 95.5 55.8 C 93.6 58.8 90.9 61.1 88.6 63.8 C 86.9 62.9 85.3 61.8 83.7 60.8 Z" />
<path fill="#27ad60" stroke="#27ad60" stroke-width="0.09375" opacity="1.00" d=" M 61.8 63.9 C 62.5 62.4 63.2 60.8 64.0 59.3 C 64.8 60.8 65.5 62.4 66.2 63.9 C 67.9 64.0 69.6 64.1 71.3 64.2 C 70.0 65.6 68.7 66.9 67.4 68.2 C 67.9 69.8 68.3 71.5 68.8 73.2 C 67.2 72.3 65.6 71.4 64.0 70.5 C 62.5 71.4 60.9 72.4 59.3 73.2 C 59.8 71.6 60.2 69.9 60.7 68.2 C 59.3 66.9 58.0 65.6 56.7 64.3 C 58.4 64.1 60.1 64.0 61.8 63.9 Z" />
</svg>
