<?xml version="1.0" encoding="UTF-8" ?>
<!DOCTYPE svg PUBLIC "-//W3C//DTD SVG 1.1//EN" "http://www.w3.org/Graphics/SVG/1.1/DTD/svg11.dtd">
<svg width="128pt" height="128pt" viewBox="0 0 128 128" version="1.1" xmlns="http://www.w3.org/2000/svg">
<path fill="#1abc9c" stroke="#1abc9c" stroke-width="0.09375" opacity="1.00" d=" M 0.0 0.0 L 128.0 0.0 L 128.0 128.0 L 0.0 128.0 L 0.0 0.0 Z" />
<path fill="#ecf0f1" stroke="#ecf0f1" stroke-width="0.09375" opacity="1.00" d=" M 47.0 33.3 C 47.9 31.6 51.2 31.2 51.7 33.4 C 53.2 37.5 56.6 40.5 59.2 43.9 C 60.4 45.2 61.4 46.9 63.0 47.8 C 66.2 45.1 68.5 41.5 71.3 38.4 C 73.6 36.1 73.7 31.1 78.0 31.8 C 78.3 33.0 79.2 34.3 78.6 35.5 C 74.2 38.7 70.0 42.8 67.9 47.9 C 75.5 48.9 83.2 47.9 90.8 48.4 C 92.6 48.4 93.7 50.0 95.0 51.0 C 94.9 64.4 95.1 77.7 95.0 91.0 C 95.3 93.7 92.4 95.2 90.1 95.0 C 72.0 95.0 54.0 95.0 35.9 95.0 C 33.6 95.2 30.7 93.7 31.0 91.0 C 30.9 77.7 31.1 64.4 31.0 51.0 C 32.3 50.0 33.4 48.4 35.2 48.4 C 42.8 47.9 50.5 48.9 58.1 47.9 C 56.8 44.4 54.1 41.9 51.9 39.1 C 50.4 37.0 46.5 36.5 47.0 33.3 Z" />
<path fill="#1abc9c" stroke="#1abc9c" stroke-width="0.09375" opacity="1.00" d=" M 39.4 53.2 C 41.4 52.3 43.8 52.6 46.0 52.5 C 55.3 52.7 64.7 52.4 74.0 52.7 C 77.2 52.7 79.4 56.0 79.3 59.0 C 79.3 67.6 79.4 76.3 79.2 85.0 C 79.3 88.3 76.4 91.3 73.1 90.9 C 62.7 91.0 52.3 91.0 42.0 90.9 C 39.2 91.1 36.7 88.8 36.6 86.0 C 36.3 77.7 36.7 69.3 36.5 61.0 C 36.5 58.2 36.4 54.6 39.4 53.2 Z" />
<path fill="#1abc9c" stroke="#1abc9c" stroke-width="0.09375" opacity="1.00" d=" M 85.3 53.3 C 88.9 52.0 93.0 55.2 92.3 59.0 C 92.2 63.2 86.5 65.3 83.5 62.6 C 80.3 60.0 81.3 54.3 85.3 53.3 Z" />
<path fill="#1abc9c" stroke="#1abc9c" stroke-width="0.09375" opacity="1.00" d=" M 85.5 66.5 C 89.6 65.1 93.8 69.9 92.0 73.8 C 90.6 77.9 84.2 78.4 82.3 74.5 C 80.2 71.6 82.3 67.5 85.5 66.5 Z" />
</svg>
