<?xml version="1.0" encoding="UTF-8" ?>
<!DOCTYPE svg PUBLIC "-//W3C//DTD SVG 1.1//EN" "http://www.w3.org/Graphics/SVG/1.1/DTD/svg11.dtd">
<svg width="128pt" height="128pt" viewBox="0 0 128 128" version="1.1" xmlns="http://www.w3.org/2000/svg">
<path fill="#344b5e" stroke="#344b5e" stroke-width="0.09375" opacity="1.00" d=" M 0.0 0.0 L 128.0 0.0 L 128.0 128.0 L 0.0 128.0 L 0.0 0.0 Z" />
<path fill="#eceff0" stroke="#eceff0" stroke-width="0.09375" opacity="1.00" d=" M 60.4 40.0 C 75.0 40.0 89.6 40.0 104.1 40.0 C 103.9 58.4 102.0 76.7 100.9 95.0 C 89.3 95.0 77.8 95.0 66.3 95.0 C 64.8 76.6 62.7 58.3 60.4 40.0 Z" />
<path fill="#354a5d" stroke="#354a5d" stroke-width="0.09375" opacity="1.00" d=" M 65.3 46.2 C 76.6 46.0 87.9 46.0 99.2 46.0 C 98.7 47.9 98.3 49.7 97.9 51.6 C 93.1 50.9 87.9 49.3 83.2 51.3 C 79.3 52.4 75.5 55.1 71.3 54.7 C 67.3 53.8 66.6 49.3 65.3 46.2 Z" />
<path fill="#ebeff1" stroke="#ebeff1" stroke-width="0.09375" opacity="1.00" d=" M 47.8 58.2 C 49.3 57.2 50.7 56.3 52.2 55.4 C 56.8 61.9 59.4 69.9 57.8 77.8 C 54.9 87.1 46.1 95.3 36.0 95.0 C 29.4 96.2 23.8 92.2 18.4 89.1 C 19.3 87.7 20.2 86.3 21.1 84.9 C 27.4 88.5 34.7 91.7 42.0 89.1 C 48.1 85.8 54.2 79.5 53.0 72.0 C 53.0 66.9 50.1 62.5 47.8 58.2 Z" />
<path fill="#ecf0f1" stroke="#ecf0f1" stroke-width="0.09375" opacity="1.00" d=" M 35.7 68.3 C 38.5 65.3 41.2 62.3 44.1 59.4 C 46.8 63.7 49.2 68.2 51.4 72.8 C 46.2 71.2 40.9 69.7 35.7 68.3 Z" />
<path fill="#ecf0f1" stroke="#ecf0f1" stroke-width="0.09375" opacity="1.00" d=" M 32.9 70.1 C 38.8 72.1 44.7 74.1 50.7 75.8 C 47.7 80.4 43.8 84.3 39.3 87.4 C 37.2 81.7 35.0 75.9 32.9 70.1 Z" />
<path fill="#ecf0f1" stroke="#ecf0f1" stroke-width="0.09375" opacity="1.00" d=" M 22.3 81.1 C 25.2 78.4 28.1 75.7 31.2 73.3 C 32.6 78.4 34.3 83.3 36.0 88.2 C 31.3 86.1 26.7 83.8 22.3 81.1 Z" />
</svg>
