<?xml version="1.0" encoding="UTF-8" ?>
<!DOCTYPE svg PUBLIC "-//W3C//DTD SVG 1.1//EN" "http://www.w3.org/Graphics/SVG/1.1/DTD/svg11.dtd">
<svg width="128pt" height="128pt" viewBox="0 0 128 128" version="1.1" xmlns="http://www.w3.org/2000/svg">
<path fill="#3598db" stroke="#3598db" stroke-width="0.09375" opacity="1.00" d=" M 0.0 0.0 L 128.0 0.0 L 128.0 128.0 L 0.0 128.0 L 0.0 0.0 Z" />
<path fill="#ecf0f1" stroke="#ecf0f1" stroke-width="0.09375" opacity="1.00" d=" M 52.8 53.8 C 56.8 51.4 60.1 48.1 63.1 44.5 C 66.4 43.9 69.3 46.3 72.1 47.8 C 75.1 49.3 75.7 52.8 76.6 55.6 C 79.9 55.7 83.2 55.8 86.4 56.6 C 88.4 57.7 89.5 59.9 90.8 61.7 C 88.2 61.7 85.7 61.8 83.1 61.5 C 83.3 60.4 83.5 59.3 83.7 58.1 C 81.1 58.3 78.6 58.6 76.1 59.0 C 68.1 59.1 60.0 59.1 52.0 59.0 C 49.0 58.4 46.0 58.3 43.0 58.2 C 43.3 59.3 43.6 60.4 43.9 61.5 C 41.4 61.8 38.8 61.7 36.3 61.7 C 37.4 60.1 38.4 58.3 39.8 56.8 C 44.0 55.1 49.2 57.1 52.8 53.8 Z" />
<path fill="#3f94ce" stroke="#3f94ce" stroke-width="0.09375" opacity="1.00" d=" M 43.0 58.2 C 46.0 58.3 49.0 58.4 52.0 59.0 C 59.8 61.0 68.3 60.9 76.1 59.0 C 78.6 58.6 81.1 58.3 83.7 58.1 C 83.5 59.3 83.3 60.4 83.1 61.5 C 78.7 61.0 74.4 60.7 70.0 60.8 C 61.3 61.0 52.6 60.3 43.9 61.5 C 43.6 60.4 43.3 59.3 43.0 58.2 Z" />
<path fill="#97a9b4" stroke="#97a9b4" stroke-width="0.09375" opacity="1.00" d=" M 52.0 59.0 C 60.0 59.1 68.1 59.1 76.1 59.0 C 68.3 60.9 59.8 61.0 52.0 59.0 Z" />
<path fill="#6c97b4" stroke="#6c97b4" stroke-width="0.09375" opacity="1.00" d=" M 35.1 64.1 C 35.2 63.3 35.2 62.5 35.3 61.7 C 39.1 62.6 43.1 63.1 47.0 62.8 C 58.0 62.1 69.0 62.0 80.0 62.8 C 84.0 63.1 88.0 62.6 91.8 61.6 C 91.8 62.5 91.9 63.3 91.9 64.1 C 82.6 64.6 73.3 63.9 64.0 64.0 C 54.4 64.0 44.7 64.6 35.1 64.1 Z" />
<path fill="#9aacb6" stroke="#9aacb6" stroke-width="0.09375" opacity="1.00" d=" M 35.3 61.7 L 36.3 61.7 C 38.8 61.7 41.4 61.8 43.9 61.5 C 52.6 60.3 61.3 61.0 70.0 60.8 C 74.4 60.7 78.7 61.0 83.1 61.5 C 85.7 61.8 88.2 61.7 90.8 61.7 L 91.8 61.6 C 88.0 62.6 84.0 63.1 80.0 62.8 C 69.0 62.0 58.0 62.1 47.0 62.8 C 43.1 63.1 39.1 62.6 35.3 61.7 Z" />
<path fill="#8fa4b2" stroke="#8fa4b2" stroke-width="0.09375" opacity="1.00" d=" M 34.1 64.1 L 35.1 64.1 C 44.7 64.6 54.4 64.0 64.0 64.0 C 73.3 63.9 82.6 64.6 91.9 64.1 L 92.9 64.1 C 92.9 67.6 93.4 71.1 92.6 74.6 C 92.1 74.7 91.2 75.0 90.8 75.2 C 91.7 72.0 91.6 68.6 91.8 65.3 C 72.9 65.4 54.1 65.4 35.2 65.3 C 35.4 68.6 35.3 71.9 36.3 75.1 C 35.8 75.0 34.9 74.7 34.5 74.6 C 33.6 71.1 34.1 67.6 34.1 64.1 Z" />
<path fill="#ecf0f1" stroke="#ecf0f1" stroke-width="0.09375" opacity="1.00" d=" M 35.2 65.3 C 54.1 65.4 72.9 65.4 91.8 65.3 C 91.6 68.6 91.7 72.0 90.8 75.2 C 90.4 76.4 90.1 77.6 89.7 78.9 C 72.3 79.1 54.8 79.1 37.4 78.9 C 37.0 77.6 36.6 76.4 36.3 75.1 C 35.3 71.9 35.4 68.6 35.2 65.3 Z" />
</svg>
