<?xml version="1.0" encoding="UTF-8" ?>
<!DOCTYPE svg PUBLIC "-//W3C//DTD SVG 1.1//EN" "http://www.w3.org/Graphics/SVG/1.1/DTD/svg11.dtd">
<svg width="128pt" height="128pt" viewBox="0 0 128 128" version="1.1" xmlns="http://www.w3.org/2000/svg">
<path fill="#c0392b" stroke="#c0392b" stroke-width="0.09375" opacity="1.00" d=" M 0.0 0.0 L 128.0 0.0 L 128.0 128.0 L 0.0 128.0 L 0.0 0.0 Z" />
<path fill="#ecf0f1" stroke="#ecf0f1" stroke-width="0.09375" opacity="1.00" d=" M 83.0 42.6 C 87.8 42.3 92.1 39.3 97.0 39.9 C 100.8 39.5 104.1 41.5 107.1 43.5 C 98.1 45.6 88.9 43.8 79.9 43.5 C 80.0 45.5 80.1 47.5 80.1 49.5 C 89.7 50.4 98.6 56.5 103.2 64.9 C 105.3 68.6 105.5 73.2 104.1 77.3 C 102.7 80.8 98.5 81.9 95.0 82.1 C 88.0 82.5 81.0 82.3 74.0 82.4 C 70.8 82.4 67.3 82.5 64.7 80.3 C 62.1 78.0 62.0 74.2 60.8 71.1 C 58.1 69.9 54.9 70.5 52.0 70.0 C 44.8 69.1 37.6 69.1 30.5 67.6 C 30.3 66.9 29.9 65.6 29.6 64.9 C 40.0 64.8 50.4 64.9 60.8 64.8 C 62.4 56.6 69.4 50.0 77.9 49.6 C 77.9 47.5 77.9 45.5 78.1 43.5 C 71.8 42.8 66.2 46.9 60.0 46.4 C 56.8 46.6 54.1 44.7 51.6 43.0 C 61.8 39.7 72.6 43.6 83.0 42.6 Z" />
<path fill="#c0392b" stroke="#c0392b" stroke-width="0.09375" opacity="1.00" d=" M 78.5 54.6 C 81.4 54.4 84.5 53.7 87.3 54.9 C 90.6 56.2 93.3 58.7 95.6 61.4 C 97.7 64.0 99.9 66.7 100.2 70.1 C 93.5 70.8 86.8 70.7 80.1 70.3 C 78.3 70.3 78.3 68.3 78.3 66.9 C 78.1 62.8 78.2 58.7 78.5 54.6 Z" />
<path fill="#ecf0f1" stroke="#ecf0f1" stroke-width="0.09375" opacity="1.00" d=" M 25.6 58.6 C 30.2 55.1 38.0 57.5 39.3 63.2 C 35.4 63.4 32.6 58.7 28.6 60.5 C 24.1 62.1 23.5 69.0 27.7 71.3 C 31.5 73.8 35.1 69.6 39.1 70.2 C 36.8 74.9 30.4 76.9 26.0 74.0 C 20.6 70.9 20.4 61.9 25.6 58.6 Z" />
<path fill="#ecf0f1" stroke="#ecf0f1" stroke-width="0.09375" opacity="1.00" d=" M 100.6 84.6 C 102.0 83.2 103.1 81.4 105.2 80.8 C 105.2 82.5 105.6 84.7 103.9 85.9 C 99.2 89.8 92.6 88.3 87.0 88.6 C 80.4 88.3 73.7 89.2 67.2 88.1 C 66.4 86.4 67.6 85.3 69.3 85.5 C 77.8 85.3 86.4 85.6 95.0 85.5 C 96.9 85.4 98.8 85.4 100.6 84.6 Z" />
</svg>
