<?xml version="1.0" encoding="UTF-8" ?>
<!DOCTYPE svg PUBLIC "-//W3C//DTD SVG 1.1//EN" "http://www.w3.org/Graphics/SVG/1.1/DTD/svg11.dtd">
<svg width="128pt" height="128pt" viewBox="0 0 128 128" version="1.1" xmlns="http://www.w3.org/2000/svg">
<path fill="#f39c12" stroke="#f39c12" stroke-width="0.09375" opacity="1.00" d=" M 0.0 0.0 L 128.0 0.0 L 128.0 128.0 L 0.0 128.0 L 0.0 0.0 Z" />
<path fill="#ecf0f1" stroke="#ecf0f1" stroke-width="0.09375" opacity="1.00" d=" M 72.3 34.0 C 73.9 34.1 76.3 34.8 75.7 36.8 C 74.8 40.0 73.1 42.8 71.6 45.7 C 69.5 50.5 63.0 52.1 62.5 58.0 C 61.9 58.8 61.7 59.7 61.9 60.7 C 61.8 61.2 61.7 62.1 61.7 62.5 C 60.7 67.7 60.9 73.0 61.1 78.2 C 59.3 83.0 56.2 87.2 53.5 91.6 C 52.7 93.7 49.0 93.3 48.7 91.0 C 50.4 86.2 54.1 82.4 55.9 77.8 C 56.2 74.9 54.9 72.1 54.2 69.4 C 51.9 72.4 50.4 76.0 47.7 78.7 C 44.3 80.6 40.6 81.9 37.0 83.0 C 35.2 83.7 33.7 81.8 34.0 80.1 C 36.3 77.7 39.8 77.2 42.7 75.7 C 45.5 74.9 46.0 71.6 47.3 69.3 C 49.2 65.5 49.3 61.1 50.1 57.0 C 52.0 55.8 50.0 53.7 48.9 55.6 C 45.0 58.3 42.8 62.6 39.9 66.2 C 39.2 66.1 37.8 65.9 37.1 65.7 C 36.1 62.5 38.6 59.8 40.3 57.3 C 42.8 53.5 46.9 51.1 50.8 49.0 C 54.3 49.0 57.9 49.2 61.4 48.4 C 67.6 46.0 69.0 39.0 72.3 34.0 Z" />
<path fill="#ebeff0" stroke="#ebeff0" stroke-width="0.09375" opacity="1.00" d=" M 77.8 36.1 C 82.3 33.7 88.7 32.9 93.0 36.1 C 93.1 38.4 90.5 38.3 88.9 38.8 C 85.1 39.2 80.3 39.6 77.8 36.1 Z" />
<path fill="#ecf0f1" stroke="#ecf0f1" stroke-width="0.09375" opacity="1.00" d=" M 51.9 38.5 C 53.6 37.3 55.7 36.2 57.8 36.9 C 62.1 37.9 62.1 45.1 57.8 46.1 C 55.7 46.8 53.7 45.6 51.9 44.5 L 52.0 43.6 C 52.3 42.2 52.3 40.8 52.0 39.4 L 51.9 38.5 Z" />
<path fill="#b99d70" stroke="#b99d70" stroke-width="0.09375" opacity="1.00" d=" M 52.0 43.6 C 50.2 43.6 50.1 39.4 52.0 39.4 C 52.3 40.8 52.3 42.2 52.0 43.6 Z" />
<path fill="#c2944a" stroke="#c2944a" stroke-width="0.09375" opacity="1.00" d=" M 50.8 49.0 C 53.8 46.8 57.9 48.4 61.4 48.4 C 57.9 49.2 54.3 49.0 50.8 49.0 Z" />
<path fill="#bdaa89" stroke="#bdaa89" stroke-width="0.09375" opacity="1.00" d=" M 48.9 55.6 C 50.0 53.7 52.0 55.8 50.1 57.0 C 49.8 56.6 49.2 56.0 48.9 55.6 Z" />
<path fill="#b9a480" stroke="#b9a480" stroke-width="0.09375" opacity="1.00" d=" M 61.9 60.7 C 61.7 59.7 61.9 58.8 62.5 58.0 C 63.8 59.3 63.6 60.2 61.9 60.7 Z" />
<path fill="#d29738" stroke="#d29738" stroke-width="0.09375" opacity="1.00" d=" M 61.1 78.2 C 60.9 73.0 60.7 67.7 61.7 62.5 C 61.7 67.7 62.5 73.1 61.1 78.2 Z" />
</svg>
