<?xml version="1.0" encoding="UTF-8" ?>
<!DOCTYPE svg PUBLIC "-//W3C//DTD SVG 1.1//EN" "http://www.w3.org/Graphics/SVG/1.1/DTD/svg11.dtd">
<svg width="128pt" height="128pt" viewBox="0 0 128 128" version="1.1" xmlns="http://www.w3.org/2000/svg">
<path fill="#8e44ad" stroke="#8e44ad" stroke-width="0.09375" opacity="1.00" d=" M 0.0 0.0 L 128.0 0.0 L 128.0 128.0 L 0.0 128.0 L 0.0 0.0 Z" />
<path fill="#ecf0f1" stroke="#ecf0f1" stroke-width="0.09375" opacity="1.00" d=" M 40.1 34.0 C 40.7 33.2 41.2 32.5 41.8 31.8 C 45.5 38.1 48.3 45.0 54.0 49.8 C 52.1 51.6 50.3 53.4 48.6 55.3 C 45.1 54.5 41.6 54.0 38.1 53.7 C 38.1 53.0 38.2 51.7 38.2 51.1 C 42.0 50.7 45.7 51.5 49.4 52.5 C 44.3 47.8 39.2 43.0 36.0 36.9 C 36.1 35.8 36.7 35.3 37.8 35.4 C 39.8 37.3 41.3 39.6 43.3 41.5 C 42.4 38.9 41.0 36.5 40.1 34.0 Z" />
<path fill="#ecf0f1" stroke="#ecf0f1" stroke-width="0.09375" opacity="1.00" d=" M 48.0 63.0 C 48.1 55.9 54.2 49.8 61.0 48.7 C 63.6 48.2 65.8 49.8 67.2 51.8 C 74.5 62.5 81.9 73.1 89.3 83.7 C 91.0 86.1 93.0 88.4 94.0 91.2 C 94.9 93.9 92.0 96.6 89.4 95.6 C 87.1 94.7 85.2 93.1 83.3 91.7 C 78.4 88.0 73.3 84.7 68.5 80.9 C 69.6 78.1 71.0 75.4 71.9 72.5 C 71.2 72.4 69.8 72.1 69.1 71.9 C 67.6 74.1 66.3 76.4 65.0 78.6 C 63.7 77.4 61.3 76.3 62.0 74.1 C 62.7 71.3 64.2 68.9 65.2 66.2 C 64.6 65.9 63.4 65.2 62.8 64.9 C 60.7 67.5 59.2 70.6 58.1 73.7 C 57.0 72.7 55.9 71.8 55.0 70.7 C 54.9 66.7 57.0 63.1 58.7 59.7 C 58.0 59.4 56.7 58.9 56.0 58.6 C 53.0 61.2 52.4 65.3 51.1 68.8 C 49.7 67.1 47.9 65.3 48.0 63.0 Z" />
</svg>
