<?xml version="1.0" encoding="UTF-8" ?>
<!DOCTYPE svg PUBLIC "-//W3C//DTD SVG 1.1//EN" "http://www.w3.org/Graphics/SVG/1.1/DTD/svg11.dtd">
<svg width="128pt" height="128pt" viewBox="0 0 128 128" version="1.1" xmlns="http://www.w3.org/2000/svg">
<path fill="#e74c3c" stroke="#e74c3c" stroke-width="0.09375" opacity="1.00" d=" M 0.0 0.0 L 128.0 0.0 L 128.0 128.0 L 0.0 128.0 L 0.0 0.0 Z" />
<path fill="#ecf0f1" stroke="#ecf0f1" stroke-width="0.09375" opacity="1.00" d=" M 79.6 30.5 C 84.8 27.2 92.4 29.4 95.0 35.0 C 97.9 40.5 94.9 48.0 89.1 50.1 C 85.5 51.7 81.6 50.1 78.1 48.9 C 72.6 55.6 66.7 62.0 61.8 69.1 C 61.5 77.8 61.2 86.7 62.0 95.4 C 65.9 95.7 70.5 95.7 73.5 98.8 C 63.5 99.1 53.6 99.1 43.7 98.8 C 46.9 95.9 51.4 95.7 55.5 95.4 C 56.1 88.2 55.6 81.1 55.8 74.0 C 55.7 71.8 56.3 69.2 54.6 67.4 C 47.1 58.2 39.4 49.2 32.0 39.9 C 45.9 39.6 59.9 39.9 73.8 39.8 C 74.9 36.3 76.1 32.4 79.6 30.5 Z" />
<path fill="#e74c3c" stroke="#e74c3c" stroke-width="0.09375" opacity="1.00" d=" M 84.2 31.9 C 85.4 31.7 86.5 31.6 87.7 31.8 C 86.8 34.7 86.0 37.6 85.7 40.7 C 83.5 38.9 80.8 37.9 78.3 36.6 C 78.0 35.5 78.3 34.6 79.2 33.9 C 81.6 34.9 82.8 37.7 85.1 38.9 C 85.0 36.5 84.6 34.2 84.2 31.9 Z" />
<path fill="#e74c3c" stroke="#e74c3c" stroke-width="0.09375" opacity="1.00" d=" M 86.8 39.1 C 88.4 37.5 90.2 36.1 92.0 34.8 C 92.2 35.8 93.9 37.5 92.4 38.2 C 90.6 38.8 88.7 38.9 86.8 39.1 Z" />
<path fill="#e74c3c" stroke="#e74c3c" stroke-width="0.09375" opacity="1.00" d=" M 86.7 41.0 C 88.4 41.7 90.1 42.5 91.9 43.2 C 91.9 43.9 91.8 45.2 91.8 45.8 C 91.2 45.8 90.0 45.7 89.4 45.7 C 88.5 44.1 87.6 42.6 86.7 41.0 Z" />
<path fill="#e65e50" stroke="#e65e50" stroke-width="0.09375" opacity="1.00" d=" M 82.7 48.1 C 83.2 46.0 83.9 43.9 85.0 42.1 C 85.6 44.1 86.0 46.1 86.2 48.1 C 85.4 48.1 83.6 48.1 82.7 48.1 Z" />
<path fill="#e74c3c" stroke="#e74c3c" stroke-width="0.09375" opacity="1.00" d=" M 50.7 55.9 C 56.2 56.2 61.6 56.2 67.0 55.9 C 64.9 58.4 62.9 61.2 60.2 63.3 C 59.3 64.1 57.8 63.9 56.9 63.1 C 54.4 61.1 52.6 58.4 50.7 55.9 Z" />
</svg>
