<?xml version="1.0" encoding="UTF-8" ?>
<!DOCTYPE svg PUBLIC "-//W3C//DTD SVG 1.1//EN" "http://www.w3.org/Graphics/SVG/1.1/DTD/svg11.dtd">
<svg width="128pt" height="128pt" viewBox="0 0 128 128" version="1.1" xmlns="http://www.w3.org/2000/svg">
<path fill="#1abc9c" stroke="#1abc9c" stroke-width="0.09375" opacity="1.00" d=" M 0.0 0.0 L 128.0 0.0 L 128.0 128.0 L 0.0 128.0 L 0.0 0.0 Z" />
<path fill="#ecf0f1" stroke="#ecf0f1" stroke-width="0.09375" opacity="1.00" d=" M 71.4 27.9 C 73.1 26.6 75.3 27.1 77.3 27.0 C 76.8 28.1 76.4 30.2 74.8 30.0 C 71.5 30.1 68.3 30.0 65.0 30.0 C 65.0 32.3 65.0 34.6 65.0 36.9 C 65.5 37.0 66.5 37.0 67.0 37.1 C 67.0 38.4 67.0 39.7 67.0 41.0 C 67.8 41.0 69.3 41.0 70.0 41.0 C 70.1 44.5 69.8 48.1 70.1 51.6 C 71.5 53.5 74.5 53.5 75.9 55.4 C 76.1 58.2 76.6 61.2 75.1 63.6 C 74.8 66.6 75.7 69.9 74.1 72.6 C 74.4 77.9 73.0 83.6 74.9 88.6 C 75.2 91.3 74.4 94.2 75.9 96.6 C 76.0 98.4 76.0 100.2 76.0 102.0 C 67.3 102.0 58.7 102.0 50.0 102.0 C 50.0 100.2 50.0 98.4 50.1 96.6 C 51.6 94.2 50.8 91.3 51.1 88.6 C 52.3 87.0 52.0 84.9 52.0 83.0 C 52.0 79.2 52.1 75.4 51.9 71.6 C 50.0 68.8 52.0 65.2 50.1 62.4 C 50.0 60.1 49.8 57.7 50.1 55.4 C 51.8 54.2 53.4 52.9 55.1 51.7 C 55.0 48.1 55.0 44.6 55.0 41.0 C 56.3 41.0 57.7 41.0 59.0 41.0 C 59.0 39.7 59.0 38.4 59.0 37.1 C 59.5 37.0 60.5 37.0 61.0 36.9 C 61.0 35.0 61.0 33.0 61.0 31.0 C 60.2 31.0 58.7 31.0 58.0 31.0 C 58.0 30.2 58.0 28.7 58.0 28.0 C 62.5 27.9 66.9 28.1 71.4 27.9 Z" />
</svg>
