<?xml version="1.0" encoding="UTF-8" ?>
<!DOCTYPE svg PUBLIC "-//W3C//DTD SVG 1.1//EN" "http://www.w3.org/Graphics/SVG/1.1/DTD/svg11.dtd">
<svg width="128pt" height="128pt" viewBox="0 0 128 128" version="1.1" xmlns="http://www.w3.org/2000/svg">
<path fill="#e67e21" stroke="#e67e21" stroke-width="0.09375" opacity="1.00" d=" M 0.0 0.0 L 128.0 0.0 L 128.0 128.0 L 0.0 128.0 L 0.0 0.0 Z" />
<path fill="#eceff0" stroke="#eceff0" stroke-width="0.09375" opacity="1.00" d=" M 46.9 26.0 C 58.6 26.0 70.3 25.6 82.0 26.2 C 86.3 35.4 85.0 46.1 85.1 56.0 C 85.1 66.0 80.3 75.2 79.2 85.0 C 78.8 91.1 81.7 96.6 83.4 102.3 C 70.9 102.8 58.3 102.7 45.8 101.8 C 48.7 94.7 52.4 87.0 49.5 79.3 C 43.1 62.4 41.8 43.5 46.9 26.0 Z" />
<path fill="#e57d22" stroke="#e57d22" stroke-width="0.09375" opacity="1.00" d=" M 51.6 33.0 C 60.1 33.0 68.5 33.0 77.0 33.0 C 77.5 36.3 78.1 39.6 78.7 42.8 C 76.0 43.2 73.3 43.6 70.6 44.0 C 70.8 49.4 71.3 54.8 71.8 60.2 C 70.3 60.6 68.7 60.9 67.2 61.3 C 67.3 55.2 68.0 49.0 66.9 42.9 C 62.5 43.0 58.1 43.0 53.7 43.0 C 53.7 52.9 54.1 63.0 57.7 72.3 C 60.2 78.5 61.0 85.2 60.6 91.9 C 64.4 92.0 68.2 92.0 71.9 92.1 C 72.6 93.3 73.3 94.5 74.0 95.8 C 68.1 95.6 62.3 95.4 56.4 95.7 C 59.1 84.2 54.7 73.1 51.9 62.1 C 50.6 52.5 50.8 42.7 51.6 33.0 Z" />
</svg>
