<?xml version="1.0" encoding="UTF-8" ?>
<!DOCTYPE svg PUBLIC "-//W3C//DTD SVG 1.1//EN" "http://www.w3.org/Graphics/SVG/1.1/DTD/svg11.dtd">
<svg width="128pt" height="128pt" viewBox="0 0 128 128" version="1.1" xmlns="http://www.w3.org/2000/svg">
<path fill="#8e44ad" stroke="#8e44ad" stroke-width="0.09375" opacity="1.00" d=" M 0.0 0.0 L 128.0 0.0 L 128.0 128.0 L 0.0 128.0 L 0.0 0.0 Z" />
<path fill="#f7f5f8" stroke="#f7f5f8" stroke-width="0.09375" opacity="1.00" d=" M 44.1 24.2 C 45.1 21.8 45.7 18.8 48.7 18.1 C 47.4 24.6 43.9 30.5 42.9 37.0 C 41.4 43.9 44.4 51.7 50.7 55.2 C 58.6 60.2 69.4 60.3 77.3 55.2 C 82.9 52.0 86.2 45.4 85.4 39.0 C 84.7 31.7 80.8 25.3 79.3 18.1 C 81.0 18.6 82.3 19.8 82.8 21.5 C 86.3 29.7 88.7 38.9 87.1 47.8 C 84.8 55.4 76.5 57.6 70.9 61.9 C 65.5 65.8 66.4 73.2 65.6 79.1 C 65.3 86.9 64.7 94.9 66.6 102.5 C 69.6 108.1 76.6 107.0 81.7 108.8 C 69.9 109.5 58.1 109.5 46.4 108.8 C 50.5 107.1 55.5 108.1 59.1 105.1 C 62.2 103.2 62.2 99.2 62.5 96.0 C 62.7 89.0 62.9 81.9 62.1 75.0 C 61.7 70.3 61.4 64.8 57.1 61.9 C 51.5 57.6 43.2 55.4 40.9 47.8 C 39.4 39.9 41.2 31.7 44.1 24.2 Z" />
<path fill="#f8f6f9" stroke="#f8f6f9" stroke-width="0.09375" opacity="1.00" d=" M 45.5 37.5 C 51.7 34.3 58.8 36.4 65.3 37.6 C 71.4 39.2 77.8 39.2 84.1 39.0 C 83.5 43.2 82.9 47.7 79.6 50.7 C 74.0 55.4 66.3 56.8 59.2 55.9 C 56.1 55.4 52.6 55.0 50.2 52.8 C 45.8 49.3 43.6 42.9 45.5 37.5 Z" />
</svg>
