<?xml version="1.0" encoding="UTF-8" ?>
<!DOCTYPE svg PUBLIC "-//W3C//DTD SVG 1.1//EN" "http://www.w3.org/Graphics/SVG/1.1/DTD/svg11.dtd">
<svg width="128pt" height="128pt" viewBox="0 0 128 128" version="1.1" xmlns="http://www.w3.org/2000/svg">
<path fill="#c0392b" stroke="#c0392b" stroke-width="0.09375" opacity="1.00" d=" M 0.0 0.0 L 128.0 0.0 L 128.0 128.0 L 0.0 128.0 L 0.0 0.0 Z" />
<path fill="#ecf0f1" stroke="#ecf0f1" stroke-width="0.09375" opacity="1.00" d=" M 34.0 42.1 C 37.9 42.1 41.8 42.1 45.7 42.1 C 45.8 44.4 45.8 46.6 45.9 48.8 C 58.4 48.8 70.9 48.8 83.5 48.7 C 83.5 46.4 83.5 44.0 83.5 41.6 C 87.4 41.5 91.4 41.5 95.3 41.6 C 95.4 46.3 95.4 50.9 95.3 55.6 C 91.4 55.7 87.5 55.7 83.5 55.6 C 83.5 53.6 83.4 51.7 83.3 49.8 C 79.8 50.1 77.8 53.2 75.4 55.4 C 73.5 57.4 71.3 59.2 69.7 61.5 C 69.2 67.8 69.7 74.2 69.5 80.5 C 72.4 80.6 75.2 80.6 78.1 80.6 C 78.2 84.7 78.1 88.8 78.1 92.8 C 76.6 92.8 75.1 92.8 73.7 92.9 C 73.6 90.7 73.6 88.5 73.5 86.4 C 67.6 86.3 61.6 86.3 55.7 86.4 C 55.7 88.5 55.7 90.7 55.7 92.8 C 54.1 92.8 52.6 92.7 51.0 92.7 C 51.2 88.7 51.2 84.7 51.1 80.7 C 54.0 80.6 56.9 80.6 59.9 80.6 C 59.7 74.2 60.1 67.8 59.7 61.4 C 57.9 59.1 55.7 57.3 53.8 55.2 C 51.5 53.0 49.4 50.0 45.9 49.7 C 45.8 51.9 45.8 54.1 45.8 56.2 C 41.9 56.3 37.9 56.3 34.0 56.2 C 34.0 51.5 34.0 46.8 34.0 42.1 Z" />
<path fill="#c0392b" stroke="#c0392b" stroke-width="0.09375" opacity="1.00" d=" M 50.7 50.1 C 54.0 50.1 57.4 50.1 60.7 50.0 C 58.9 52.4 58.2 55.2 58.5 58.2 C 56.0 55.5 53.3 52.9 50.7 50.1 Z" />
<path fill="#c0392b" stroke="#c0392b" stroke-width="0.09375" opacity="1.00" d=" M 69.1 50.0 C 72.3 50.1 75.5 50.1 78.7 50.2 C 76.4 52.8 73.9 55.2 71.5 57.6 C 71.0 55.0 70.3 52.4 69.1 50.0 Z" />
</svg>
