<?xml version="1.0" encoding="UTF-8" ?>
<!DOCTYPE svg PUBLIC "-//W3C//DTD SVG 1.1//EN" "http://www.w3.org/Graphics/SVG/1.1/DTD/svg11.dtd">
<svg width="128pt" height="128pt" viewBox="0 0 128 128" version="1.1" xmlns="http://www.w3.org/2000/svg">
<path fill="#1abc9c" stroke="#1abc9c" stroke-width="0.09375" opacity="1.00" d=" M 0.0 0.0 L 128.0 0.0 L 128.0 128.0 L 0.0 128.0 L 0.0 0.0 Z" />
<path fill="#ecf0f1" stroke="#ecf0f1" stroke-width="0.09375" opacity="1.00" d=" M 26.0 56.0 C 25.7 54.3 27.1 52.3 29.0 52.5 C 33.7 52.8 38.3 53.7 43.0 53.7 C 60.7 53.9 78.4 53.9 96.1 52.8 C 97.5 52.9 99.3 52.3 100.6 53.4 C 102.8 59.2 102.3 65.8 100.7 71.7 C 93.8 72.4 86.9 71.3 80.0 71.3 C 63.7 71.1 47.3 70.4 31.0 71.9 C 29.5 71.8 27.1 72.4 26.2 70.7 C 25.7 65.8 26.0 60.9 26.0 56.0 Z" />
<path fill="#69aa9e" stroke="#69aa9e" stroke-width="0.09375" opacity="1.00" d=" M 93.2 56.3 C 94.0 55.2 95.1 54.4 96.0 53.5 C 97.0 54.4 98.1 55.2 98.9 56.2 C 99.2 60.4 99.2 64.6 98.9 68.8 C 97.6 71.2 94.4 71.2 93.2 68.7 C 92.8 64.6 92.8 60.4 93.2 56.3 Z" />
<path fill="#51a595" stroke="#51a595" stroke-width="0.09375" opacity="1.00" d=" M 27.3 54.4 C 27.7 54.6 28.4 55.0 28.8 55.2 C 29.2 60.0 29.2 64.9 28.8 69.6 C 28.4 69.9 27.7 70.3 27.3 70.6 C 27.6 65.2 27.7 59.8 27.3 54.4 Z" />
<path fill="#69a79b" stroke="#69a79b" stroke-width="0.09375" opacity="1.00" d=" M 30.1 57.3 C 31.6 55.1 34.7 56.0 37.0 55.7 C 47.7 56.0 58.3 55.6 69.0 56.1 C 70.3 58.4 68.8 61.3 66.0 61.0 C 55.3 61.1 44.6 61.0 34.0 61.0 C 32.0 61.2 29.3 59.5 30.1 57.3 Z" />
<path fill="#c6cdce" stroke="#c6cdce" stroke-width="0.09375" opacity="1.00" d=" M 80.3 56.1 C 84.7 54.7 89.5 59.1 88.6 63.5 C 87.9 67.7 82.6 70.8 78.9 68.2 C 74.1 65.7 75.0 57.4 80.3 56.1 Z" />
<path fill="#ecf0f1" stroke="#ecf0f1" stroke-width="0.09375" opacity="1.00" d=" M 94.9 55.9 C 95.6 56.1 96.9 56.4 97.6 56.5 C 97.6 59.9 97.8 63.3 97.6 66.7 C 97.7 68.3 96.3 69.1 95.0 69.2 C 94.4 64.8 94.5 60.4 94.9 55.9 Z" />
<path fill="#e2e7e8" stroke="#e2e7e8" stroke-width="0.09375" opacity="1.00" d=" M 32.1 57.2 C 42.4 57.1 52.7 57.2 63.0 57.1 C 65.0 57.2 67.5 56.7 68.4 59.0 C 56.3 59.5 44.1 59.3 32.0 59.1 C 32.0 58.6 32.1 57.6 32.1 57.2 Z" />
<path fill="#ebf0f0" stroke="#ebf0f0" stroke-width="0.09375" opacity="1.00" d=" M 80.1 60.0 C 82.0 60.1 85.5 60.0 84.8 62.9 C 84.5 65.2 81.8 64.7 80.1 64.9 C 79.8 63.3 79.8 61.7 80.1 60.0 Z" />
<path fill="#6aa89c" stroke="#6aa89c" stroke-width="0.09375" opacity="1.00" d=" M 34.4 66.1 C 35.0 64.3 37.2 64.1 38.8 64.5 C 43.0 65.7 47.3 63.3 51.6 64.4 C 53.4 64.5 52.9 66.9 53.3 68.1 C 48.1 69.0 43.0 67.3 37.9 68.2 C 36.5 68.4 34.0 68.1 34.4 66.1 Z" />
<path fill="#6da99e" stroke="#6da99e" stroke-width="0.09375" opacity="1.00" d=" M 54.4 67.6 C 52.8 65.7 55.4 64.2 57.2 64.2 C 60.8 64.0 64.3 64.8 67.9 64.9 C 69.5 64.7 69.3 66.6 69.8 67.5 C 64.7 67.6 59.3 69.5 54.4 67.6 Z" />
<path fill="#ecf0f1" stroke="#ecf0f1" stroke-width="0.09375" opacity="1.00" d=" M 36.6 66.2 C 37.2 65.3 39.7 65.3 39.4 66.8 C 38.8 67.7 36.3 67.6 36.6 66.2 Z" />
<path fill="#ecf0f1" stroke="#ecf0f1" stroke-width="0.09375" opacity="1.00" d=" M 44.0 66.0 C 46.6 66.0 49.3 66.0 52.0 66.0 L 52.0 67.0 C 49.3 67.0 46.7 67.0 44.0 67.0 L 44.0 66.0 Z" />
<path fill="#ecf0f1" stroke="#ecf0f1" stroke-width="0.09375" opacity="1.00" d=" M 56.0 66.0 C 58.7 66.0 61.3 66.0 64.0 66.0 L 64.0 67.0 C 61.3 67.0 58.7 67.0 56.0 67.0 L 56.0 66.0 Z" />
</svg>
